M48
; DRILL file {KiCad 8.0.6} date 2025-02-10T20:46:42+0530
; FORMAT={-:-/ absolute / metric / decimal}
; #@! TF.CreationDate,2025-02-10T20:46:42+05:30
; #@! TF.GenerationSoftware,Kicad,Pcbnew,8.0.6
; #@! TF.FileFunction,Plated,1,2,PTH
FMAT,2
METRIC
; #@! TA.AperFunction,Plated,PTH,ViaDrill
T1C0.300
; #@! TA.AperFunction,Plated,PTH,ComponentDrill
T2C0.500
; #@! TA.AperFunction,Plated,PTH,ComponentDrill
T3C1.000
; #@! TA.AperFunction,Plated,PTH,ComponentDrill
T4C1.020
; #@! TA.AperFunction,Plated,PTH,ComponentDrill
T5C1.100
; #@! TA.AperFunction,Plated,PTH,ComponentDrill
T6C1.520
; #@! TA.AperFunction,Plated,PTH,ComponentDrill
T7C4.300
; #@! TA.AperFunction,Plated,PTH,ComponentDrill
T8C4.500
%
G90
G05
T1
X170.69Y-55.02
X173.46Y-81.998
X176.08Y-69.82
T2
X177.16Y-89.52
X177.16Y-90.52
X177.16Y-91.52
T3
X156.0Y-64.93
X156.0Y-67.47
X156.0Y-70.01
X156.0Y-72.55
X156.0Y-75.09
X156.0Y-77.63
X156.0Y-80.17
X156.0Y-82.71
T4
X122.947Y-57.565
X122.947Y-60.105
X122.947Y-62.645
X122.947Y-65.185
X122.947Y-67.725
X122.947Y-70.265
X122.947Y-72.805
X122.947Y-75.345
X122.947Y-77.885
X122.947Y-80.425
X122.947Y-82.965
X122.947Y-85.505
X122.947Y-88.045
X122.947Y-90.585
X122.947Y-93.125
X148.347Y-57.565
X148.347Y-60.105
X148.347Y-62.645
X148.347Y-65.185
X148.347Y-67.725
X148.347Y-70.265
X148.347Y-72.805
X148.347Y-75.345
X148.347Y-77.885
X148.347Y-80.425
X148.347Y-82.965
X148.347Y-85.505
X148.347Y-88.045
X148.347Y-90.585
X148.347Y-93.125
T5
X176.42Y-64.43
X178.96Y-64.43
X181.5Y-64.43
T6
X181.37Y-74.58
X181.37Y-79.66
T7
X114.07Y-52.12
X114.07Y-103.4
X181.34Y-103.64
X181.692Y-52.12
T8
X162.38Y-101.56
X169.58Y-101.56
M30
