%TF.GenerationSoftware,KiCad,Pcbnew,8.0.6*%
%TF.CreationDate,2025-02-10T20:46:35+05:30*%
%TF.ProjectId,subscale-payload,73756273-6361-46c6-952d-7061796c6f61,rev?*%
%TF.SameCoordinates,Original*%
%TF.FileFunction,Paste,Top*%
%TF.FilePolarity,Positive*%
%FSLAX46Y46*%
G04 Gerber Fmt 4.6, Leading zero omitted, Abs format (unit mm)*
G04 Created by KiCad (PCBNEW 8.0.6) date 2025-02-10 20:46:35*
%MOMM*%
%LPD*%
G01*
G04 APERTURE LIST*
G04 Aperture macros list*
%AMRoundRect*
0 Rectangle with rounded corners*
0 $1 Rounding radius*
0 $2 $3 $4 $5 $6 $7 $8 $9 X,Y pos of 4 corners*
0 Add a 4 corners polygon primitive as box body*
4,1,4,$2,$3,$4,$5,$6,$7,$8,$9,$2,$3,0*
0 Add four circle primitives for the rounded corners*
1,1,$1+$1,$2,$3*
1,1,$1+$1,$4,$5*
1,1,$1+$1,$6,$7*
1,1,$1+$1,$8,$9*
0 Add four rect primitives between the rounded corners*
20,1,$1+$1,$2,$3,$4,$5,0*
20,1,$1+$1,$4,$5,$6,$7,0*
20,1,$1+$1,$6,$7,$8,$9,0*
20,1,$1+$1,$8,$9,$2,$3,0*%
G04 Aperture macros list end*
%ADD10RoundRect,0.250000X-0.450000X0.262500X-0.450000X-0.262500X0.450000X-0.262500X0.450000X0.262500X0*%
%ADD11RoundRect,0.243750X0.456250X-0.243750X0.456250X0.243750X-0.456250X0.243750X-0.456250X-0.243750X0*%
%ADD12RoundRect,0.250000X-0.250000X-0.475000X0.250000X-0.475000X0.250000X0.475000X-0.250000X0.475000X0*%
%ADD13RoundRect,0.250000X0.250000X0.475000X-0.250000X0.475000X-0.250000X-0.475000X0.250000X-0.475000X0*%
%TA.AperFunction,ComponentPad*%
%ADD14R,1.905000X2.000000*%
%TD*%
%TA.AperFunction,ComponentPad*%
%ADD15O,1.905000X2.000000*%
%TD*%
%TA.AperFunction,ComponentPad*%
%ADD16R,2.000000X2.000000*%
%TD*%
%TA.AperFunction,ComponentPad*%
%ADD17C,2.000000*%
%TD*%
%TA.AperFunction,ComponentPad*%
%ADD18R,0.850000X0.850000*%
%TD*%
%TA.AperFunction,ComponentPad*%
%ADD19O,0.850000X0.850000*%
%TD*%
%TA.AperFunction,ComponentPad*%
%ADD20R,3.000000X3.000000*%
%TD*%
%TA.AperFunction,ComponentPad*%
%ADD21C,3.000000*%
%TD*%
%TA.AperFunction,ComponentPad*%
%ADD22RoundRect,1.500000X-1.500000X-1.500000X1.500000X-1.500000X1.500000X1.500000X-1.500000X1.500000X0*%
%TD*%
%TA.AperFunction,ComponentPad*%
%ADD23C,6.000000*%
%TD*%
%TA.AperFunction,ComponentPad*%
%ADD24C,7.500000*%
%TD*%
%TA.AperFunction,ComponentPad*%
%ADD25O,3.000000X1.500000*%
%TD*%
%TA.AperFunction,ViaPad*%
%ADD26C,0.600000*%
%TD*%
%ADD27C,0.100000*%
%ADD28C,0.150000*%
%TA.AperFunction,SMDPad,CuDef*%
%ADD29RoundRect,0.250000X-0.450000X0.262500X-0.450000X-0.262500X0.450000X-0.262500X0.450000X0.262500X0*%
%TD*%
%TA.AperFunction,SMDPad,CuDef*%
%ADD30RoundRect,0.243750X0.456250X-0.243750X0.456250X0.243750X-0.456250X0.243750X-0.456250X-0.243750X0*%
%TD*%
%TA.AperFunction,SMDPad,CuDef*%
%ADD31RoundRect,0.250000X-0.250000X-0.475000X0.250000X-0.475000X0.250000X0.475000X-0.250000X0.475000X0*%
%TD*%
%TA.AperFunction,SMDPad,CuDef*%
%ADD32RoundRect,0.250000X0.250000X0.475000X-0.250000X0.475000X-0.250000X-0.475000X0.250000X-0.475000X0*%
%TD*%
%TA.AperFunction,Conductor*%
%ADD33C,0.900000*%
%TD*%
%TA.AperFunction,Conductor*%
%ADD34C,0.400000*%
%TD*%
%TA.AperFunction,Conductor*%
%ADD35C,0.250000*%
%TD*%
%TA.AperFunction,Conductor*%
%ADD36C,0.200000*%
%TD*%
%TA.AperFunction,Conductor*%
%ADD37C,1.000000*%
%TD*%
%TA.AperFunction,Conductor*%
%ADD38C,0.800000*%
%TD*%
%ADD39C,0.700000*%
%ADD40C,0.375000*%
%ADD41C,0.200000*%
%ADD42C,0.300000*%
%ADD43C,0.120000*%
%ADD44C,0.127000*%
%ADD45C,0.406400*%
%ADD46C,0.304800*%
%TA.AperFunction,Profile*%
%ADD47C,0.100000*%
%TD*%
G04 APERTURE END LIST*
D10*
%TO.C,R2*%
X173450000Y-74580000D03*
X173450000Y-76405000D03*
%TD*%
D11*
%TO.C,D2*%
X173450000Y-78212500D03*
X173450000Y-80087500D03*
%TD*%
D12*
%TO.C,C2*%
X168770000Y-57220000D03*
X170670000Y-57220000D03*
%TD*%
D13*
%TO.C,C1*%
X179630000Y-69870000D03*
X177730000Y-69870000D03*
%TD*%
D14*
%TO.P,U2,1,VI*%
%TO.N,7.4V1*%
X181500000Y-64430000D03*
D15*
%TO.P,U2,2,GND*%
%TO.N,GND*%
X178960000Y-64430000D03*
%TO.P,U2,3,VO*%
%TO.N,5V*%
X176420000Y-64430000D03*
%TD*%
D16*
%TO.P,U1,1,3V3*%
%TO.N,unconnected-(U1-3V3-Pad1)*%
X148347500Y-93125000D03*
D17*
%TO.P,U1,2,GND*%
%TO.N,GND*%
X148347500Y-90585000D03*
%TO.P,U1,3,D15*%
%TO.N,unconnected-(U1-D15-Pad3)*%
X148347500Y-88045000D03*
%TO.P,U1,4,D2*%
%TO.N,unconnected-(U1-D2-Pad4)*%
X148347500Y-85505000D03*
%TO.P,U1,5,D4*%
%TO.N,SERVO*%
X148347500Y-82965000D03*
%TO.P,U1,6,RX2*%
%TO.N,unconnected-(U1-RX2-Pad6)*%
X148347500Y-80425000D03*
%TO.P,U1,7,TX2*%
%TO.N,unconnected-(U1-TX2-Pad7)*%
X148347500Y-77885000D03*
%TO.P,U1,8,D5*%
%TO.N,unconnected-(U1-D5-Pad8)*%
X148347500Y-75345000D03*
%TO.P,U1,9,D18*%
%TO.N,unconnected-(U1-D18-Pad9)*%
X148347500Y-72805000D03*
%TO.P,U1,10,D19*%
%TO.N,unconnected-(U1-D19-Pad10)*%
X148347500Y-70265000D03*
%TO.P,U1,11,D21*%
%TO.N,SDA*%
X148347500Y-67725000D03*
%TO.P,U1,12,RX0*%
%TO.N,unconnected-(U1-RX0-Pad12)*%
X148347500Y-65185000D03*
%TO.P,U1,13,TX0*%
%TO.N,unconnected-(U1-TX0-Pad13)*%
X148347500Y-62645000D03*
%TO.P,U1,14,D22*%
%TO.N,SCL*%
X148347500Y-60105000D03*
%TO.P,U1,15,D23*%
%TO.N,unconnected-(U1-D23-Pad15)*%
X148347500Y-57565000D03*
%TO.P,U1,16,EN*%
%TO.N,unconnected-(U1-EN-Pad16)*%
X122947500Y-57565000D03*
%TO.P,U1,17,VP*%
%TO.N,unconnected-(U1-VP-Pad17)*%
X122947500Y-60105000D03*
%TO.P,U1,18,VN*%
%TO.N,unconnected-(U1-VN-Pad18)*%
X122947500Y-62645000D03*
%TO.P,U1,19,D34*%
%TO.N,unconnected-(U1-D34-Pad19)*%
X122947500Y-65185000D03*
%TO.P,U1,20,D35*%
%TO.N,unconnected-(U1-D35-Pad20)*%
X122947500Y-67725000D03*
%TO.P,U1,21,D32*%
%TO.N,unconnected-(U1-D32-Pad21)*%
X122947500Y-70265000D03*
%TO.P,U1,22,D33*%
%TO.N,unconnected-(U1-D33-Pad22)*%
X122947500Y-72805000D03*
%TO.P,U1,23,D25*%
%TO.N,unconnected-(U1-D25-Pad23)*%
X122947500Y-75345000D03*
%TO.P,U1,24,D26*%
%TO.N,unconnected-(U1-D26-Pad24)*%
X122947500Y-77885000D03*
%TO.P,U1,25,D27*%
%TO.N,unconnected-(U1-D27-Pad25)*%
X122947500Y-80425000D03*
%TO.P,U1,26,D14*%
%TO.N,unconnected-(U1-D14-Pad26)*%
X122947500Y-82965000D03*
%TO.P,U1,27,D12*%
%TO.N,unconnected-(U1-D12-Pad27)*%
X122947500Y-85505000D03*
%TO.P,U1,28,D13*%
%TO.N,unconnected-(U1-D13-Pad28)*%
X122947500Y-88045000D03*
%TO.P,U1,29,GND*%
%TO.N,GND*%
X122947500Y-90585000D03*
%TO.P,U1,30,VIN*%
%TO.N,5V*%
X122947500Y-93125000D03*
%TD*%
D18*
%TO.P,J6,1,Pin_1*%
%TO.N,7.4Vin1*%
X177160000Y-89520000D03*
D19*
%TO.P,J6,2,Pin_2*%
%TO.N,SERVO*%
X177160000Y-90520000D03*
%TO.P,J6,3,Pin_3*%
%TO.N,GND*%
X177160000Y-91520000D03*
%TD*%
D20*
%TO.P,J2,1,Pin_1*%
%TO.N,7.4Vin1*%
X181370000Y-79660000D03*
D21*
%TO.P,J2,2,Pin_2*%
%TO.N,7.4V1*%
X181370000Y-74580000D03*
%TD*%
D22*
%TO.P,J1,1,Pin_1*%
%TO.N,GND*%
X162380000Y-101560000D03*
D23*
%TO.P,J1,2,Pin_2*%
%TO.N,7.4Vin1*%
X169580000Y-101560000D03*
%TD*%
D24*
%TO.P,H4,1,1*%
%TO.N,GND*%
X181692454Y-52120000D03*
%TD*%
%TO.P,H3,1,1*%
%TO.N,GND*%
X181340000Y-103640000D03*
%TD*%
%TO.P,H2,1,1*%
%TO.N,GND*%
X114070000Y-103400000D03*
%TD*%
%TO.P,H1,1,1*%
%TO.N,GND*%
X114070000Y-52120000D03*
%TD*%
D25*
%TO.P,ACC1,AD0,AD0*%
%TO.N,unconnected-(ACC1-PadAD0)*%
X156000000Y-80170000D03*
%TO.P,ACC1,GND,GND*%
%TO.N,GND*%
X156000000Y-67470000D03*
%TO.P,ACC1,INT,INT*%
%TO.N,unconnected-(ACC1-PadINT)*%
X156000000Y-82710000D03*
%TO.P,ACC1,SCL,SCL*%
%TO.N,SCL*%
X156000000Y-70010000D03*
%TO.P,ACC1,SDA,SDA*%
%TO.N,SDA*%
X156000000Y-72550000D03*
%TO.P,ACC1,VCC,VCC*%
%TO.N,5V*%
X156000000Y-64930000D03*
%TO.P,ACC1,XCL,XCL*%
%TO.N,unconnected-(ACC1-PadXCL)*%
X156000000Y-77630000D03*
%TO.P,ACC1,XDA,XDA*%
%TO.N,unconnected-(ACC1-PadXDA)*%
X156000000Y-75090000D03*
%TD*%
D26*
%TO.N,GND*%
X170690000Y-55020000D03*
X176080000Y-69820000D03*
X173460000Y-81997500D03*
%TD*%
%TA.AperFunction,Conductor*%
%TO.N,GND*%
G36*
X181675655Y-45597376D02*
G01*
X182124953Y-45615029D01*
X182134627Y-45615790D01*
X182578742Y-45668356D01*
X182588358Y-45669879D01*
X182691221Y-45690340D01*
X183026984Y-45757128D01*
X183036420Y-45759393D01*
X183466839Y-45880785D01*
X183476099Y-45883793D01*
X183895669Y-46038581D01*
X183904664Y-46042307D01*
X184310796Y-46229537D01*
X184319460Y-46233952D01*
X184709647Y-46452468D01*
X184717949Y-46457555D01*
X185089779Y-46706004D01*
X185097653Y-46711724D01*
X185448859Y-46988593D01*
X185456250Y-46994906D01*
X185784650Y-47298476D01*
X185791529Y-47305355D01*
X186095088Y-47633743D01*
X186101408Y-47641143D01*
X186332221Y-47933928D01*
X186378272Y-47992343D01*
X186383995Y-48000220D01*
X186632444Y-48372050D01*
X186637531Y-48380352D01*
X186856047Y-48770539D01*
X186860468Y-48779214D01*
X187047692Y-49185335D01*
X187051418Y-49194330D01*
X187206206Y-49613900D01*
X187209214Y-49623160D01*
X187330601Y-50053561D01*
X187332874Y-50063029D01*
X187420120Y-50501641D01*
X187421643Y-50511257D01*
X187474207Y-50955356D01*
X187474971Y-50965063D01*
X187492624Y-51414344D01*
X187492720Y-51419212D01*
X187492720Y-104371334D01*
X187492548Y-104373109D01*
X187492712Y-104421478D01*
X187492635Y-104426294D01*
X187476907Y-104869539D01*
X187476191Y-104879148D01*
X187426368Y-105317410D01*
X187424909Y-105326936D01*
X187341198Y-105760034D01*
X187339003Y-105769416D01*
X187221918Y-106194693D01*
X187219001Y-106203877D01*
X187069248Y-106618772D01*
X187065627Y-106627703D01*
X186884103Y-107029726D01*
X186879799Y-107038347D01*
X186667612Y-107425050D01*
X186662652Y-107433312D01*
X186421066Y-107802387D01*
X186415479Y-107810238D01*
X186145979Y-108159419D01*
X186139799Y-108166813D01*
X185843981Y-108494031D01*
X185837246Y-108500923D01*
X185516923Y-108804170D01*
X185509674Y-108810517D01*
X185166770Y-109087977D01*
X185159049Y-109093743D01*
X184795629Y-109343741D01*
X184787483Y-109348890D01*
X184405749Y-109569912D01*
X184397229Y-109574412D01*
X183999493Y-109765119D01*
X183990649Y-109768945D01*
X183579298Y-109928195D01*
X183570183Y-109931322D01*
X183147708Y-110058149D01*
X183138378Y-110060559D01*
X182707327Y-110154196D01*
X182697838Y-110155874D01*
X182260821Y-110215757D01*
X182251231Y-110216693D01*
X181837156Y-110240923D01*
X181810072Y-110242508D01*
X181802830Y-110242720D01*
X113680471Y-110242720D01*
X113675001Y-110242599D01*
X113225232Y-110222740D01*
X113215561Y-110221933D01*
X112770776Y-110167212D01*
X112761196Y-110165651D01*
X112322041Y-110076308D01*
X112312614Y-110074002D01*
X111881810Y-109950591D01*
X111872591Y-109947555D01*
X111452759Y-109790829D01*
X111443806Y-109787082D01*
X111037494Y-109597989D01*
X111028862Y-109593552D01*
X110986980Y-109569912D01*
X110947272Y-109547498D01*
X110638607Y-109373273D01*
X110630348Y-109368175D01*
X110258514Y-109118047D01*
X110250679Y-109112319D01*
X109899544Y-108833873D01*
X109892181Y-108827550D01*
X109563894Y-108522491D01*
X109557049Y-108515611D01*
X109253625Y-108185810D01*
X109247338Y-108178416D01*
X109183736Y-108097386D01*
X108970635Y-107825889D01*
X108964952Y-107818033D01*
X108936237Y-107774884D01*
X108716673Y-107444953D01*
X108711630Y-107436691D01*
X108493282Y-107045320D01*
X108488899Y-107036688D01*
X108301820Y-106629419D01*
X108298131Y-106620480D01*
X108143487Y-106199850D01*
X108140498Y-106190620D01*
X108095393Y-106030156D01*
X108019221Y-105759169D01*
X108016973Y-105749772D01*
X107929813Y-105310168D01*
X107928304Y-105300609D01*
X107875791Y-104855515D01*
X107875035Y-104845880D01*
X107857374Y-104394968D01*
X107857280Y-104390126D01*
X107857280Y-103400000D01*
X109815181Y-103400000D01*
X109834447Y-103804450D01*
X109892071Y-104205231D01*
X109987531Y-104598722D01*
X109987534Y-104598733D01*
X110119956Y-104981340D01*
X110119966Y-104981365D01*
X110288168Y-105349675D01*
X110490621Y-105700335D01*
X110490627Y-105700343D01*
X110725485Y-106030154D01*
X110892985Y-106223460D01*
X112383098Y-104733347D01*
X112450076Y-104820635D01*
X112649365Y-105019924D01*
X112736650Y-105086900D01*
X111244928Y-106578622D01*
X111283676Y-106615568D01*
X111283695Y-106615585D01*
X111601968Y-106865877D01*
X111942594Y-107084782D01*
X112302485Y-107270319D01*
X112678383Y-107420806D01*
X112678395Y-107420810D01*
X113066882Y-107534880D01*
X113066899Y-107534884D01*
X113464460Y-107611508D01*
X113464472Y-107611510D01*
X113867554Y-107650000D01*
X114272446Y-107650000D01*
X114675527Y-107611510D01*
X114675539Y-107611508D01*
X115073100Y-107534884D01*
X115073117Y-107534880D01*
X115461604Y-107420810D01*
X115461616Y-107420806D01*
X115837507Y-107270322D01*
X115837511Y-107270320D01*
X116197406Y-107084782D01*
X116538031Y-106865877D01*
X116856314Y-106615578D01*
X116895069Y-106578622D01*
X115403348Y-105086901D01*
X115490635Y-105019924D01*
X115689924Y-104820635D01*
X115756901Y-104733348D01*
X117247012Y-106223459D01*
X117414512Y-106030156D01*
X117414523Y-106030143D01*
X117649372Y-105700343D01*
X117649378Y-105700335D01*
X117851831Y-105349675D01*
X118020033Y-104981365D01*
X118020043Y-104981340D01*
X118152465Y-104598733D01*
X118152468Y-104598722D01*
X118247928Y-104205231D01*
X118305552Y-103804450D01*
X118324818Y-103400000D01*
X118305552Y-102995549D01*
X118247928Y-102594768D01*
X118152468Y-102201277D01*
X118152465Y-102201266D01*
X118020043Y-101818659D01*
X118020033Y-101818634D01*
X117851831Y-101450324D01*
X117649378Y-101099664D01*
X117649372Y-101099656D01*
X117557228Y-100970258D01*
X121667000Y-100970258D01*
X121667000Y-101199741D01*
X121691946Y-101389215D01*
X121696952Y-101427238D01*
X121696953Y-101427240D01*
X121756342Y-101648887D01*
X121844150Y-101860876D01*
X121844157Y-101860890D01*
X121881982Y-101926405D01*
X121924411Y-101999895D01*
X121958892Y-102059617D01*
X122098581Y-102241661D01*
X122098589Y-102241670D01*
X122260830Y-102403911D01*
X122260838Y-102403918D01*
X122442882Y-102543607D01*
X122442885Y-102543608D01*
X122442888Y-102543611D01*
X122641612Y-102658344D01*
X122641617Y-102658346D01*
X122641623Y-102658349D01*
X122732980Y-102696190D01*
X122853613Y-102746158D01*
X123075262Y-102805548D01*
X123302766Y-102835500D01*
X123302773Y-102835500D01*
X123532227Y-102835500D01*
X123532234Y-102835500D01*
X123759738Y-102805548D01*
X123981387Y-102746158D01*
X124193388Y-102658344D01*
X124392112Y-102543611D01*
X124574161Y-102403919D01*
X124574165Y-102403914D01*
X124574170Y-102403911D01*
X124736411Y-102241670D01*
X124736414Y-102241665D01*
X124736419Y-102241661D01*
X124876111Y-102059612D01*
X124990844Y-101860888D01*
X125078658Y-101648887D01*
X125138048Y-101427238D01*
X125168000Y-101199734D01*
X125168000Y-100970266D01*
X125167999Y-100970258D01*
X146177000Y-100970258D01*
X146177000Y-101199741D01*
X146201946Y-101389215D01*
X146206952Y-101427238D01*
X146206953Y-101427240D01*
X146266342Y-101648887D01*
X146354150Y-101860876D01*
X146354157Y-101860890D01*
X146391982Y-101926405D01*
X146434411Y-101999895D01*
X146468892Y-102059617D01*
X146608581Y-102241661D01*
X146608589Y-102241670D01*
X146770830Y-102403911D01*
X146770838Y-102403918D01*
X146952882Y-102543607D01*
X146952885Y-102543608D01*
X146952888Y-102543611D01*
X147151612Y-102658344D01*
X147151617Y-102658346D01*
X147151623Y-102658349D01*
X147242980Y-102696190D01*
X147363613Y-102746158D01*
X147585262Y-102805548D01*
X147812766Y-102835500D01*
X147812773Y-102835500D01*
X148042227Y-102835500D01*
X148042234Y-102835500D01*
X148269738Y-102805548D01*
X148491387Y-102746158D01*
X148703388Y-102658344D01*
X148902112Y-102543611D01*
X149084161Y-102403919D01*
X149084165Y-102403914D01*
X149084170Y-102403911D01*
X149246411Y-102241670D01*
X149246414Y-102241665D01*
X149246419Y-102241661D01*
X149386111Y-102059612D01*
X149500844Y-101860888D01*
X149588658Y-101648887D01*
X149648048Y-101427238D01*
X149678000Y-101199734D01*
X149678000Y-100970266D01*
X149648048Y-100742762D01*
X149588658Y-100521113D01*
X149500844Y-100309112D01*
X149386111Y-100110388D01*
X149386108Y-100110385D01*
X149386107Y-100110382D01*
X149292631Y-99988563D01*
X158880000Y-99988563D01*
X158880000Y-101310000D01*
X160143498Y-101310000D01*
X160130000Y-101412527D01*
X160130000Y-101707473D01*
X160143498Y-101810000D01*
X158880000Y-101810000D01*
X158880000Y-103131436D01*
X158895300Y-103345362D01*
X158956109Y-103624895D01*
X159056091Y-103892958D01*
X159193191Y-104144038D01*
X159193192Y-104144039D01*
X159364639Y-104373065D01*
X159364649Y-104373077D01*
X159566922Y-104575350D01*
X159566934Y-104575360D01*
X159795960Y-104746807D01*
X159795961Y-104746808D01*
X160047042Y-104883908D01*
X160047041Y-104883908D01*
X160315104Y-104983890D01*
X160594637Y-105044699D01*
X160808563Y-105059999D01*
X160808566Y-105060000D01*
X162130000Y-105060000D01*
X162130000Y-103796502D01*
X162232527Y-103810000D01*
X162527473Y-103810000D01*
X162630000Y-103796502D01*
X162630000Y-105060000D01*
X163951434Y-105060000D01*
X163951436Y-105059999D01*
X164165362Y-105044699D01*
X164444895Y-104983890D01*
X164712958Y-104883908D01*
X164964038Y-104746808D01*
X164964039Y-104746807D01*
X165193065Y-104575360D01*
X165193077Y-104575350D01*
X165395350Y-104373077D01*
X165395360Y-104373065D01*
X165566807Y-104144039D01*
X165566808Y-104144038D01*
X165703908Y-103892958D01*
X165803890Y-103624895D01*
X165864699Y-103345362D01*
X165879999Y-103131436D01*
X165880000Y-103131434D01*
X165880000Y-102151472D01*
X165899685Y-102084433D01*
X165952489Y-102038678D01*
X166021647Y-102028734D01*
X166085203Y-102057759D01*
X166122977Y-102116537D01*
X166126473Y-102132074D01*
X166151294Y-102288788D01*
X166151294Y-102288790D01*
X166246260Y-102643206D01*
X166377746Y-102985739D01*
X166544320Y-103312656D01*
X166744147Y-103620364D01*
X166893217Y-103804450D01*
X166975051Y-103905506D01*
X167234494Y-104164949D01*
X167234498Y-104164952D01*
X167519635Y-104395852D01*
X167823158Y-104592961D01*
X167827348Y-104595682D01*
X168154264Y-104762255D01*
X168496801Y-104893742D01*
X168851206Y-104988705D01*
X169213596Y-105046102D01*
X169559734Y-105064241D01*
X169579999Y-105065304D01*
X169580000Y-105065304D01*
X169580001Y-105065304D01*
X169599203Y-105064297D01*
X169946404Y-105046102D01*
X170308794Y-104988705D01*
X170663199Y-104893742D01*
X171005736Y-104762255D01*
X171332652Y-104595682D01*
X171640366Y-104395851D01*
X171925506Y-104164949D01*
X172184949Y-103905506D01*
X172399952Y-103640000D01*
X177085181Y-103640000D01*
X177104447Y-104044450D01*
X177162071Y-104445231D01*
X177257531Y-104838722D01*
X177257534Y-104838733D01*
X177389956Y-105221340D01*
X177389966Y-105221365D01*
X177558168Y-105589675D01*
X177760621Y-105940335D01*
X177760627Y-105940343D01*
X177995485Y-106270154D01*
X178162985Y-106463460D01*
X179653098Y-104973347D01*
X179720076Y-105060635D01*
X179919365Y-105259924D01*
X180006650Y-105326900D01*
X178514928Y-106818622D01*
X178553676Y-106855568D01*
X178553695Y-106855585D01*
X178871968Y-107105877D01*
X179212594Y-107324782D01*
X179572485Y-107510319D01*
X179948383Y-107660806D01*
X179948395Y-107660810D01*
X180336882Y-107774880D01*
X180336899Y-107774884D01*
X180734460Y-107851508D01*
X180734472Y-107851510D01*
X181137554Y-107890000D01*
X181542446Y-107890000D01*
X181945527Y-107851510D01*
X181945539Y-107851508D01*
X182343100Y-107774884D01*
X182343117Y-107774880D01*
X182731604Y-107660810D01*
X182731616Y-107660806D01*
X183107507Y-107510322D01*
X183107511Y-107510320D01*
X183467406Y-107324782D01*
X183808031Y-107105877D01*
X184126314Y-106855578D01*
X184165069Y-106818622D01*
X182673348Y-105326901D01*
X182760635Y-105259924D01*
X182959924Y-105060635D01*
X183026901Y-104973348D01*
X184517012Y-106463459D01*
X184684512Y-106270156D01*
X184684523Y-106270143D01*
X184919372Y-105940343D01*
X184919378Y-105940335D01*
X185121831Y-105589675D01*
X185290033Y-105221365D01*
X185290043Y-105221340D01*
X185422465Y-104838733D01*
X185422468Y-104838722D01*
X185517928Y-104445231D01*
X185575552Y-104044450D01*
X185594818Y-103640000D01*
X185575552Y-103235549D01*
X185517928Y-102834768D01*
X185422468Y-102441277D01*
X185422465Y-102441266D01*
X185290043Y-102058659D01*
X185290033Y-102058634D01*
X185121831Y-101690324D01*
X184919378Y-101339664D01*
X184919372Y-101339656D01*
X184684523Y-101009856D01*
X184684512Y-101009843D01*
X184517013Y-100816538D01*
X183026900Y-102306650D01*
X182959924Y-102219365D01*
X182760635Y-102020076D01*
X182673348Y-101953098D01*
X184165070Y-100461376D01*
X184126323Y-100424431D01*
X184126304Y-100424414D01*
X183808031Y-100174122D01*
X183467406Y-99955217D01*
X183107511Y-99769679D01*
X183107507Y-99769677D01*
X182731616Y-99619193D01*
X182731604Y-99619189D01*
X182343117Y-99505119D01*
X182343100Y-99505115D01*
X181945539Y-99428491D01*
X181945527Y-99428489D01*
X181542446Y-99390000D01*
X181137554Y-99390000D01*
X180734472Y-99428489D01*
X180734460Y-99428491D01*
X180336899Y-99505115D01*
X180336882Y-99505119D01*
X179948395Y-99619189D01*
X179948383Y-99619193D01*
X179572485Y-99769680D01*
X179212594Y-99955217D01*
X178871968Y-100174122D01*
X178553685Y-100424421D01*
X178553673Y-100424432D01*
X178514929Y-100461375D01*
X178514929Y-100461376D01*
X180006651Y-101953098D01*
X179919365Y-102020076D01*
X179720076Y-102219365D01*
X179653098Y-102306651D01*
X178162986Y-100816539D01*
X177995485Y-101009845D01*
X177760627Y-101339656D01*
X177760621Y-101339664D01*
X177558168Y-101690324D01*
X177389966Y-102058634D01*
X177389956Y-102058659D01*
X177257534Y-102441266D01*
X177257531Y-102441277D01*
X177162071Y-102834768D01*
X177104447Y-103235549D01*
X177085181Y-103640000D01*
X172399952Y-103640000D01*
X172415851Y-103620366D01*
X172615682Y-103312652D01*
X172782255Y-102985736D01*
X172913742Y-102643199D01*
X173008705Y-102288794D01*
X173066102Y-101926404D01*
X173085304Y-101560000D01*
X173066102Y-101193596D01*
X173008705Y-100831206D01*
X172913742Y-100476801D01*
X172782255Y-100134264D01*
X172770089Y-100110388D01*
X172769308Y-100108855D01*
X172615682Y-99807348D01*
X172615679Y-99807343D01*
X172415852Y-99499635D01*
X172184952Y-99214498D01*
X172184949Y-99214494D01*
X171925506Y-98955051D01*
X171893010Y-98928736D01*
X171640364Y-98724147D01*
X171332656Y-98524320D01*
X171005739Y-98357746D01*
X170663206Y-98226260D01*
X170663199Y-98226258D01*
X170308794Y-98131295D01*
X170308790Y-98131294D01*
X170308789Y-98131294D01*
X169946405Y-98073898D01*
X169580001Y-98054696D01*
X169579999Y-98054696D01*
X169213594Y-98073898D01*
X168851211Y-98131294D01*
X168851209Y-98131294D01*
X168496793Y-98226260D01*
X168154260Y-98357746D01*
X167827343Y-98524320D01*
X167519635Y-98724147D01*
X167234498Y-98955047D01*
X167234490Y-98955054D01*
X166975054Y-99214490D01*
X166975047Y-99214498D01*
X166744147Y-99499635D01*
X166544320Y-99807343D01*
X166377746Y-100134260D01*
X166246260Y-100476793D01*
X166151294Y-100831209D01*
X166151294Y-100831211D01*
X166126473Y-100987925D01*
X166096544Y-101051060D01*
X166037232Y-101087991D01*
X165967370Y-101086993D01*
X165909137Y-101048383D01*
X165881023Y-100984419D01*
X165880000Y-100968527D01*
X165880000Y-99988566D01*
X165879999Y-99988563D01*
X165864699Y-99774637D01*
X165803890Y-99495104D01*
X165703908Y-99227041D01*
X165566808Y-98975961D01*
X165566807Y-98975960D01*
X165395360Y-98746934D01*
X165395350Y-98746922D01*
X165193077Y-98544649D01*
X165193065Y-98544639D01*
X164964039Y-98373192D01*
X164964038Y-98373191D01*
X164712957Y-98236091D01*
X164712958Y-98236091D01*
X164444895Y-98136109D01*
X164165362Y-98075300D01*
X163951436Y-98060000D01*
X162630000Y-98060000D01*
X162630000Y-99323497D01*
X162527473Y-99310000D01*
X162232527Y-99310000D01*
X162130000Y-99323497D01*
X162130000Y-98060000D01*
X160808563Y-98060000D01*
X160594637Y-98075300D01*
X160315104Y-98136109D01*
X160047041Y-98236091D01*
X159795961Y-98373191D01*
X159795960Y-98373192D01*
X159566934Y-98544639D01*
X159566922Y-98544649D01*
X159364649Y-98746922D01*
X159364639Y-98746934D01*
X159193192Y-98975960D01*
X159193191Y-98975961D01*
X159056091Y-99227041D01*
X158956109Y-99495104D01*
X158895300Y-99774637D01*
X158880000Y-99988563D01*
X149292631Y-99988563D01*
X149246418Y-99928338D01*
X149246411Y-99928330D01*
X149084170Y-99766089D01*
X149084161Y-99766081D01*
X148902117Y-99626392D01*
X148703390Y-99511657D01*
X148703376Y-99511650D01*
X148491387Y-99423842D01*
X148269738Y-99364452D01*
X148231715Y-99359446D01*
X148042241Y-99334500D01*
X148042234Y-99334500D01*
X147812766Y-99334500D01*
X147812758Y-99334500D01*
X147596215Y-99363009D01*
X147585262Y-99364452D01*
X147491576Y-99389554D01*
X147363612Y-99423842D01*
X147151623Y-99511650D01*
X147151609Y-99511657D01*
X146952882Y-99626392D01*
X146770838Y-99766081D01*
X146608581Y-99928338D01*
X146468892Y-100110382D01*
X146354157Y-100309109D01*
X146354150Y-100309123D01*
X146266342Y-100521112D01*
X146206953Y-100742759D01*
X146206951Y-100742770D01*
X146177000Y-100970258D01*
X125167999Y-100970258D01*
X125138048Y-100742762D01*
X125078658Y-100521113D01*
X124990844Y-100309112D01*
X124876111Y-100110388D01*
X124876108Y-100110385D01*
X124876107Y-100110382D01*
X124736418Y-99928338D01*
X124736411Y-99928330D01*
X124574170Y-99766089D01*
X124574161Y-99766081D01*
X124392117Y-99626392D01*
X124193390Y-99511657D01*
X124193376Y-99511650D01*
X123981387Y-99423842D01*
X123759738Y-99364452D01*
X123721715Y-99359446D01*
X123532241Y-99334500D01*
X123532234Y-99334500D01*
X123302766Y-99334500D01*
X123302758Y-99334500D01*
X123086215Y-99363009D01*
X123075262Y-99364452D01*
X122981576Y-99389554D01*
X122853612Y-99423842D01*
X122641623Y-99511650D01*
X122641609Y-99511657D01*
X122442882Y-99626392D01*
X122260838Y-99766081D01*
X122098581Y-99928338D01*
X121958892Y-100110382D01*
X121844157Y-100309109D01*
X121844150Y-100309123D01*
X121756342Y-100521112D01*
X121696953Y-100742759D01*
X121696951Y-100742770D01*
X121667000Y-100970258D01*
X117557228Y-100970258D01*
X117414523Y-100769856D01*
X117414512Y-100769843D01*
X117247013Y-100576538D01*
X115756900Y-102066650D01*
X115689924Y-101979365D01*
X115490635Y-101780076D01*
X115403348Y-101713098D01*
X116895070Y-100221376D01*
X116856323Y-100184431D01*
X116856304Y-100184414D01*
X116538031Y-99934122D01*
X116197406Y-99715217D01*
X115837511Y-99529679D01*
X115837507Y-99529677D01*
X115461616Y-99379193D01*
X115461604Y-99379189D01*
X115073117Y-99265119D01*
X115073100Y-99265115D01*
X114675539Y-99188491D01*
X114675527Y-99188489D01*
X114272446Y-99150000D01*
X113867554Y-99150000D01*
X113464472Y-99188489D01*
X113464460Y-99188491D01*
X113066899Y-99265115D01*
X113066882Y-99265119D01*
X112678395Y-99379189D01*
X112678383Y-99379193D01*
X112302485Y-99529680D01*
X111942594Y-99715217D01*
X111601968Y-99934122D01*
X111283685Y-100184421D01*
X111283673Y-100184432D01*
X111244929Y-100221375D01*
X111244929Y-100221376D01*
X112736651Y-101713098D01*
X112649365Y-101780076D01*
X112450076Y-101979365D01*
X112383098Y-102066651D01*
X110892986Y-100576539D01*
X110725485Y-100769845D01*
X110490627Y-101099656D01*
X110490621Y-101099664D01*
X110288168Y-101450324D01*
X110119966Y-101818634D01*
X110119956Y-101818659D01*
X109987534Y-102201266D01*
X109987531Y-102201277D01*
X109892071Y-102594768D01*
X109834447Y-102995549D01*
X109815181Y-103400000D01*
X107857280Y-103400000D01*
X107857280Y-57564994D01*
X121441857Y-57564994D01*
X121441857Y-57565005D01*
X121462390Y-57812812D01*
X121462392Y-57812824D01*
X121523436Y-58053881D01*
X121623326Y-58281606D01*
X121759333Y-58489782D01*
X121759336Y-58489785D01*
X121927756Y-58672738D01*
X122010508Y-58737147D01*
X122051321Y-58793857D01*
X122054996Y-58863630D01*
X122020364Y-58924313D01*
X122010514Y-58932848D01*
X121951900Y-58978469D01*
X121927757Y-58997261D01*
X121759333Y-59180217D01*
X121623326Y-59388393D01*
X121523436Y-59616118D01*
X121462392Y-59857175D01*
X121462390Y-59857187D01*
X121441857Y-60104994D01*
X121441857Y-60105005D01*
X121462390Y-60352812D01*
X121462392Y-60352824D01*
X121523436Y-60593881D01*
X121623326Y-60821606D01*
X121759333Y-61029782D01*
X121759336Y-61029785D01*
X121927756Y-61212738D01*
X122010508Y-61277147D01*
X122051321Y-61333857D01*
X122054996Y-61403630D01*
X122020364Y-61464313D01*
X122010514Y-61472848D01*
X121951900Y-61518469D01*
X121927757Y-61537261D01*
X121759333Y-61720217D01*
X121623326Y-61928393D01*
X121523436Y-62156118D01*
X121462392Y-62397175D01*
X121462390Y-62397187D01*
X121441857Y-62644994D01*
X121441857Y-62645005D01*
X121462390Y-62892812D01*
X121462392Y-62892824D01*
X121523436Y-63133881D01*
X121623326Y-63361606D01*
X121759333Y-63569782D01*
X121759336Y-63569785D01*
X121927756Y-63752738D01*
X122010508Y-63817147D01*
X122051321Y-63873857D01*
X122054996Y-63943630D01*
X122020364Y-64004313D01*
X122010514Y-64012848D01*
X121972736Y-64042253D01*
X121927757Y-64077261D01*
X121759333Y-64260217D01*
X121623326Y-64468393D01*
X121523436Y-64696118D01*
X121462392Y-64937175D01*
X121462390Y-64937187D01*
X121441857Y-65184994D01*
X121441857Y-65185005D01*
X121462390Y-65432812D01*
X121462392Y-65432824D01*
X121523436Y-65673881D01*
X121623326Y-65901606D01*
X121759333Y-66109782D01*
X121759336Y-66109785D01*
X121927756Y-66292738D01*
X122010508Y-66357147D01*
X122051321Y-66413857D01*
X122054996Y-66483630D01*
X122020364Y-66544313D01*
X122010514Y-66552848D01*
X121951900Y-66598469D01*
X121927757Y-66617261D01*
X121759333Y-66800217D01*
X121623326Y-67008393D01*
X121523436Y-67236118D01*
X121462392Y-67477175D01*
X121462390Y-67477187D01*
X121441857Y-67724994D01*
X121441857Y-67725005D01*
X121462390Y-67972812D01*
X121462392Y-67972824D01*
X121523436Y-68213881D01*
X121623326Y-68441606D01*
X121759333Y-68649782D01*
X121759336Y-68649785D01*
X121927756Y-68832738D01*
X122010508Y-68897147D01*
X122051321Y-68953857D01*
X122054996Y-69023630D01*
X122020364Y-69084313D01*
X122010514Y-69092848D01*
X121951900Y-69138469D01*
X121927757Y-69157261D01*
X121759333Y-69340217D01*
X121623326Y-69548393D01*
X121523436Y-69776118D01*
X121462392Y-70017175D01*
X121462390Y-70017187D01*
X121441857Y-70264994D01*
X121441857Y-70265005D01*
X121462390Y-70512812D01*
X121462392Y-70512824D01*
X121523436Y-70753881D01*
X121623326Y-70981606D01*
X121759333Y-71189782D01*
X121759336Y-71189785D01*
X121927756Y-71372738D01*
X122010508Y-71437147D01*
X122051321Y-71493857D01*
X122054996Y-71563630D01*
X122020364Y-71624313D01*
X122010514Y-71632848D01*
X121951900Y-71678469D01*
X121927757Y-71697261D01*
X121759333Y-71880217D01*
X121623326Y-72088393D01*
X121523436Y-72316118D01*
X121462392Y-72557175D01*
X121462390Y-72557187D01*
X121441857Y-72804994D01*
X121441857Y-72805005D01*
X121462390Y-73052812D01*
X121462392Y-73052824D01*
X121523436Y-73293881D01*
X121623326Y-73521606D01*
X121759333Y-73729782D01*
X121759336Y-73729785D01*
X121927756Y-73912738D01*
X122010508Y-73977147D01*
X122051321Y-74033857D01*
X122054996Y-74103630D01*
X122020364Y-74164313D01*
X122010514Y-74172848D01*
X121951900Y-74218469D01*
X121927757Y-74237261D01*
X121759333Y-74420217D01*
X121623326Y-74628393D01*
X121523436Y-74856118D01*
X121462392Y-75097175D01*
X121462390Y-75097187D01*
X121441857Y-75344994D01*
X121441857Y-75345005D01*
X121462390Y-75592812D01*
X121462392Y-75592824D01*
X121523436Y-75833881D01*
X121623326Y-76061606D01*
X121759333Y-76269782D01*
X121759336Y-76269785D01*
X121927756Y-76452738D01*
X122010508Y-76517147D01*
X122051321Y-76573857D01*
X122054996Y-76643630D01*
X122020364Y-76704313D01*
X122010514Y-76712848D01*
X121951900Y-76758469D01*
X121927757Y-76777261D01*
X121759333Y-76960217D01*
X121623326Y-77168393D01*
X121523436Y-77396118D01*
X121462392Y-77637175D01*
X121462390Y-77637187D01*
X121441857Y-77884994D01*
X121441857Y-77885005D01*
X121462390Y-78132812D01*
X121462392Y-78132824D01*
X121523436Y-78373881D01*
X121623326Y-78601606D01*
X121759333Y-78809782D01*
X121759336Y-78809785D01*
X121927756Y-78992738D01*
X122010508Y-79057147D01*
X122051321Y-79113857D01*
X122054996Y-79183630D01*
X122020364Y-79244313D01*
X122010514Y-79252848D01*
X121951900Y-79298469D01*
X121927757Y-79317261D01*
X121759333Y-79500217D01*
X121623326Y-79708393D01*
X121523436Y-79936118D01*
X121462392Y-80177175D01*
X121462390Y-80177187D01*
X121441857Y-80424994D01*
X121441857Y-80425005D01*
X121462390Y-80672812D01*
X121462392Y-80672824D01*
X121523436Y-80913881D01*
X121623326Y-81141606D01*
X121759333Y-81349782D01*
X121759336Y-81349785D01*
X121927756Y-81532738D01*
X122010508Y-81597147D01*
X122051321Y-81653857D01*
X122054996Y-81723630D01*
X122020364Y-81784313D01*
X122010514Y-81792848D01*
X121951900Y-81838469D01*
X121927757Y-81857261D01*
X121759333Y-82040217D01*
X121623326Y-82248393D01*
X121523436Y-82476118D01*
X121462392Y-82717175D01*
X121462390Y-82717187D01*
X121441857Y-82964994D01*
X121441857Y-82965005D01*
X121462390Y-83212812D01*
X121462392Y-83212824D01*
X121523436Y-83453881D01*
X121623326Y-83681606D01*
X121759333Y-83889782D01*
X121759336Y-83889785D01*
X121927756Y-84072738D01*
X122010508Y-84137147D01*
X122051321Y-84193857D01*
X122054996Y-84263630D01*
X122020364Y-84324313D01*
X122010514Y-84332848D01*
X121951900Y-84378469D01*
X121927757Y-84397261D01*
X121759333Y-84580217D01*
X121623326Y-84788393D01*
X121523436Y-85016118D01*
X121462392Y-85257175D01*
X121462390Y-85257187D01*
X121441857Y-85504994D01*
X121441857Y-85505005D01*
X121462390Y-85752812D01*
X121462392Y-85752824D01*
X121523436Y-85993881D01*
X121623326Y-86221606D01*
X121759333Y-86429782D01*
X121759336Y-86429785D01*
X121927756Y-86612738D01*
X122010508Y-86677147D01*
X122051321Y-86733857D01*
X122054996Y-86803630D01*
X122020364Y-86864313D01*
X122010514Y-86872848D01*
X121951900Y-86918469D01*
X121927757Y-86937261D01*
X121759333Y-87120217D01*
X121623326Y-87328393D01*
X121523436Y-87556118D01*
X121462392Y-87797175D01*
X121462390Y-87797187D01*
X121441857Y-88044994D01*
X121441857Y-88045005D01*
X121462390Y-88292812D01*
X121462392Y-88292824D01*
X121523436Y-88533881D01*
X121623326Y-88761606D01*
X121759333Y-88969782D01*
X121775659Y-88987517D01*
X121927756Y-89152738D01*
X121927759Y-89152740D01*
X121927762Y-89152743D01*
X122031243Y-89233286D01*
X122072056Y-89289996D01*
X122078843Y-89338823D01*
X122077441Y-89361389D01*
X122809924Y-90093871D01*
X122750647Y-90109755D01*
X122634353Y-90176898D01*
X122539398Y-90271853D01*
X122472255Y-90388147D01*
X122456372Y-90447424D01*
X121724064Y-89715116D01*
X121623767Y-89868632D01*
X121523912Y-90096282D01*
X121462887Y-90337261D01*
X121462885Y-90337270D01*
X121442359Y-90584994D01*
X121442359Y-90585005D01*
X121462885Y-90832729D01*
X121462887Y-90832738D01*
X121523912Y-91073717D01*
X121623766Y-91301364D01*
X121724064Y-91454882D01*
X122456371Y-90722575D01*
X122472255Y-90781853D01*
X122539398Y-90898147D01*
X122634353Y-90993102D01*
X122750647Y-91060245D01*
X122809924Y-91076128D01*
X122077442Y-91808609D01*
X122078843Y-91831177D01*
X122063350Y-91899307D01*
X122031244Y-91936713D01*
X121927758Y-92017260D01*
X121759333Y-92200217D01*
X121623326Y-92408393D01*
X121523436Y-92636118D01*
X121462392Y-92877175D01*
X121462390Y-92877187D01*
X121441857Y-93124994D01*
X121441857Y-93125005D01*
X121462390Y-93372812D01*
X121462392Y-93372824D01*
X121523436Y-93613881D01*
X121623326Y-93841606D01*
X121759333Y-94049782D01*
X121759336Y-94049785D01*
X121927756Y-94232738D01*
X122123991Y-94385474D01*
X122342690Y-94503828D01*
X122577886Y-94584571D01*
X122823165Y-94625500D01*
X123071835Y-94625500D01*
X123317114Y-94584571D01*
X123552310Y-94503828D01*
X123771009Y-94385474D01*
X123967244Y-94232738D01*
X124135664Y-94049785D01*
X124271673Y-93841607D01*
X124371563Y-93613881D01*
X124432608Y-93372821D01*
X124453143Y-93125000D01*
X124432608Y-92877179D01*
X124371563Y-92636119D01*
X124271673Y-92408393D01*
X124142836Y-92211192D01*
X124135666Y-92200217D01*
X124114057Y-92176744D01*
X123967244Y-92017262D01*
X123863753Y-91936712D01*
X123822942Y-91880003D01*
X123816155Y-91831176D01*
X123817556Y-91808609D01*
X123085075Y-91076128D01*
X123144353Y-91060245D01*
X123260647Y-90993102D01*
X123355602Y-90898147D01*
X123422745Y-90781853D01*
X123438627Y-90722575D01*
X124170934Y-91454882D01*
X124271231Y-91301369D01*
X124371087Y-91073717D01*
X124432112Y-90832738D01*
X124432114Y-90832729D01*
X124452641Y-90585005D01*
X124452641Y-90584994D01*
X124432114Y-90337270D01*
X124432112Y-90337261D01*
X124371087Y-90096282D01*
X124271231Y-89868630D01*
X124170934Y-89715116D01*
X123438627Y-90447423D01*
X123422745Y-90388147D01*
X123355602Y-90271853D01*
X123260647Y-90176898D01*
X123144353Y-90109755D01*
X123085075Y-90093872D01*
X123817556Y-89361390D01*
X123816155Y-89338825D01*
X123831647Y-89270694D01*
X123863750Y-89233290D01*
X123967244Y-89152738D01*
X124135664Y-88969785D01*
X124271673Y-88761607D01*
X124371563Y-88533881D01*
X124432608Y-88292821D01*
X124453143Y-88045000D01*
X124432608Y-87797179D01*
X124371563Y-87556119D01*
X124271673Y-87328393D01*
X124135666Y-87120217D01*
X124114057Y-87096744D01*
X123967244Y-86937262D01*
X123884491Y-86872852D01*
X123843679Y-86816143D01*
X123840004Y-86746370D01*
X123874636Y-86685687D01*
X123884485Y-86677151D01*
X123967244Y-86612738D01*
X124135664Y-86429785D01*
X124271673Y-86221607D01*
X124371563Y-85993881D01*
X124432608Y-85752821D01*
X124453143Y-85505000D01*
X124432608Y-85257179D01*
X124371563Y-85016119D01*
X124271673Y-84788393D01*
X124135666Y-84580217D01*
X124114057Y-84556744D01*
X123967244Y-84397262D01*
X123884491Y-84332852D01*
X123843679Y-84276143D01*
X123840004Y-84206370D01*
X123874636Y-84145687D01*
X123884485Y-84137151D01*
X123967244Y-84072738D01*
X124135664Y-83889785D01*
X124271673Y-83681607D01*
X124371563Y-83453881D01*
X124432608Y-83212821D01*
X124453143Y-82965000D01*
X124440168Y-82808417D01*
X124432609Y-82717187D01*
X124432607Y-82717175D01*
X124371563Y-82476118D01*
X124271673Y-82248393D01*
X124135666Y-82040217D01*
X124114057Y-82016744D01*
X123967244Y-81857262D01*
X123884491Y-81792852D01*
X123843679Y-81736143D01*
X123840004Y-81666370D01*
X123874636Y-81605687D01*
X123884485Y-81597151D01*
X123967244Y-81532738D01*
X124135664Y-81349785D01*
X124271673Y-81141607D01*
X124371563Y-80913881D01*
X124432608Y-80672821D01*
X124453143Y-80425000D01*
X124440168Y-80268417D01*
X124432609Y-80177187D01*
X124432607Y-80177175D01*
X124371563Y-79936118D01*
X124271673Y-79708393D01*
X124135666Y-79500217D01*
X124114057Y-79476744D01*
X123967244Y-79317262D01*
X123884491Y-79252852D01*
X123843679Y-79196143D01*
X123840004Y-79126370D01*
X123874636Y-79065687D01*
X123884485Y-79057151D01*
X123967244Y-78992738D01*
X124135664Y-78809785D01*
X124271673Y-78601607D01*
X124371563Y-78373881D01*
X124432608Y-78132821D01*
X124439262Y-78052517D01*
X124453143Y-77885005D01*
X124453143Y-77884994D01*
X124432609Y-77637187D01*
X124432607Y-77637175D01*
X124371563Y-77396118D01*
X124271673Y-77168393D01*
X124135666Y-76960217D01*
X124114057Y-76936744D01*
X123967244Y-76777262D01*
X123884491Y-76712852D01*
X123843679Y-76656143D01*
X123840004Y-76586370D01*
X123874636Y-76525687D01*
X123884485Y-76517151D01*
X123967244Y-76452738D01*
X124135664Y-76269785D01*
X124271673Y-76061607D01*
X124371563Y-75833881D01*
X124432608Y-75592821D01*
X124453143Y-75345000D01*
X124440168Y-75188417D01*
X124432609Y-75097187D01*
X124432607Y-75097175D01*
X124371563Y-74856118D01*
X124271673Y-74628393D01*
X124135666Y-74420217D01*
X124114057Y-74396744D01*
X123967244Y-74237262D01*
X123884491Y-74172852D01*
X123843679Y-74116143D01*
X123840004Y-74046370D01*
X123874636Y-73985687D01*
X123884485Y-73977151D01*
X123967244Y-73912738D01*
X124135664Y-73729785D01*
X124271673Y-73521607D01*
X124371563Y-73293881D01*
X124432608Y-73052821D01*
X124445870Y-72892774D01*
X124453143Y-72805005D01*
X124453143Y-72804994D01*
X124432609Y-72557187D01*
X124432607Y-72557175D01*
X124371563Y-72316118D01*
X124271673Y-72088393D01*
X124135666Y-71880217D01*
X124114057Y-71856744D01*
X123967244Y-71697262D01*
X123884491Y-71632852D01*
X123843679Y-71576143D01*
X123840004Y-71506370D01*
X123874636Y-71445687D01*
X123884485Y-71437151D01*
X123967244Y-71372738D01*
X124135664Y-71189785D01*
X124271673Y-70981607D01*
X124371563Y-70753881D01*
X124432608Y-70512821D01*
X124453143Y-70265000D01*
X124440168Y-70108417D01*
X124432609Y-70017187D01*
X124432607Y-70017175D01*
X124371563Y-69776118D01*
X124271673Y-69548393D01*
X124135666Y-69340217D01*
X124114057Y-69316744D01*
X123967244Y-69157262D01*
X123884491Y-69092852D01*
X123843679Y-69036143D01*
X123840004Y-68966370D01*
X123874636Y-68905687D01*
X123884485Y-68897151D01*
X123967244Y-68832738D01*
X124135664Y-68649785D01*
X124271673Y-68441607D01*
X124371563Y-68213881D01*
X124432608Y-67972821D01*
X124434513Y-67949837D01*
X124453143Y-67725005D01*
X124453143Y-67724994D01*
X124432609Y-67477187D01*
X124432607Y-67477175D01*
X124371563Y-67236118D01*
X124271673Y-67008393D01*
X124135666Y-66800217D01*
X124002608Y-66655678D01*
X123967244Y-66617262D01*
X123884491Y-66552852D01*
X123843679Y-66496143D01*
X123840004Y-66426370D01*
X123874636Y-66365687D01*
X123884485Y-66357151D01*
X123967244Y-66292738D01*
X124135664Y-66109785D01*
X124271673Y-65901607D01*
X124371563Y-65673881D01*
X124432608Y-65432821D01*
X124432609Y-65432812D01*
X124453143Y-65185005D01*
X124453143Y-65184994D01*
X124432609Y-64937187D01*
X124432607Y-64937175D01*
X124371563Y-64696118D01*
X124271673Y-64468393D01*
X124135666Y-64260217D01*
X124114057Y-64236744D01*
X123967244Y-64077262D01*
X123884491Y-64012852D01*
X123843679Y-63956143D01*
X123840004Y-63886370D01*
X123874636Y-63825687D01*
X123884485Y-63817151D01*
X123967244Y-63752738D01*
X124135664Y-63569785D01*
X124271673Y-63361607D01*
X124371563Y-63133881D01*
X124432608Y-62892821D01*
X124453143Y-62645000D01*
X124432608Y-62397179D01*
X124371563Y-62156119D01*
X124271673Y-61928393D01*
X124135666Y-61720217D01*
X124114057Y-61696744D01*
X123967244Y-61537262D01*
X123884491Y-61472852D01*
X123843679Y-61416143D01*
X123840004Y-61346370D01*
X123874636Y-61285687D01*
X123884485Y-61277151D01*
X123967244Y-61212738D01*
X124135664Y-61029785D01*
X124271673Y-60821607D01*
X124371563Y-60593881D01*
X124432608Y-60352821D01*
X124453143Y-60105000D01*
X124432608Y-59857179D01*
X124371563Y-59616119D01*
X124271673Y-59388393D01*
X124135666Y-59180217D01*
X124114057Y-59156744D01*
X123967244Y-58997262D01*
X123884491Y-58932852D01*
X123843679Y-58876143D01*
X123840004Y-58806370D01*
X123874636Y-58745687D01*
X123884485Y-58737151D01*
X123967244Y-58672738D01*
X124135664Y-58489785D01*
X124271673Y-58281607D01*
X124371563Y-58053881D01*
X124432608Y-57812821D01*
X124453143Y-57565000D01*
X124432608Y-57317179D01*
X124371563Y-57076119D01*
X124271673Y-56848393D01*
X124135666Y-56640217D01*
X124114057Y-56616744D01*
X123967244Y-56457262D01*
X123771009Y-56304526D01*
X123771007Y-56304525D01*
X123771006Y-56304524D01*
X123552311Y-56186172D01*
X123552302Y-56186169D01*
X123379312Y-56126781D01*
X123322297Y-56086395D01*
X123296166Y-56021596D01*
X123309218Y-55952956D01*
X123357306Y-55902268D01*
X123419575Y-55885500D01*
X123532227Y-55885500D01*
X123532234Y-55885500D01*
X123759738Y-55855548D01*
X123981387Y-55796158D01*
X124193388Y-55708344D01*
X124392112Y-55593611D01*
X124574161Y-55453919D01*
X124574165Y-55453914D01*
X124574170Y-55453911D01*
X124736411Y-55291670D01*
X124736414Y-55291665D01*
X124736419Y-55291661D01*
X124876111Y-55109612D01*
X124990844Y-54910888D01*
X125078658Y-54698887D01*
X125138048Y-54477238D01*
X125168000Y-54249734D01*
X125168000Y-54020266D01*
X125167999Y-54020258D01*
X146177000Y-54020258D01*
X146177000Y-54249741D01*
X146199460Y-54420335D01*
X146206952Y-54477238D01*
X146206953Y-54477240D01*
X146266342Y-54698887D01*
X146354150Y-54910876D01*
X146354157Y-54910890D01*
X146468892Y-55109617D01*
X146608581Y-55291661D01*
X146608589Y-55291670D01*
X146770830Y-55453911D01*
X146770838Y-55453918D01*
X146952882Y-55593607D01*
X146952885Y-55593608D01*
X146952888Y-55593611D01*
X147151612Y-55708344D01*
X147151617Y-55708346D01*
X147151623Y-55708349D01*
X147242980Y-55746190D01*
X147363613Y-55796158D01*
X147585262Y-55855548D01*
X147812766Y-55885500D01*
X147812773Y-55885500D01*
X147875425Y-55885500D01*
X147942464Y-55905185D01*
X147988219Y-55957989D01*
X147998163Y-56027147D01*
X147969138Y-56090703D01*
X147915688Y-56126781D01*
X147742697Y-56186169D01*
X147742688Y-56186172D01*
X147523993Y-56304524D01*
X147327757Y-56457261D01*
X147159333Y-56640217D01*
X147023326Y-56848393D01*
X146923436Y-57076118D01*
X146862392Y-57317175D01*
X146862390Y-57317187D01*
X146841857Y-57564994D01*
X146841857Y-57565005D01*
X146862390Y-57812812D01*
X146862392Y-57812824D01*
X146923436Y-58053881D01*
X147023326Y-58281606D01*
X147159333Y-58489782D01*
X147159336Y-58489785D01*
X147327756Y-58672738D01*
X147410508Y-58737147D01*
X147451321Y-58793857D01*
X147454996Y-58863630D01*
X147420364Y-58924313D01*
X147410514Y-58932848D01*
X147351900Y-58978469D01*
X147327757Y-58997261D01*
X147159333Y-59180217D01*
X147023326Y-59388393D01*
X146923436Y-59616118D01*
X146862392Y-59857175D01*
X146862390Y-59857187D01*
X146841857Y-60104994D01*
X146841857Y-60105005D01*
X146862390Y-60352812D01*
X146862392Y-60352824D01*
X146923436Y-60593881D01*
X147023326Y-60821606D01*
X147159333Y-61029782D01*
X147159336Y-61029785D01*
X147327756Y-61212738D01*
X147410508Y-61277147D01*
X147451321Y-61333857D01*
X147454996Y-61403630D01*
X147420364Y-61464313D01*
X147410514Y-61472848D01*
X147351900Y-61518469D01*
X147327757Y-61537261D01*
X147159333Y-61720217D01*
X147023326Y-61928393D01*
X146923436Y-62156118D01*
X146862392Y-62397175D01*
X146862390Y-62397187D01*
X146841857Y-62644994D01*
X146841857Y-62645005D01*
X146862390Y-62892812D01*
X146862392Y-62892824D01*
X146923436Y-63133881D01*
X147023326Y-63361606D01*
X147159333Y-63569782D01*
X147159336Y-63569785D01*
X147327756Y-63752738D01*
X147410508Y-63817147D01*
X147451321Y-63873857D01*
X147454996Y-63943630D01*
X147420364Y-64004313D01*
X147410514Y-64012848D01*
X147372736Y-64042253D01*
X147327757Y-64077261D01*
X147159333Y-64260217D01*
X147023326Y-64468393D01*
X146923436Y-64696118D01*
X146862392Y-64937175D01*
X146862390Y-64937187D01*
X146841857Y-65184994D01*
X146841857Y-65185005D01*
X146862390Y-65432812D01*
X146862392Y-65432824D01*
X146923436Y-65673881D01*
X147023326Y-65901606D01*
X147159333Y-66109782D01*
X147159336Y-66109785D01*
X147327756Y-66292738D01*
X147410508Y-66357147D01*
X147451321Y-66413857D01*
X147454996Y-66483630D01*
X147420364Y-66544313D01*
X147410514Y-66552848D01*
X147351900Y-66598469D01*
X147327757Y-66617261D01*
X147159333Y-66800217D01*
X147023326Y-67008393D01*
X146923436Y-67236118D01*
X146862392Y-67477175D01*
X146862390Y-67477187D01*
X146841857Y-67724994D01*
X146841857Y-67725005D01*
X146862390Y-67972812D01*
X146862392Y-67972824D01*
X146923436Y-68213881D01*
X147023326Y-68441606D01*
X147159333Y-68649782D01*
X147159336Y-68649785D01*
X147327756Y-68832738D01*
X147410508Y-68897147D01*
X147451321Y-68953857D01*
X147454996Y-69023630D01*
X147420364Y-69084313D01*
X147410514Y-69092848D01*
X147351900Y-69138469D01*
X147327757Y-69157261D01*
X147159333Y-69340217D01*
X147023326Y-69548393D01*
X146923436Y-69776118D01*
X146862392Y-70017175D01*
X146862390Y-70017187D01*
X146841857Y-70264994D01*
X146841857Y-70265005D01*
X146862390Y-70512812D01*
X146862392Y-70512824D01*
X146923436Y-70753881D01*
X147023326Y-70981606D01*
X147159333Y-71189782D01*
X147159336Y-71189785D01*
X147327756Y-71372738D01*
X147410508Y-71437147D01*
X147451321Y-71493857D01*
X147454996Y-71563630D01*
X147420364Y-71624313D01*
X147410514Y-71632848D01*
X147351900Y-71678469D01*
X147327757Y-71697261D01*
X147159333Y-71880217D01*
X147023326Y-72088393D01*
X146923436Y-72316118D01*
X146862392Y-72557175D01*
X146862390Y-72557187D01*
X146841857Y-72804994D01*
X146841857Y-72805005D01*
X146862390Y-73052812D01*
X146862392Y-73052824D01*
X146923436Y-73293881D01*
X147023326Y-73521606D01*
X147159333Y-73729782D01*
X147159336Y-73729785D01*
X147327756Y-73912738D01*
X147410508Y-73977147D01*
X147451321Y-74033857D01*
X147454996Y-74103630D01*
X147420364Y-74164313D01*
X147410514Y-74172848D01*
X147351900Y-74218469D01*
X147327757Y-74237261D01*
X147159333Y-74420217D01*
X147023326Y-74628393D01*
X146923436Y-74856118D01*
X146862392Y-75097175D01*
X146862390Y-75097187D01*
X146841857Y-75344994D01*
X146841857Y-75345005D01*
X146862390Y-75592812D01*
X146862392Y-75592824D01*
X146923436Y-75833881D01*
X147023326Y-76061606D01*
X147159333Y-76269782D01*
X147159336Y-76269785D01*
X147327756Y-76452738D01*
X147410508Y-76517147D01*
X147451321Y-76573857D01*
X147454996Y-76643630D01*
X147420364Y-76704313D01*
X147410514Y-76712848D01*
X147351900Y-76758469D01*
X147327757Y-76777261D01*
X147159333Y-76960217D01*
X147023326Y-77168393D01*
X146923436Y-77396118D01*
X146862392Y-77637175D01*
X146862390Y-77637187D01*
X146841857Y-77884994D01*
X146841857Y-77885005D01*
X146862390Y-78132812D01*
X146862392Y-78132824D01*
X146923436Y-78373881D01*
X147023326Y-78601606D01*
X147159333Y-78809782D01*
X147159336Y-78809785D01*
X147327756Y-78992738D01*
X147410508Y-79057147D01*
X147451321Y-79113857D01*
X147454996Y-79183630D01*
X147420364Y-79244313D01*
X147410514Y-79252848D01*
X147351900Y-79298469D01*
X147327757Y-79317261D01*
X147159333Y-79500217D01*
X147023326Y-79708393D01*
X146923436Y-79936118D01*
X146862392Y-80177175D01*
X146862390Y-80177187D01*
X146841857Y-80424994D01*
X146841857Y-80425005D01*
X146862390Y-80672812D01*
X146862392Y-80672824D01*
X146923436Y-80913881D01*
X147023326Y-81141606D01*
X147159333Y-81349782D01*
X147159336Y-81349785D01*
X147327756Y-81532738D01*
X147410508Y-81597147D01*
X147451321Y-81653857D01*
X147454996Y-81723630D01*
X147420364Y-81784313D01*
X147410514Y-81792848D01*
X147351900Y-81838469D01*
X147327757Y-81857261D01*
X147159333Y-82040217D01*
X147023326Y-82248393D01*
X146923436Y-82476118D01*
X146862392Y-82717175D01*
X146862390Y-82717187D01*
X146841857Y-82964994D01*
X146841857Y-82965005D01*
X146862390Y-83212812D01*
X146862392Y-83212824D01*
X146923436Y-83453881D01*
X147023326Y-83681606D01*
X147159333Y-83889782D01*
X147159336Y-83889785D01*
X147327756Y-84072738D01*
X147410508Y-84137147D01*
X147451321Y-84193857D01*
X147454996Y-84263630D01*
X147420364Y-84324313D01*
X147410514Y-84332848D01*
X147351900Y-84378469D01*
X147327757Y-84397261D01*
X147159333Y-84580217D01*
X147023326Y-84788393D01*
X146923436Y-85016118D01*
X146862392Y-85257175D01*
X146862390Y-85257187D01*
X146841857Y-85504994D01*
X146841857Y-85505005D01*
X146862390Y-85752812D01*
X146862392Y-85752824D01*
X146923436Y-85993881D01*
X147023326Y-86221606D01*
X147159333Y-86429782D01*
X147159336Y-86429785D01*
X147327756Y-86612738D01*
X147410508Y-86677147D01*
X147451321Y-86733857D01*
X147454996Y-86803630D01*
X147420364Y-86864313D01*
X147410514Y-86872848D01*
X147351900Y-86918469D01*
X147327757Y-86937261D01*
X147159333Y-87120217D01*
X147023326Y-87328393D01*
X146923436Y-87556118D01*
X146862392Y-87797175D01*
X146862390Y-87797187D01*
X146841857Y-88044994D01*
X146841857Y-88045005D01*
X146862390Y-88292812D01*
X146862392Y-88292824D01*
X146923436Y-88533881D01*
X147023326Y-88761606D01*
X147159333Y-88969782D01*
X147175659Y-88987517D01*
X147327756Y-89152738D01*
X147327759Y-89152740D01*
X147327762Y-89152743D01*
X147431243Y-89233286D01*
X147472056Y-89289996D01*
X147478843Y-89338823D01*
X147477441Y-89361389D01*
X148209924Y-90093871D01*
X148150647Y-90109755D01*
X148034353Y-90176898D01*
X147939398Y-90271853D01*
X147872255Y-90388147D01*
X147856371Y-90447424D01*
X147124064Y-89715116D01*
X147023767Y-89868632D01*
X146923912Y-90096282D01*
X146862887Y-90337261D01*
X146862885Y-90337270D01*
X146842359Y-90584994D01*
X146842359Y-90585005D01*
X146862885Y-90832729D01*
X146862887Y-90832738D01*
X146923912Y-91073717D01*
X147023767Y-91301367D01*
X147154682Y-91501748D01*
X147174869Y-91568637D01*
X147155689Y-91635823D01*
X147110306Y-91678398D01*
X147105167Y-91681204D01*
X146989955Y-91767452D01*
X146989952Y-91767455D01*
X146903706Y-91882664D01*
X146903702Y-91882671D01*
X146853408Y-92017517D01*
X146847001Y-92077116D01*
X146847001Y-92077123D01*
X146847000Y-92077135D01*
X146847000Y-94172870D01*
X146847001Y-94172876D01*
X146853408Y-94232483D01*
X146903702Y-94367328D01*
X146903706Y-94367335D01*
X146989952Y-94482544D01*
X146989955Y-94482547D01*
X147105164Y-94568793D01*
X147105171Y-94568797D01*
X147240017Y-94619091D01*
X147240016Y-94619091D01*
X147246944Y-94619835D01*
X147299627Y-94625500D01*
X149395372Y-94625499D01*
X149454983Y-94619091D01*
X149589831Y-94568796D01*
X149705046Y-94482546D01*
X149791296Y-94367331D01*
X149841591Y-94232483D01*
X149848000Y-94172873D01*
X149847999Y-92077128D01*
X149841591Y-92017517D01*
X149841495Y-92017260D01*
X149791297Y-91882671D01*
X149791293Y-91882664D01*
X149706952Y-91770000D01*
X176268628Y-91770000D01*
X176310316Y-91898306D01*
X176310317Y-91898307D01*
X176407536Y-92066694D01*
X176407535Y-92066694D01*
X176537639Y-92211190D01*
X176537642Y-92211192D01*
X176694950Y-92325484D01*
X176872587Y-92404573D01*
X176909999Y-92412524D01*
X176910000Y-92412524D01*
X177410000Y-92412524D01*
X177447412Y-92404573D01*
X177625049Y-92325484D01*
X177782357Y-92211192D01*
X177782360Y-92211190D01*
X177912463Y-92066694D01*
X178009682Y-91898307D01*
X178009683Y-91898306D01*
X178051372Y-91770000D01*
X177410000Y-91770000D01*
X177410000Y-92412524D01*
X176910000Y-92412524D01*
X176910000Y-91770000D01*
X176268628Y-91770000D01*
X149706952Y-91770000D01*
X149705047Y-91767455D01*
X149705044Y-91767452D01*
X149589833Y-91681204D01*
X149584697Y-91678400D01*
X149535293Y-91628994D01*
X149520442Y-91560721D01*
X149540317Y-91501747D01*
X149671233Y-91301364D01*
X149771087Y-91073717D01*
X149832112Y-90832738D01*
X149832114Y-90832729D01*
X149852641Y-90585005D01*
X149852641Y-90584994D01*
X149847255Y-90520000D01*
X176229402Y-90520000D01*
X176249738Y-90713483D01*
X176309856Y-90898510D01*
X176309857Y-90898511D01*
X176344492Y-90958500D01*
X176360965Y-91026400D01*
X176344492Y-91082500D01*
X176310317Y-91141692D01*
X176310316Y-91141693D01*
X176268628Y-91269999D01*
X176268628Y-91270000D01*
X176577441Y-91270000D01*
X176644480Y-91289685D01*
X176650327Y-91293682D01*
X176694702Y-91325923D01*
X176762926Y-91356297D01*
X176872429Y-91405051D01*
X176931788Y-91417668D01*
X176910000Y-91470272D01*
X176910000Y-91569728D01*
X176948060Y-91661614D01*
X177018386Y-91731940D01*
X177110272Y-91770000D01*
X177209728Y-91770000D01*
X177301614Y-91731940D01*
X177371940Y-91661614D01*
X177410000Y-91569728D01*
X177410000Y-91470272D01*
X177388211Y-91417668D01*
X177447571Y-91405051D01*
X177625299Y-91325922D01*
X177669673Y-91293681D01*
X177735480Y-91270202D01*
X177742559Y-91270000D01*
X178051372Y-91270000D01*
X178051371Y-91269999D01*
X178009684Y-91141697D01*
X177975507Y-91082500D01*
X177959034Y-91014600D01*
X177975506Y-90958502D01*
X178010144Y-90898508D01*
X178070262Y-90713482D01*
X178090598Y-90520000D01*
X178070262Y-90326518D01*
X178040150Y-90233844D01*
X178038156Y-90164006D01*
X178041895Y-90152210D01*
X178079091Y-90052483D01*
X178085500Y-89992873D01*
X178085499Y-89047128D01*
X178079091Y-88987517D01*
X178072477Y-88969785D01*
X178028797Y-88852671D01*
X178028793Y-88852664D01*
X177942547Y-88737455D01*
X177942544Y-88737452D01*
X177827335Y-88651206D01*
X177827328Y-88651202D01*
X177692482Y-88600908D01*
X177692483Y-88600908D01*
X177632883Y-88594501D01*
X177632881Y-88594500D01*
X177632873Y-88594500D01*
X177632864Y-88594500D01*
X176687129Y-88594500D01*
X176687123Y-88594501D01*
X176627516Y-88600908D01*
X176492671Y-88651202D01*
X176492664Y-88651206D01*
X176377455Y-88737452D01*
X176377452Y-88737455D01*
X176291206Y-88852664D01*
X176291202Y-88852671D01*
X176240908Y-88987517D01*
X176234501Y-89047116D01*
X176234501Y-89047123D01*
X176234500Y-89047135D01*
X176234500Y-89992870D01*
X176234501Y-89992876D01*
X176240908Y-90052483D01*
X176278099Y-90152195D01*
X176283083Y-90221887D01*
X176279848Y-90233845D01*
X176249740Y-90326511D01*
X176249738Y-90326516D01*
X176229402Y-90520000D01*
X149847255Y-90520000D01*
X149832114Y-90337270D01*
X149832112Y-90337261D01*
X149771087Y-90096282D01*
X149671231Y-89868630D01*
X149570934Y-89715116D01*
X148838627Y-90447423D01*
X148822745Y-90388147D01*
X148755602Y-90271853D01*
X148660647Y-90176898D01*
X148544353Y-90109755D01*
X148485075Y-90093872D01*
X149217556Y-89361390D01*
X149216155Y-89338825D01*
X149231647Y-89270694D01*
X149263750Y-89233290D01*
X149367244Y-89152738D01*
X149535664Y-88969785D01*
X149671673Y-88761607D01*
X149771563Y-88533881D01*
X149832608Y-88292821D01*
X149853143Y-88045000D01*
X149832608Y-87797179D01*
X149771563Y-87556119D01*
X149671673Y-87328393D01*
X149535666Y-87120217D01*
X149514057Y-87096744D01*
X149367244Y-86937262D01*
X149284491Y-86872852D01*
X149243679Y-86816143D01*
X149240004Y-86746370D01*
X149274636Y-86685687D01*
X149284485Y-86677151D01*
X149367244Y-86612738D01*
X149535664Y-86429785D01*
X149671673Y-86221607D01*
X149771563Y-85993881D01*
X149832608Y-85752821D01*
X149853143Y-85505000D01*
X149832608Y-85257179D01*
X149771563Y-85016119D01*
X149671673Y-84788393D01*
X149535666Y-84580217D01*
X149514057Y-84556744D01*
X149367244Y-84397262D01*
X149284491Y-84332852D01*
X149243679Y-84276143D01*
X149240004Y-84206370D01*
X149274636Y-84145687D01*
X149284485Y-84137151D01*
X149367244Y-84072738D01*
X149535664Y-83889785D01*
X149671673Y-83681607D01*
X149771563Y-83453881D01*
X149832608Y-83212821D01*
X149853143Y-82965000D01*
X149840168Y-82808417D01*
X149832609Y-82717187D01*
X149832607Y-82717175D01*
X149771563Y-82476118D01*
X149671673Y-82248393D01*
X149535666Y-82040217D01*
X149514057Y-82016744D01*
X149367244Y-81857262D01*
X149284491Y-81792852D01*
X149243679Y-81736143D01*
X149240004Y-81666370D01*
X149274636Y-81605687D01*
X149284485Y-81597151D01*
X149367244Y-81532738D01*
X149535664Y-81349785D01*
X149671673Y-81141607D01*
X149771563Y-80913881D01*
X149832608Y-80672821D01*
X149853143Y-80425000D01*
X149840168Y-80268417D01*
X149832609Y-80177187D01*
X149832607Y-80177175D01*
X149771563Y-79936118D01*
X149671673Y-79708393D01*
X149535666Y-79500217D01*
X149514057Y-79476744D01*
X149367244Y-79317262D01*
X149284491Y-79252852D01*
X149243679Y-79196143D01*
X149240004Y-79126370D01*
X149274636Y-79065687D01*
X149284485Y-79057151D01*
X149367244Y-78992738D01*
X149535664Y-78809785D01*
X149671673Y-78601607D01*
X149771563Y-78373881D01*
X149832608Y-78132821D01*
X149839262Y-78052517D01*
X149853143Y-77885005D01*
X149853143Y-77884994D01*
X149832609Y-77637187D01*
X149832607Y-77637175D01*
X149771563Y-77396118D01*
X149671673Y-77168393D01*
X149535666Y-76960217D01*
X149514057Y-76936744D01*
X149367244Y-76777262D01*
X149284491Y-76712852D01*
X149243679Y-76656143D01*
X149240004Y-76586370D01*
X149274636Y-76525687D01*
X149284485Y-76517151D01*
X149367244Y-76452738D01*
X149535664Y-76269785D01*
X149671673Y-76061607D01*
X149771563Y-75833881D01*
X149832608Y-75592821D01*
X149853143Y-75345000D01*
X149840168Y-75188417D01*
X149832609Y-75097187D01*
X149832607Y-75097175D01*
X149771563Y-74856118D01*
X149671673Y-74628393D01*
X149535666Y-74420217D01*
X149514057Y-74396744D01*
X149367244Y-74237262D01*
X149284491Y-74172852D01*
X149243679Y-74116143D01*
X149240004Y-74046370D01*
X149274636Y-73985687D01*
X149284485Y-73977151D01*
X149367244Y-73912738D01*
X149535664Y-73729785D01*
X149671673Y-73521607D01*
X149771563Y-73293881D01*
X149832608Y-73052821D01*
X149845870Y-72892774D01*
X149853143Y-72805005D01*
X149853143Y-72804994D01*
X149832609Y-72557187D01*
X149832607Y-72557175D01*
X149771563Y-72316118D01*
X149671673Y-72088393D01*
X149535666Y-71880217D01*
X149514057Y-71856744D01*
X149367244Y-71697262D01*
X149284491Y-71632852D01*
X149243679Y-71576143D01*
X149240004Y-71506370D01*
X149274636Y-71445687D01*
X149284485Y-71437151D01*
X149367244Y-71372738D01*
X149535664Y-71189785D01*
X149671673Y-70981607D01*
X149771563Y-70753881D01*
X149832608Y-70512821D01*
X149853143Y-70265000D01*
X149840168Y-70108417D01*
X149832609Y-70017187D01*
X149832607Y-70017175D01*
X149771563Y-69776118D01*
X149671673Y-69548393D01*
X149535666Y-69340217D01*
X149514057Y-69316744D01*
X149367244Y-69157262D01*
X149284491Y-69092852D01*
X149243679Y-69036143D01*
X149240004Y-68966370D01*
X149274636Y-68905687D01*
X149284485Y-68897151D01*
X149367244Y-68832738D01*
X149535664Y-68649785D01*
X149671673Y-68441607D01*
X149771563Y-68213881D01*
X149832608Y-67972821D01*
X149834513Y-67949837D01*
X149853143Y-67725005D01*
X149853143Y-67724994D01*
X149832609Y-67477187D01*
X149832607Y-67477175D01*
X149771563Y-67236118D01*
X149671673Y-67008393D01*
X149535666Y-66800217D01*
X149402608Y-66655678D01*
X149367244Y-66617262D01*
X149284491Y-66552852D01*
X149243679Y-66496143D01*
X149240004Y-66426370D01*
X149274636Y-66365687D01*
X149284485Y-66357151D01*
X149367244Y-66292738D01*
X149535664Y-66109785D01*
X149671673Y-65901607D01*
X149771563Y-65673881D01*
X149832608Y-65432821D01*
X149832609Y-65432812D01*
X149853143Y-65185005D01*
X149853143Y-65184994D01*
X149832609Y-64937187D01*
X149832607Y-64937175D01*
X149805866Y-64831577D01*
X153999500Y-64831577D01*
X153999500Y-65028422D01*
X154030290Y-65222826D01*
X154091117Y-65410029D01*
X154169319Y-65563508D01*
X154180476Y-65585405D01*
X154296172Y-65744646D01*
X154435354Y-65883828D01*
X154554784Y-65970600D01*
X154594596Y-65999525D01*
X154771763Y-66089795D01*
X154822560Y-66137769D01*
X154839355Y-66205590D01*
X154816818Y-66271725D01*
X154771764Y-66310765D01*
X154594856Y-66400904D01*
X154435678Y-66516555D01*
X154296555Y-66655678D01*
X154180904Y-66814856D01*
X154091581Y-66990162D01*
X154030781Y-67177283D01*
X154024016Y-67220000D01*
X155566988Y-67220000D01*
X155534075Y-67277007D01*
X155500000Y-67404174D01*
X155500000Y-67535826D01*
X155534075Y-67662993D01*
X155566988Y-67720000D01*
X154024016Y-67720000D01*
X154030781Y-67762716D01*
X154091581Y-67949837D01*
X154180904Y-68125143D01*
X154296555Y-68284321D01*
X154435678Y-68423444D01*
X154594856Y-68539095D01*
X154771764Y-68629234D01*
X154822560Y-68677208D01*
X154839355Y-68745029D01*
X154816818Y-68811164D01*
X154771764Y-68850204D01*
X154594594Y-68940476D01*
X154506438Y-69004526D01*
X154435354Y-69056172D01*
X154435352Y-69056174D01*
X154435351Y-69056174D01*
X154296174Y-69195351D01*
X154296174Y-69195352D01*
X154296172Y-69195354D01*
X154246485Y-69263741D01*
X154180476Y-69354594D01*
X154091117Y-69529970D01*
X154030290Y-69717173D01*
X153999500Y-69911577D01*
X153999500Y-70108422D01*
X154030290Y-70302826D01*
X154091117Y-70490029D01*
X154180476Y-70665405D01*
X154296172Y-70824646D01*
X154435354Y-70963828D01*
X154594595Y-71079524D01*
X154717992Y-71142397D01*
X154771213Y-71169515D01*
X154822009Y-71217489D01*
X154838804Y-71285310D01*
X154816267Y-71351445D01*
X154771213Y-71390485D01*
X154594594Y-71480476D01*
X154506438Y-71544526D01*
X154435354Y-71596172D01*
X154435352Y-71596174D01*
X154435351Y-71596174D01*
X154296174Y-71735351D01*
X154296174Y-71735352D01*
X154296172Y-71735354D01*
X154246485Y-71803741D01*
X154180476Y-71894594D01*
X154091117Y-72069970D01*
X154030290Y-72257173D01*
X153999500Y-72451577D01*
X153999500Y-72648422D01*
X154030290Y-72842826D01*
X154091117Y-73030029D01*
X154180476Y-73205405D01*
X154296172Y-73364646D01*
X154435354Y-73503828D01*
X154594595Y-73619524D01*
X154717992Y-73682397D01*
X154771213Y-73709515D01*
X154822009Y-73757489D01*
X154838804Y-73825310D01*
X154816267Y-73891445D01*
X154771213Y-73930485D01*
X154594594Y-74020476D01*
X154506438Y-74084526D01*
X154435354Y-74136172D01*
X154435352Y-74136174D01*
X154435351Y-74136174D01*
X154296174Y-74275351D01*
X154296174Y-74275352D01*
X154296172Y-74275354D01*
X154246485Y-74343741D01*
X154180476Y-74434594D01*
X154091117Y-74609970D01*
X154030290Y-74797173D01*
X153999500Y-74991577D01*
X153999500Y-75188422D01*
X154030290Y-75382826D01*
X154091117Y-75570029D01*
X154180476Y-75745405D01*
X154296172Y-75904646D01*
X154435354Y-76043828D01*
X154594595Y-76159524D01*
X154717992Y-76222397D01*
X154771213Y-76249515D01*
X154822009Y-76297489D01*
X154838804Y-76365310D01*
X154816267Y-76431445D01*
X154771213Y-76470485D01*
X154594594Y-76560476D01*
X154506438Y-76624526D01*
X154435354Y-76676172D01*
X154435352Y-76676174D01*
X154435351Y-76676174D01*
X154296174Y-76815351D01*
X154296174Y-76815352D01*
X154296172Y-76815354D01*
X154246485Y-76883741D01*
X154180476Y-76974594D01*
X154091117Y-77149970D01*
X154030290Y-77337173D01*
X153999500Y-77531577D01*
X153999500Y-77728422D01*
X154030290Y-77922826D01*
X154091117Y-78110029D01*
X154180476Y-78285405D01*
X154296172Y-78444646D01*
X154435354Y-78583828D01*
X154594595Y-78699524D01*
X154717992Y-78762397D01*
X154771213Y-78789515D01*
X154822009Y-78837489D01*
X154838804Y-78905310D01*
X154816267Y-78971445D01*
X154771213Y-79010485D01*
X154594594Y-79100476D01*
X154506438Y-79164526D01*
X154435354Y-79216172D01*
X154435352Y-79216174D01*
X154435351Y-79216174D01*
X154296174Y-79355351D01*
X154296174Y-79355352D01*
X154296172Y-79355354D01*
X154246485Y-79423741D01*
X154180476Y-79514594D01*
X154091117Y-79689970D01*
X154030290Y-79877173D01*
X153999500Y-80071577D01*
X153999500Y-80268422D01*
X154030290Y-80462826D01*
X154091117Y-80650029D01*
X154180476Y-80825405D01*
X154296172Y-80984646D01*
X154435354Y-81123828D01*
X154594595Y-81239524D01*
X154717992Y-81302397D01*
X154771213Y-81329515D01*
X154822009Y-81377489D01*
X154838804Y-81445310D01*
X154816267Y-81511445D01*
X154771213Y-81550485D01*
X154594594Y-81640476D01*
X154506438Y-81704526D01*
X154435354Y-81756172D01*
X154435352Y-81756174D01*
X154435351Y-81756174D01*
X154296174Y-81895351D01*
X154296174Y-81895352D01*
X154296172Y-81895354D01*
X154246485Y-81963741D01*
X154180476Y-82054594D01*
X154091117Y-82229970D01*
X154030290Y-82417173D01*
X153999500Y-82611577D01*
X153999500Y-82808422D01*
X154030290Y-83002826D01*
X154091117Y-83190029D01*
X154180476Y-83365405D01*
X154296172Y-83524646D01*
X154435354Y-83663828D01*
X154594595Y-83779524D01*
X154677455Y-83821743D01*
X154769970Y-83868882D01*
X154769972Y-83868882D01*
X154769975Y-83868884D01*
X154870317Y-83901487D01*
X154957173Y-83929709D01*
X155151578Y-83960500D01*
X155151583Y-83960500D01*
X156848422Y-83960500D01*
X157042826Y-83929709D01*
X157230025Y-83868884D01*
X157405405Y-83779524D01*
X157564646Y-83663828D01*
X157703828Y-83524646D01*
X157819524Y-83365405D01*
X157908884Y-83190025D01*
X157969709Y-83002826D01*
X157975701Y-82964994D01*
X158000500Y-82808422D01*
X158000500Y-82611577D01*
X157969709Y-82417173D01*
X157908882Y-82229970D01*
X157819523Y-82054594D01*
X157703828Y-81895354D01*
X157564646Y-81756172D01*
X157432966Y-81660500D01*
X157405403Y-81640474D01*
X157228787Y-81550485D01*
X157177990Y-81502511D01*
X157161195Y-81434690D01*
X157183732Y-81368555D01*
X157228787Y-81329515D01*
X157405403Y-81239525D01*
X157405402Y-81239525D01*
X157405405Y-81239524D01*
X157564646Y-81123828D01*
X157703828Y-80984646D01*
X157819524Y-80825405D01*
X157908884Y-80650025D01*
X157969709Y-80462826D01*
X157975701Y-80424994D01*
X158000500Y-80268422D01*
X158000500Y-80071577D01*
X157969709Y-79877173D01*
X157908882Y-79689970D01*
X157819523Y-79514594D01*
X157703828Y-79355354D01*
X157564646Y-79216172D01*
X157441045Y-79126370D01*
X157405403Y-79100474D01*
X157228787Y-79010485D01*
X157177990Y-78962511D01*
X157161195Y-78894690D01*
X157183732Y-78828555D01*
X157228787Y-78789515D01*
X157405403Y-78699525D01*
X157405402Y-78699525D01*
X157405405Y-78699524D01*
X157564646Y-78583828D01*
X157703828Y-78444646D01*
X157819524Y-78285405D01*
X157907809Y-78112135D01*
X179369500Y-78112135D01*
X179369500Y-81207870D01*
X179369501Y-81207876D01*
X179375908Y-81267483D01*
X179426202Y-81402328D01*
X179426206Y-81402335D01*
X179512452Y-81517544D01*
X179512455Y-81517547D01*
X179627664Y-81603793D01*
X179627671Y-81603797D01*
X179762517Y-81654091D01*
X179762516Y-81654091D01*
X179769444Y-81654835D01*
X179822127Y-81660500D01*
X182917872Y-81660499D01*
X182977483Y-81654091D01*
X183112331Y-81603796D01*
X183227546Y-81517546D01*
X183313796Y-81402331D01*
X183364091Y-81267483D01*
X183370500Y-81207873D01*
X183370499Y-78112128D01*
X183364091Y-78052517D01*
X183315719Y-77922826D01*
X183313797Y-77917671D01*
X183313793Y-77917664D01*
X183227547Y-77802455D01*
X183227544Y-77802452D01*
X183112335Y-77716206D01*
X183112328Y-77716202D01*
X182977482Y-77665908D01*
X182977483Y-77665908D01*
X182917883Y-77659501D01*
X182917881Y-77659500D01*
X182917873Y-77659500D01*
X182917864Y-77659500D01*
X179822129Y-77659500D01*
X179822123Y-77659501D01*
X179762516Y-77665908D01*
X179627671Y-77716202D01*
X179627664Y-77716206D01*
X179512455Y-77802452D01*
X179512452Y-77802455D01*
X179426206Y-77917664D01*
X179426202Y-77917671D01*
X179375908Y-78052517D01*
X179369501Y-78112116D01*
X179369501Y-78112123D01*
X179369500Y-78112135D01*
X157907809Y-78112135D01*
X157907812Y-78112129D01*
X157908882Y-78110029D01*
X157908882Y-78110028D01*
X157908884Y-78110025D01*
X157969709Y-77922826D01*
X157988774Y-77802454D01*
X158000500Y-77728422D01*
X158000500Y-77531577D01*
X157969709Y-77337173D01*
X157908882Y-77149970D01*
X157819523Y-76974594D01*
X157703828Y-76815354D01*
X157564646Y-76676172D01*
X157439999Y-76585610D01*
X157405403Y-76560474D01*
X157228787Y-76470485D01*
X157177990Y-76422511D01*
X157161195Y-76354690D01*
X157183732Y-76288555D01*
X157228787Y-76249515D01*
X157405403Y-76159525D01*
X157405402Y-76159525D01*
X157405405Y-76159524D01*
X157564646Y-76043828D01*
X157703828Y-75904646D01*
X157819524Y-75745405D01*
X157908884Y-75570025D01*
X157969709Y-75382826D01*
X157975701Y-75344994D01*
X158000500Y-75188422D01*
X158000500Y-74991577D01*
X157969709Y-74797173D01*
X157908882Y-74609970D01*
X157893610Y-74579998D01*
X179364390Y-74579998D01*
X179364390Y-74580001D01*
X179384804Y-74865433D01*
X179445628Y-75145037D01*
X179445630Y-75145043D01*
X179445631Y-75145046D01*
X179520208Y-75344994D01*
X179545635Y-75413166D01*
X179682770Y-75664309D01*
X179682775Y-75664317D01*
X179854254Y-75893387D01*
X179854270Y-75893405D01*
X180056594Y-76095729D01*
X180056612Y-76095745D01*
X180285682Y-76267224D01*
X180285690Y-76267229D01*
X180536833Y-76404364D01*
X180536832Y-76404364D01*
X180536836Y-76404365D01*
X180536839Y-76404367D01*
X180804954Y-76504369D01*
X180804960Y-76504370D01*
X180804962Y-76504371D01*
X181084566Y-76565195D01*
X181084568Y-76565195D01*
X181084572Y-76565196D01*
X181338220Y-76583337D01*
X181369999Y-76585610D01*
X181370000Y-76585610D01*
X181370001Y-76585610D01*
X181398595Y-76583564D01*
X181655428Y-76565196D01*
X181837049Y-76525687D01*
X181935037Y-76504371D01*
X181935037Y-76504370D01*
X181935046Y-76504369D01*
X182203161Y-76404367D01*
X182454315Y-76267226D01*
X182683395Y-76095739D01*
X182885739Y-75893395D01*
X183057226Y-75664315D01*
X183194367Y-75413161D01*
X183294369Y-75145046D01*
X183355196Y-74865428D01*
X183375610Y-74580000D01*
X183355196Y-74294572D01*
X183351015Y-74275354D01*
X183294371Y-74014962D01*
X183294370Y-74014960D01*
X183294369Y-74014954D01*
X183194367Y-73746839D01*
X183173986Y-73709515D01*
X183057229Y-73495690D01*
X183057224Y-73495682D01*
X182885745Y-73266612D01*
X182885729Y-73266594D01*
X182683405Y-73064270D01*
X182683387Y-73064254D01*
X182454317Y-72892775D01*
X182454309Y-72892770D01*
X182203166Y-72755635D01*
X182203167Y-72755635D01*
X182095915Y-72715632D01*
X181935046Y-72655631D01*
X181935043Y-72655630D01*
X181935037Y-72655628D01*
X181655433Y-72594804D01*
X181370001Y-72574390D01*
X181369999Y-72574390D01*
X181084566Y-72594804D01*
X180804962Y-72655628D01*
X180536833Y-72755635D01*
X180285690Y-72892770D01*
X180285682Y-72892775D01*
X180056612Y-73064254D01*
X180056594Y-73064270D01*
X179854270Y-73266594D01*
X179854254Y-73266612D01*
X179682775Y-73495682D01*
X179682770Y-73495690D01*
X179545635Y-73746833D01*
X179445628Y-74014962D01*
X179384804Y-74294566D01*
X179364390Y-74579998D01*
X157893610Y-74579998D01*
X157819523Y-74434594D01*
X157703828Y-74275354D01*
X157564646Y-74136172D01*
X157441045Y-74046370D01*
X157405403Y-74020474D01*
X157228787Y-73930485D01*
X157177990Y-73882511D01*
X157161195Y-73814690D01*
X157183732Y-73748555D01*
X157228787Y-73709515D01*
X157405403Y-73619525D01*
X157405402Y-73619525D01*
X157405405Y-73619524D01*
X157564646Y-73503828D01*
X157703828Y-73364646D01*
X157819524Y-73205405D01*
X157908884Y-73030025D01*
X157969709Y-72842826D01*
X157983519Y-72755633D01*
X158000500Y-72648422D01*
X158000500Y-72451577D01*
X157969709Y-72257173D01*
X157908882Y-72069970D01*
X157819523Y-71894594D01*
X157703828Y-71735354D01*
X157564646Y-71596172D01*
X157441045Y-71506370D01*
X157405403Y-71480474D01*
X157228787Y-71390485D01*
X157177990Y-71342511D01*
X157161195Y-71274690D01*
X157183732Y-71208555D01*
X157228787Y-71169515D01*
X157405403Y-71079525D01*
X157405402Y-71079525D01*
X157405405Y-71079524D01*
X157564646Y-70963828D01*
X157703828Y-70824646D01*
X157819524Y-70665405D01*
X157908884Y-70490025D01*
X157969709Y-70302826D01*
X157975701Y-70264994D01*
X158000500Y-70108422D01*
X158000500Y-69911577D01*
X157969709Y-69717173D01*
X157908882Y-69529970D01*
X157819523Y-69354594D01*
X157703828Y-69195354D01*
X157564646Y-69056172D01*
X157405405Y-68940476D01*
X157230025Y-68851116D01*
X157230024Y-68851115D01*
X157228235Y-68850204D01*
X157177439Y-68802230D01*
X157160644Y-68734409D01*
X157183181Y-68668274D01*
X157228236Y-68629234D01*
X157405141Y-68539097D01*
X157564321Y-68423444D01*
X157703444Y-68284321D01*
X157819095Y-68125143D01*
X157908418Y-67949837D01*
X157969218Y-67762716D01*
X157975984Y-67720000D01*
X156433012Y-67720000D01*
X156465925Y-67662993D01*
X156500000Y-67535826D01*
X156500000Y-67404174D01*
X156465925Y-67277007D01*
X156433012Y-67220000D01*
X157975984Y-67220000D01*
X157969218Y-67177283D01*
X157908418Y-66990162D01*
X157819095Y-66814856D01*
X157703444Y-66655678D01*
X157564321Y-66516555D01*
X157405143Y-66400904D01*
X157228235Y-66310765D01*
X157177439Y-66262790D01*
X157160644Y-66194969D01*
X157183181Y-66128835D01*
X157228236Y-66089795D01*
X157230022Y-66088884D01*
X157230025Y-66088884D01*
X157405405Y-65999524D01*
X157564646Y-65883828D01*
X157703828Y-65744646D01*
X157819524Y-65585405D01*
X157908884Y-65410025D01*
X157969709Y-65222826D01*
X157999417Y-65035258D01*
X158000500Y-65028422D01*
X158000500Y-64831577D01*
X157969709Y-64637173D01*
X157908882Y-64449970D01*
X157819523Y-64274594D01*
X157814838Y-64268146D01*
X174967000Y-64268146D01*
X174967000Y-64591853D01*
X175002778Y-64817746D01*
X175002778Y-64817749D01*
X175073450Y-65035255D01*
X175073452Y-65035258D01*
X175177283Y-65239038D01*
X175311714Y-65424066D01*
X175473434Y-65585786D01*
X175658462Y-65720217D01*
X175706407Y-65744646D01*
X175862244Y-65824049D01*
X176079751Y-65894721D01*
X176079752Y-65894721D01*
X176079755Y-65894722D01*
X176305646Y-65930500D01*
X176305647Y-65930500D01*
X176534353Y-65930500D01*
X176534354Y-65930500D01*
X176760245Y-65894722D01*
X176760248Y-65894721D01*
X176760249Y-65894721D01*
X176977755Y-65824049D01*
X176977755Y-65824048D01*
X176977758Y-65824048D01*
X177181538Y-65720217D01*
X177366566Y-65585786D01*
X177528286Y-65424066D01*
X177589992Y-65339134D01*
X177645319Y-65296470D01*
X177714932Y-65290491D01*
X177776727Y-65323096D01*
X177790626Y-65339135D01*
X177852097Y-65423741D01*
X177852097Y-65423742D01*
X178013757Y-65585402D01*
X178198723Y-65719788D01*
X178402429Y-65823582D01*
X178619871Y-65894234D01*
X178710000Y-65908509D01*
X178710000Y-64920747D01*
X178747708Y-64942518D01*
X178887591Y-64980000D01*
X179032409Y-64980000D01*
X179172292Y-64942518D01*
X179210000Y-64920747D01*
X179210000Y-65908508D01*
X179300128Y-65894234D01*
X179517570Y-65823582D01*
X179721276Y-65719788D01*
X179904059Y-65586988D01*
X179969865Y-65563508D01*
X180037919Y-65579333D01*
X180086614Y-65629439D01*
X180093127Y-65643974D01*
X180103701Y-65672326D01*
X180103706Y-65672335D01*
X180189952Y-65787544D01*
X180189955Y-65787547D01*
X180305164Y-65873793D01*
X180305171Y-65873797D01*
X180440017Y-65924091D01*
X180440016Y-65924091D01*
X180446944Y-65924835D01*
X180499627Y-65930500D01*
X182500372Y-65930499D01*
X182559983Y-65924091D01*
X182694831Y-65873796D01*
X182810046Y-65787546D01*
X182896296Y-65672331D01*
X182946591Y-65537483D01*
X182953000Y-65477873D01*
X182952999Y-63382128D01*
X182946591Y-63322517D01*
X182936841Y-63296377D01*
X182896297Y-63187671D01*
X182896293Y-63187664D01*
X182810047Y-63072455D01*
X182810044Y-63072452D01*
X182694835Y-62986206D01*
X182694828Y-62986202D01*
X182559982Y-62935908D01*
X182559983Y-62935908D01*
X182500383Y-62929501D01*
X182500381Y-62929500D01*
X182500373Y-62929500D01*
X182500364Y-62929500D01*
X180499629Y-62929500D01*
X180499623Y-62929501D01*
X180440016Y-62935908D01*
X180305171Y-62986202D01*
X180305164Y-62986206D01*
X180189955Y-63072452D01*
X180189952Y-63072455D01*
X180103706Y-63187664D01*
X180103702Y-63187671D01*
X180093127Y-63216026D01*
X180051256Y-63271960D01*
X179985791Y-63296377D01*
X179917518Y-63281525D01*
X179904060Y-63273011D01*
X179721279Y-63140213D01*
X179517568Y-63036417D01*
X179300124Y-62965765D01*
X179210000Y-62951490D01*
X179210000Y-63939252D01*
X179172292Y-63917482D01*
X179032409Y-63880000D01*
X178887591Y-63880000D01*
X178747708Y-63917482D01*
X178710000Y-63939252D01*
X178710000Y-62951490D01*
X178709999Y-62951490D01*
X178619875Y-62965765D01*
X178402431Y-63036417D01*
X178198723Y-63140211D01*
X178013757Y-63274597D01*
X177852097Y-63436257D01*
X177790627Y-63520864D01*
X177735297Y-63563529D01*
X177665684Y-63569508D01*
X177603889Y-63536902D01*
X177589991Y-63520864D01*
X177528286Y-63435934D01*
X177366566Y-63274214D01*
X177181538Y-63139783D01*
X177169955Y-63133881D01*
X176977755Y-63035950D01*
X176760248Y-62965278D01*
X176574812Y-62935908D01*
X176534354Y-62929500D01*
X176305646Y-62929500D01*
X176265188Y-62935908D01*
X176079753Y-62965278D01*
X176079750Y-62965278D01*
X175862244Y-63035950D01*
X175658461Y-63139783D01*
X175592550Y-63187671D01*
X175473434Y-63274214D01*
X175473432Y-63274216D01*
X175473431Y-63274216D01*
X175311716Y-63435931D01*
X175311716Y-63435932D01*
X175311714Y-63435934D01*
X175253980Y-63515396D01*
X175177283Y-63620961D01*
X175073450Y-63824744D01*
X175002778Y-64042250D01*
X175002778Y-64042253D01*
X174967000Y-64268146D01*
X157814838Y-64268146D01*
X157703828Y-64115354D01*
X157564646Y-63976172D01*
X157405405Y-63860476D01*
X157230029Y-63771117D01*
X157042826Y-63710290D01*
X156848422Y-63679500D01*
X156848417Y-63679500D01*
X155151583Y-63679500D01*
X155151578Y-63679500D01*
X154957173Y-63710290D01*
X154769970Y-63771117D01*
X154594594Y-63860476D01*
X154516133Y-63917482D01*
X154435354Y-63976172D01*
X154435352Y-63976174D01*
X154435351Y-63976174D01*
X154296174Y-64115351D01*
X154296174Y-64115352D01*
X154296172Y-64115354D01*
X154246485Y-64183741D01*
X154180476Y-64274594D01*
X154091117Y-64449970D01*
X154030290Y-64637173D01*
X153999500Y-64831577D01*
X149805866Y-64831577D01*
X149771563Y-64696118D01*
X149671673Y-64468393D01*
X149535666Y-64260217D01*
X149514057Y-64236744D01*
X149367244Y-64077262D01*
X149284491Y-64012852D01*
X149243679Y-63956143D01*
X149240004Y-63886370D01*
X149274636Y-63825687D01*
X149284485Y-63817151D01*
X149367244Y-63752738D01*
X149535664Y-63569785D01*
X149671673Y-63361607D01*
X149771563Y-63133881D01*
X149832608Y-62892821D01*
X149853143Y-62645000D01*
X149832608Y-62397179D01*
X149771563Y-62156119D01*
X149671673Y-61928393D01*
X149535666Y-61720217D01*
X149514057Y-61696744D01*
X149367244Y-61537262D01*
X149284491Y-61472852D01*
X149243679Y-61416143D01*
X149240004Y-61346370D01*
X149274636Y-61285687D01*
X149284485Y-61277151D01*
X149367244Y-61212738D01*
X149535664Y-61029785D01*
X149671673Y-60821607D01*
X149771563Y-60593881D01*
X149832608Y-60352821D01*
X149853143Y-60105000D01*
X149832608Y-59857179D01*
X149771563Y-59616119D01*
X149671673Y-59388393D01*
X149535666Y-59180217D01*
X149514057Y-59156744D01*
X149367244Y-58997262D01*
X149284491Y-58932852D01*
X149243679Y-58876143D01*
X149240004Y-58806370D01*
X149274636Y-58745687D01*
X149284485Y-58737151D01*
X149367244Y-58672738D01*
X149535664Y-58489785D01*
X149671673Y-58281607D01*
X149771563Y-58053881D01*
X149832608Y-57812821D01*
X149853143Y-57565000D01*
X149832608Y-57317179D01*
X149771563Y-57076119D01*
X149671673Y-56848393D01*
X149535666Y-56640217D01*
X149514057Y-56616744D01*
X149367244Y-56457262D01*
X149171009Y-56304526D01*
X149171007Y-56304525D01*
X149171006Y-56304524D01*
X148952311Y-56186172D01*
X148952302Y-56186169D01*
X148717116Y-56105429D01*
X148471835Y-56064500D01*
X148431792Y-56064500D01*
X148364753Y-56044815D01*
X148318998Y-55992011D01*
X148309054Y-55922853D01*
X148338079Y-55859297D01*
X148396857Y-55821523D01*
X148399664Y-55820734D01*
X148491387Y-55796158D01*
X148703388Y-55708344D01*
X148902112Y-55593611D01*
X149084161Y-55453919D01*
X149084165Y-55453914D01*
X149084170Y-55453911D01*
X149246411Y-55291670D01*
X149246414Y-55291665D01*
X149246419Y-55291661D01*
X149386111Y-55109612D01*
X149500844Y-54910888D01*
X149588658Y-54698887D01*
X149648048Y-54477238D01*
X149678000Y-54249734D01*
X149678000Y-54020266D01*
X149648048Y-53792762D01*
X149588658Y-53571113D01*
X149500844Y-53359112D01*
X149386111Y-53160388D01*
X149386108Y-53160385D01*
X149386107Y-53160382D01*
X149246418Y-52978338D01*
X149246411Y-52978330D01*
X149084170Y-52816089D01*
X149084161Y-52816081D01*
X148902117Y-52676392D01*
X148703390Y-52561657D01*
X148703376Y-52561650D01*
X148491387Y-52473842D01*
X148490308Y-52473553D01*
X148269738Y-52414452D01*
X148231715Y-52409446D01*
X148042241Y-52384500D01*
X148042234Y-52384500D01*
X147812766Y-52384500D01*
X147812758Y-52384500D01*
X147596215Y-52413009D01*
X147585262Y-52414452D01*
X147491576Y-52439554D01*
X147363612Y-52473842D01*
X147151623Y-52561650D01*
X147151609Y-52561657D01*
X146952882Y-52676392D01*
X146770838Y-52816081D01*
X146608581Y-52978338D01*
X146468892Y-53160382D01*
X146354157Y-53359109D01*
X146354150Y-53359123D01*
X146266342Y-53571112D01*
X146206953Y-53792759D01*
X146206951Y-53792770D01*
X146177000Y-54020258D01*
X125167999Y-54020258D01*
X125138048Y-53792762D01*
X125078658Y-53571113D01*
X124990844Y-53359112D01*
X124876111Y-53160388D01*
X124876108Y-53160385D01*
X124876107Y-53160382D01*
X124736418Y-52978338D01*
X124736411Y-52978330D01*
X124574170Y-52816089D01*
X124574161Y-52816081D01*
X124392117Y-52676392D01*
X124193390Y-52561657D01*
X124193376Y-52561650D01*
X123981387Y-52473842D01*
X123980308Y-52473553D01*
X123759738Y-52414452D01*
X123721715Y-52409446D01*
X123532241Y-52384500D01*
X123532234Y-52384500D01*
X123302766Y-52384500D01*
X123302758Y-52384500D01*
X123086215Y-52413009D01*
X123075262Y-52414452D01*
X122981576Y-52439554D01*
X122853612Y-52473842D01*
X122641623Y-52561650D01*
X122641609Y-52561657D01*
X122442882Y-52676392D01*
X122260838Y-52816081D01*
X122098581Y-52978338D01*
X121958892Y-53160382D01*
X121844157Y-53359109D01*
X121844150Y-53359123D01*
X121756342Y-53571112D01*
X121696953Y-53792759D01*
X121696951Y-53792770D01*
X121667000Y-54020258D01*
X121667000Y-54249741D01*
X121689460Y-54420335D01*
X121696952Y-54477238D01*
X121696953Y-54477240D01*
X121756342Y-54698887D01*
X121844150Y-54910876D01*
X121844157Y-54910890D01*
X121958892Y-55109617D01*
X122098581Y-55291661D01*
X122098589Y-55291670D01*
X122260830Y-55453911D01*
X122260838Y-55453918D01*
X122442882Y-55593607D01*
X122442885Y-55593608D01*
X122442888Y-55593611D01*
X122641612Y-55708344D01*
X122641617Y-55708346D01*
X122641623Y-55708349D01*
X122732980Y-55746190D01*
X122853613Y-55796158D01*
X122945302Y-55820725D01*
X123004962Y-55857090D01*
X123035491Y-55919937D01*
X123027196Y-55989312D01*
X122982711Y-56043190D01*
X122916159Y-56064465D01*
X122913208Y-56064500D01*
X122823165Y-56064500D01*
X122577883Y-56105429D01*
X122342697Y-56186169D01*
X122342688Y-56186172D01*
X122123993Y-56304524D01*
X121927757Y-56457261D01*
X121759333Y-56640217D01*
X121623326Y-56848393D01*
X121523436Y-57076118D01*
X121462392Y-57317175D01*
X121462390Y-57317187D01*
X121441857Y-57564994D01*
X107857280Y-57564994D01*
X107857280Y-52120000D01*
X109815181Y-52120000D01*
X109834447Y-52524450D01*
X109892071Y-52925231D01*
X109987531Y-53318722D01*
X109987534Y-53318733D01*
X110119956Y-53701340D01*
X110119966Y-53701365D01*
X110288168Y-54069675D01*
X110490621Y-54420335D01*
X110490627Y-54420343D01*
X110725485Y-54750154D01*
X110892985Y-54943460D01*
X112383098Y-53453347D01*
X112450076Y-53540635D01*
X112649365Y-53739924D01*
X112736650Y-53806900D01*
X111244928Y-55298622D01*
X111283676Y-55335568D01*
X111283695Y-55335585D01*
X111601968Y-55585877D01*
X111942594Y-55804782D01*
X112302485Y-55990319D01*
X112678383Y-56140806D01*
X112678395Y-56140810D01*
X113066882Y-56254880D01*
X113066899Y-56254884D01*
X113464460Y-56331508D01*
X113464472Y-56331510D01*
X113867554Y-56370000D01*
X114272446Y-56370000D01*
X114675527Y-56331510D01*
X114675539Y-56331508D01*
X115073100Y-56254884D01*
X115073117Y-56254880D01*
X115461604Y-56140810D01*
X115461616Y-56140806D01*
X115837507Y-55990322D01*
X115837511Y-55990320D01*
X116197406Y-55804782D01*
X116538031Y-55585877D01*
X116856314Y-55335578D01*
X116895069Y-55298622D01*
X115403348Y-53806901D01*
X115490635Y-53739924D01*
X115689924Y-53540635D01*
X115756901Y-53453348D01*
X117247012Y-54943459D01*
X117414512Y-54750156D01*
X117414523Y-54750143D01*
X117649372Y-54420343D01*
X117649378Y-54420335D01*
X117851831Y-54069675D01*
X118020033Y-53701365D01*
X118020043Y-53701340D01*
X118152465Y-53318733D01*
X118152468Y-53318722D01*
X118247928Y-52925231D01*
X118305552Y-52524450D01*
X118324818Y-52120000D01*
X177437635Y-52120000D01*
X177456901Y-52524450D01*
X177514525Y-52925231D01*
X177609985Y-53318722D01*
X177609988Y-53318733D01*
X177742410Y-53701340D01*
X177742420Y-53701365D01*
X177910622Y-54069675D01*
X178113075Y-54420335D01*
X178113081Y-54420343D01*
X178347939Y-54750154D01*
X178515439Y-54943460D01*
X180005552Y-53453347D01*
X180072530Y-53540635D01*
X180271819Y-53739924D01*
X180359104Y-53806900D01*
X178867382Y-55298622D01*
X178906130Y-55335568D01*
X178906149Y-55335585D01*
X179224422Y-55585877D01*
X179565048Y-55804782D01*
X179924939Y-55990319D01*
X180300837Y-56140806D01*
X180300849Y-56140810D01*
X180689336Y-56254880D01*
X180689353Y-56254884D01*
X181086914Y-56331508D01*
X181086926Y-56331510D01*
X181490008Y-56370000D01*
X181894900Y-56370000D01*
X182297981Y-56331510D01*
X182297993Y-56331508D01*
X182695554Y-56254884D01*
X182695571Y-56254880D01*
X183084058Y-56140810D01*
X183084070Y-56140806D01*
X183459961Y-55990322D01*
X183459965Y-55990320D01*
X183819860Y-55804782D01*
X184160485Y-55585877D01*
X184478768Y-55335578D01*
X184517523Y-55298622D01*
X183025802Y-53806901D01*
X183113089Y-53739924D01*
X183312378Y-53540635D01*
X183379355Y-53453348D01*
X184869466Y-54943459D01*
X185036966Y-54750156D01*
X185036977Y-54750143D01*
X185271826Y-54420343D01*
X185271832Y-54420335D01*
X185474285Y-54069675D01*
X185642487Y-53701365D01*
X185642497Y-53701340D01*
X185774919Y-53318733D01*
X185774922Y-53318722D01*
X185870382Y-52925231D01*
X185928006Y-52524450D01*
X185947272Y-52120000D01*
X185928006Y-51715549D01*
X185870382Y-51314768D01*
X185774922Y-50921277D01*
X185774919Y-50921266D01*
X185642497Y-50538659D01*
X185642487Y-50538634D01*
X185474285Y-50170324D01*
X185271832Y-49819664D01*
X185271826Y-49819656D01*
X185036977Y-49489856D01*
X185036966Y-49489843D01*
X184869467Y-49296538D01*
X183379354Y-50786650D01*
X183312378Y-50699365D01*
X183113089Y-50500076D01*
X183025802Y-50433098D01*
X184517524Y-48941376D01*
X184478777Y-48904431D01*
X184478758Y-48904414D01*
X184160485Y-48654122D01*
X183819860Y-48435217D01*
X183459965Y-48249679D01*
X183459961Y-48249677D01*
X183084070Y-48099193D01*
X183084058Y-48099189D01*
X182695571Y-47985119D01*
X182695554Y-47985115D01*
X182297993Y-47908491D01*
X182297981Y-47908489D01*
X181894900Y-47870000D01*
X181490008Y-47870000D01*
X181086926Y-47908489D01*
X181086914Y-47908491D01*
X180689353Y-47985115D01*
X180689336Y-47985119D01*
X180300849Y-48099189D01*
X180300837Y-48099193D01*
X179924939Y-48249680D01*
X179565048Y-48435217D01*
X179224422Y-48654122D01*
X178906139Y-48904421D01*
X178906127Y-48904432D01*
X178867383Y-48941375D01*
X178867383Y-48941376D01*
X180359105Y-50433098D01*
X180271819Y-50500076D01*
X180072530Y-50699365D01*
X180005552Y-50786651D01*
X178515440Y-49296539D01*
X178347939Y-49489845D01*
X178113081Y-49819656D01*
X178113075Y-49819664D01*
X177910622Y-50170324D01*
X177742420Y-50538634D01*
X177742410Y-50538659D01*
X177609988Y-50921266D01*
X177609985Y-50921277D01*
X177514525Y-51314768D01*
X177456901Y-51715549D01*
X177437635Y-52120000D01*
X118324818Y-52120000D01*
X118305552Y-51715549D01*
X118247928Y-51314768D01*
X118152468Y-50921277D01*
X118152465Y-50921266D01*
X118020043Y-50538659D01*
X118020033Y-50538634D01*
X117851831Y-50170324D01*
X117649378Y-49819664D01*
X117649372Y-49819656D01*
X117414523Y-49489856D01*
X117414512Y-49489843D01*
X117247013Y-49296538D01*
X115756900Y-50786650D01*
X115689924Y-50699365D01*
X115490635Y-50500076D01*
X115403348Y-50433098D01*
X116895070Y-48941376D01*
X116856323Y-48904431D01*
X116856304Y-48904414D01*
X116538031Y-48654122D01*
X116197406Y-48435217D01*
X115837511Y-48249679D01*
X115837507Y-48249677D01*
X115461616Y-48099193D01*
X115461604Y-48099189D01*
X115073117Y-47985119D01*
X115073100Y-47985115D01*
X114675539Y-47908491D01*
X114675527Y-47908489D01*
X114272446Y-47870000D01*
X113867554Y-47870000D01*
X113464472Y-47908489D01*
X113464460Y-47908491D01*
X113066899Y-47985115D01*
X113066882Y-47985119D01*
X112678395Y-48099189D01*
X112678383Y-48099193D01*
X112302485Y-48249680D01*
X111942594Y-48435217D01*
X111601968Y-48654122D01*
X111283685Y-48904421D01*
X111283673Y-48904432D01*
X111244929Y-48941375D01*
X111244929Y-48941376D01*
X112736651Y-50433098D01*
X112649365Y-50500076D01*
X112450076Y-50699365D01*
X112383098Y-50786651D01*
X110892986Y-49296539D01*
X110725485Y-49489845D01*
X110490627Y-49819656D01*
X110490621Y-49819664D01*
X110288168Y-50170324D01*
X110119966Y-50538634D01*
X110119956Y-50538659D01*
X109987534Y-50921266D01*
X109987531Y-50921277D01*
X109892071Y-51314768D01*
X109834447Y-51715549D01*
X109815181Y-52120000D01*
X107857280Y-52120000D01*
X107857280Y-51419212D01*
X107857376Y-51414344D01*
X107866425Y-51184033D01*
X107875029Y-50965044D01*
X107875790Y-50955374D01*
X107928356Y-50511253D01*
X107929879Y-50501641D01*
X107964318Y-50328505D01*
X108017129Y-50063010D01*
X108019392Y-50053584D01*
X108140787Y-49623152D01*
X108143793Y-49613900D01*
X108298584Y-49194321D01*
X108302307Y-49185335D01*
X108489541Y-48779192D01*
X108493952Y-48770539D01*
X108712468Y-48380352D01*
X108717555Y-48372050D01*
X108896016Y-48104965D01*
X108966014Y-48000205D01*
X108971715Y-47992358D01*
X109248603Y-47641127D01*
X109254894Y-47633761D01*
X109558489Y-47305335D01*
X109565335Y-47298489D01*
X109893761Y-46994894D01*
X109901127Y-46988603D01*
X110252358Y-46711715D01*
X110260205Y-46706014D01*
X110632052Y-46457553D01*
X110640352Y-46452468D01*
X111030539Y-46233952D01*
X111039192Y-46229541D01*
X111445343Y-46042303D01*
X111454321Y-46038584D01*
X111873908Y-45883790D01*
X111883152Y-45880787D01*
X112313584Y-45759392D01*
X112323010Y-45757129D01*
X112761641Y-45669878D01*
X112771253Y-45668356D01*
X113215374Y-45615790D01*
X113225044Y-45615029D01*
X113674345Y-45597376D01*
X113679213Y-45597280D01*
X113716670Y-45597280D01*
X181633330Y-45597280D01*
X181670787Y-45597280D01*
X181675655Y-45597376D01*
G37*
%TD.AperFunction*%
%TD*%
D27*
X142393734Y-81004856D02*
X142250877Y-81052475D01*
X142250877Y-81052475D02*
X142012782Y-81052475D01*
X142012782Y-81052475D02*
X141917544Y-81004856D01*
X141917544Y-81004856D02*
X141869925Y-80957236D01*
X141869925Y-80957236D02*
X141822306Y-80861998D01*
X141822306Y-80861998D02*
X141822306Y-80766760D01*
X141822306Y-80766760D02*
X141869925Y-80671522D01*
X141869925Y-80671522D02*
X141917544Y-80623903D01*
X141917544Y-80623903D02*
X142012782Y-80576284D01*
X142012782Y-80576284D02*
X142203258Y-80528665D01*
X142203258Y-80528665D02*
X142298496Y-80481046D01*
X142298496Y-80481046D02*
X142346115Y-80433427D01*
X142346115Y-80433427D02*
X142393734Y-80338189D01*
X142393734Y-80338189D02*
X142393734Y-80242951D01*
X142393734Y-80242951D02*
X142346115Y-80147713D01*
X142346115Y-80147713D02*
X142298496Y-80100094D01*
X142298496Y-80100094D02*
X142203258Y-80052475D01*
X142203258Y-80052475D02*
X141965163Y-80052475D01*
X141965163Y-80052475D02*
X141822306Y-80100094D01*
X141393734Y-80528665D02*
X141060401Y-80528665D01*
X140917544Y-81052475D02*
X141393734Y-81052475D01*
X141393734Y-81052475D02*
X141393734Y-80052475D01*
X141393734Y-80052475D02*
X140917544Y-80052475D01*
X139917544Y-81052475D02*
X140250877Y-80576284D01*
X140488972Y-81052475D02*
X140488972Y-80052475D01*
X140488972Y-80052475D02*
X140108020Y-80052475D01*
X140108020Y-80052475D02*
X140012782Y-80100094D01*
X140012782Y-80100094D02*
X139965163Y-80147713D01*
X139965163Y-80147713D02*
X139917544Y-80242951D01*
X139917544Y-80242951D02*
X139917544Y-80385808D01*
X139917544Y-80385808D02*
X139965163Y-80481046D01*
X139965163Y-80481046D02*
X140012782Y-80528665D01*
X140012782Y-80528665D02*
X140108020Y-80576284D01*
X140108020Y-80576284D02*
X140488972Y-80576284D01*
X139631829Y-80052475D02*
X139298496Y-81052475D01*
X139298496Y-81052475D02*
X138965163Y-80052475D01*
X138441353Y-80052475D02*
X138250877Y-80052475D01*
X138250877Y-80052475D02*
X138155639Y-80100094D01*
X138155639Y-80100094D02*
X138060401Y-80195332D01*
X138060401Y-80195332D02*
X138012782Y-80385808D01*
X138012782Y-80385808D02*
X138012782Y-80719141D01*
X138012782Y-80719141D02*
X138060401Y-80909617D01*
X138060401Y-80909617D02*
X138155639Y-81004856D01*
X138155639Y-81004856D02*
X138250877Y-81052475D01*
X138250877Y-81052475D02*
X138441353Y-81052475D01*
X138441353Y-81052475D02*
X138536591Y-81004856D01*
X138536591Y-81004856D02*
X138631829Y-80909617D01*
X138631829Y-80909617D02*
X138679448Y-80719141D01*
X138679448Y-80719141D02*
X138679448Y-80385808D01*
X138679448Y-80385808D02*
X138631829Y-80195332D01*
X138631829Y-80195332D02*
X138536591Y-80100094D01*
X138536591Y-80100094D02*
X138441353Y-80052475D01*
X141822306Y-81710038D02*
X141917544Y-81662419D01*
X141917544Y-81662419D02*
X142060401Y-81662419D01*
X142060401Y-81662419D02*
X142203258Y-81710038D01*
X142203258Y-81710038D02*
X142298496Y-81805276D01*
X142298496Y-81805276D02*
X142346115Y-81900514D01*
X142346115Y-81900514D02*
X142393734Y-82090990D01*
X142393734Y-82090990D02*
X142393734Y-82233847D01*
X142393734Y-82233847D02*
X142346115Y-82424323D01*
X142346115Y-82424323D02*
X142298496Y-82519561D01*
X142298496Y-82519561D02*
X142203258Y-82614800D01*
X142203258Y-82614800D02*
X142060401Y-82662419D01*
X142060401Y-82662419D02*
X141965163Y-82662419D01*
X141965163Y-82662419D02*
X141822306Y-82614800D01*
X141822306Y-82614800D02*
X141774687Y-82567180D01*
X141774687Y-82567180D02*
X141774687Y-82233847D01*
X141774687Y-82233847D02*
X141965163Y-82233847D01*
X141346115Y-82662419D02*
X141346115Y-81662419D01*
X141346115Y-81662419D02*
X140965163Y-81662419D01*
X140965163Y-81662419D02*
X140869925Y-81710038D01*
X140869925Y-81710038D02*
X140822306Y-81757657D01*
X140822306Y-81757657D02*
X140774687Y-81852895D01*
X140774687Y-81852895D02*
X140774687Y-81995752D01*
X140774687Y-81995752D02*
X140822306Y-82090990D01*
X140822306Y-82090990D02*
X140869925Y-82138609D01*
X140869925Y-82138609D02*
X140965163Y-82186228D01*
X140965163Y-82186228D02*
X141346115Y-82186228D01*
X140346115Y-82662419D02*
X140346115Y-81662419D01*
X139679449Y-81662419D02*
X139488973Y-81662419D01*
X139488973Y-81662419D02*
X139393735Y-81710038D01*
X139393735Y-81710038D02*
X139298497Y-81805276D01*
X139298497Y-81805276D02*
X139250878Y-81995752D01*
X139250878Y-81995752D02*
X139250878Y-82329085D01*
X139250878Y-82329085D02*
X139298497Y-82519561D01*
X139298497Y-82519561D02*
X139393735Y-82614800D01*
X139393735Y-82614800D02*
X139488973Y-82662419D01*
X139488973Y-82662419D02*
X139679449Y-82662419D01*
X139679449Y-82662419D02*
X139774687Y-82614800D01*
X139774687Y-82614800D02*
X139869925Y-82519561D01*
X139869925Y-82519561D02*
X139917544Y-82329085D01*
X139917544Y-82329085D02*
X139917544Y-81995752D01*
X139917544Y-81995752D02*
X139869925Y-81805276D01*
X139869925Y-81805276D02*
X139774687Y-81710038D01*
X139774687Y-81710038D02*
X139679449Y-81662419D01*
X138393735Y-81995752D02*
X138393735Y-82662419D01*
X138631830Y-81614800D02*
X138869925Y-82329085D01*
X138869925Y-82329085D02*
X138250878Y-82329085D01*
X137869925Y-82281466D02*
X137108021Y-82281466D01*
X136631830Y-82662419D02*
X136631830Y-81662419D01*
X136631830Y-81662419D02*
X136250878Y-81662419D01*
X136250878Y-81662419D02*
X136155640Y-81710038D01*
X136155640Y-81710038D02*
X136108021Y-81757657D01*
X136108021Y-81757657D02*
X136060402Y-81852895D01*
X136060402Y-81852895D02*
X136060402Y-81995752D01*
X136060402Y-81995752D02*
X136108021Y-82090990D01*
X136108021Y-82090990D02*
X136155640Y-82138609D01*
X136155640Y-82138609D02*
X136250878Y-82186228D01*
X136250878Y-82186228D02*
X136631830Y-82186228D01*
X135727068Y-81662419D02*
X135488973Y-82662419D01*
X135488973Y-82662419D02*
X135298497Y-81948133D01*
X135298497Y-81948133D02*
X135108021Y-82662419D01*
X135108021Y-82662419D02*
X134869926Y-81662419D01*
X134488973Y-82662419D02*
X134488973Y-81662419D01*
X134488973Y-81662419D02*
X134155640Y-82376704D01*
X134155640Y-82376704D02*
X133822307Y-81662419D01*
X133822307Y-81662419D02*
X133822307Y-82662419D01*
X132631830Y-82614800D02*
X132488973Y-82662419D01*
X132488973Y-82662419D02*
X132250878Y-82662419D01*
X132250878Y-82662419D02*
X132155640Y-82614800D01*
X132155640Y-82614800D02*
X132108021Y-82567180D01*
X132108021Y-82567180D02*
X132060402Y-82471942D01*
X132060402Y-82471942D02*
X132060402Y-82376704D01*
X132060402Y-82376704D02*
X132108021Y-82281466D01*
X132108021Y-82281466D02*
X132155640Y-82233847D01*
X132155640Y-82233847D02*
X132250878Y-82186228D01*
X132250878Y-82186228D02*
X132441354Y-82138609D01*
X132441354Y-82138609D02*
X132536592Y-82090990D01*
X132536592Y-82090990D02*
X132584211Y-82043371D01*
X132584211Y-82043371D02*
X132631830Y-81948133D01*
X132631830Y-81948133D02*
X132631830Y-81852895D01*
X132631830Y-81852895D02*
X132584211Y-81757657D01*
X132584211Y-81757657D02*
X132536592Y-81710038D01*
X132536592Y-81710038D02*
X132441354Y-81662419D01*
X132441354Y-81662419D02*
X132203259Y-81662419D01*
X132203259Y-81662419D02*
X132060402Y-81710038D01*
X131631830Y-82138609D02*
X131298497Y-82138609D01*
X131155640Y-82662419D02*
X131631830Y-82662419D01*
X131631830Y-82662419D02*
X131631830Y-81662419D01*
X131631830Y-81662419D02*
X131155640Y-81662419D01*
X130155640Y-82662419D02*
X130488973Y-82186228D01*
X130727068Y-82662419D02*
X130727068Y-81662419D01*
X130727068Y-81662419D02*
X130346116Y-81662419D01*
X130346116Y-81662419D02*
X130250878Y-81710038D01*
X130250878Y-81710038D02*
X130203259Y-81757657D01*
X130203259Y-81757657D02*
X130155640Y-81852895D01*
X130155640Y-81852895D02*
X130155640Y-81995752D01*
X130155640Y-81995752D02*
X130203259Y-82090990D01*
X130203259Y-82090990D02*
X130250878Y-82138609D01*
X130250878Y-82138609D02*
X130346116Y-82186228D01*
X130346116Y-82186228D02*
X130727068Y-82186228D01*
X129869925Y-81662419D02*
X129536592Y-82662419D01*
X129536592Y-82662419D02*
X129203259Y-81662419D01*
X128679449Y-81662419D02*
X128488973Y-81662419D01*
X128488973Y-81662419D02*
X128393735Y-81710038D01*
X128393735Y-81710038D02*
X128298497Y-81805276D01*
X128298497Y-81805276D02*
X128250878Y-81995752D01*
X128250878Y-81995752D02*
X128250878Y-82329085D01*
X128250878Y-82329085D02*
X128298497Y-82519561D01*
X128298497Y-82519561D02*
X128393735Y-82614800D01*
X128393735Y-82614800D02*
X128488973Y-82662419D01*
X128488973Y-82662419D02*
X128679449Y-82662419D01*
X128679449Y-82662419D02*
X128774687Y-82614800D01*
X128774687Y-82614800D02*
X128869925Y-82519561D01*
X128869925Y-82519561D02*
X128917544Y-82329085D01*
X128917544Y-82329085D02*
X128917544Y-81995752D01*
X128917544Y-81995752D02*
X128869925Y-81805276D01*
X128869925Y-81805276D02*
X128774687Y-81710038D01*
X128774687Y-81710038D02*
X128679449Y-81662419D01*
D28*
X127650000Y-79600000D02*
X129300000Y-79600000D01*
X129900000Y-79600000D02*
X131550000Y-79600000D01*
X132150000Y-79600000D02*
X133800000Y-79600000D01*
X134400000Y-79600000D02*
X136050000Y-79600000D01*
X136650000Y-79600000D02*
X138300000Y-79600000D01*
X138900000Y-79600000D02*
X140550000Y-79600000D01*
X141150000Y-79600000D02*
X142800000Y-79600000D01*
X143400000Y-79600000D02*
X143590000Y-79600000D01*
X143590000Y-79600000D02*
X143590000Y-81250000D01*
X143590000Y-81850000D02*
X143590000Y-83390000D01*
X143590000Y-83390000D02*
X141940000Y-83390000D01*
X141340000Y-83390000D02*
X139690000Y-83390000D01*
X139090000Y-83390000D02*
X137440000Y-83390000D01*
X136840000Y-83390000D02*
X135190000Y-83390000D01*
X134590000Y-83390000D02*
X132940000Y-83390000D01*
X132340000Y-83390000D02*
X130690000Y-83390000D01*
X130090000Y-83390000D02*
X128440000Y-83390000D01*
X127840000Y-83390000D02*
X127650000Y-83390000D01*
X127650000Y-83390000D02*
X127650000Y-81740000D01*
X127650000Y-81140000D02*
X127650000Y-79600000D01*
D27*
X142002306Y-72840150D02*
X142097544Y-72792531D01*
X142097544Y-72792531D02*
X142240401Y-72792531D01*
X142240401Y-72792531D02*
X142383258Y-72840150D01*
X142383258Y-72840150D02*
X142478496Y-72935388D01*
X142478496Y-72935388D02*
X142526115Y-73030626D01*
X142526115Y-73030626D02*
X142573734Y-73221102D01*
X142573734Y-73221102D02*
X142573734Y-73363959D01*
X142573734Y-73363959D02*
X142526115Y-73554435D01*
X142526115Y-73554435D02*
X142478496Y-73649673D01*
X142478496Y-73649673D02*
X142383258Y-73744912D01*
X142383258Y-73744912D02*
X142240401Y-73792531D01*
X142240401Y-73792531D02*
X142145163Y-73792531D01*
X142145163Y-73792531D02*
X142002306Y-73744912D01*
X142002306Y-73744912D02*
X141954687Y-73697292D01*
X141954687Y-73697292D02*
X141954687Y-73363959D01*
X141954687Y-73363959D02*
X142145163Y-73363959D01*
X141335639Y-73316340D02*
X141335639Y-73792531D01*
X141668972Y-72792531D02*
X141335639Y-73316340D01*
X141335639Y-73316340D02*
X141002306Y-72792531D01*
X140668972Y-73411578D02*
X139907068Y-73411578D01*
X138954687Y-72792531D02*
X139430877Y-72792531D01*
X139430877Y-72792531D02*
X139478496Y-73268721D01*
X139478496Y-73268721D02*
X139430877Y-73221102D01*
X139430877Y-73221102D02*
X139335639Y-73173483D01*
X139335639Y-73173483D02*
X139097544Y-73173483D01*
X139097544Y-73173483D02*
X139002306Y-73221102D01*
X139002306Y-73221102D02*
X138954687Y-73268721D01*
X138954687Y-73268721D02*
X138907068Y-73363959D01*
X138907068Y-73363959D02*
X138907068Y-73602054D01*
X138907068Y-73602054D02*
X138954687Y-73697292D01*
X138954687Y-73697292D02*
X139002306Y-73744912D01*
X139002306Y-73744912D02*
X139097544Y-73792531D01*
X139097544Y-73792531D02*
X139335639Y-73792531D01*
X139335639Y-73792531D02*
X139430877Y-73744912D01*
X139430877Y-73744912D02*
X139478496Y-73697292D01*
X138526115Y-72887769D02*
X138478496Y-72840150D01*
X138478496Y-72840150D02*
X138383258Y-72792531D01*
X138383258Y-72792531D02*
X138145163Y-72792531D01*
X138145163Y-72792531D02*
X138049925Y-72840150D01*
X138049925Y-72840150D02*
X138002306Y-72887769D01*
X138002306Y-72887769D02*
X137954687Y-72983007D01*
X137954687Y-72983007D02*
X137954687Y-73078245D01*
X137954687Y-73078245D02*
X138002306Y-73221102D01*
X138002306Y-73221102D02*
X138573734Y-73792531D01*
X138573734Y-73792531D02*
X137954687Y-73792531D01*
X137002306Y-73792531D02*
X137573734Y-73792531D01*
X137288020Y-73792531D02*
X137288020Y-72792531D01*
X137288020Y-72792531D02*
X137383258Y-72935388D01*
X137383258Y-72935388D02*
X137478496Y-73030626D01*
X137478496Y-73030626D02*
X137573734Y-73078245D01*
X142002306Y-74450094D02*
X142097544Y-74402475D01*
X142097544Y-74402475D02*
X142240401Y-74402475D01*
X142240401Y-74402475D02*
X142383258Y-74450094D01*
X142383258Y-74450094D02*
X142478496Y-74545332D01*
X142478496Y-74545332D02*
X142526115Y-74640570D01*
X142526115Y-74640570D02*
X142573734Y-74831046D01*
X142573734Y-74831046D02*
X142573734Y-74973903D01*
X142573734Y-74973903D02*
X142526115Y-75164379D01*
X142526115Y-75164379D02*
X142478496Y-75259617D01*
X142478496Y-75259617D02*
X142383258Y-75354856D01*
X142383258Y-75354856D02*
X142240401Y-75402475D01*
X142240401Y-75402475D02*
X142145163Y-75402475D01*
X142145163Y-75402475D02*
X142002306Y-75354856D01*
X142002306Y-75354856D02*
X141954687Y-75307236D01*
X141954687Y-75307236D02*
X141954687Y-74973903D01*
X141954687Y-74973903D02*
X142145163Y-74973903D01*
X141526115Y-75402475D02*
X141526115Y-74402475D01*
X141526115Y-74402475D02*
X141145163Y-74402475D01*
X141145163Y-74402475D02*
X141049925Y-74450094D01*
X141049925Y-74450094D02*
X141002306Y-74497713D01*
X141002306Y-74497713D02*
X140954687Y-74592951D01*
X140954687Y-74592951D02*
X140954687Y-74735808D01*
X140954687Y-74735808D02*
X141002306Y-74831046D01*
X141002306Y-74831046D02*
X141049925Y-74878665D01*
X141049925Y-74878665D02*
X141145163Y-74926284D01*
X141145163Y-74926284D02*
X141526115Y-74926284D01*
X140526115Y-75402475D02*
X140526115Y-74402475D01*
X139859449Y-74402475D02*
X139668973Y-74402475D01*
X139668973Y-74402475D02*
X139573735Y-74450094D01*
X139573735Y-74450094D02*
X139478497Y-74545332D01*
X139478497Y-74545332D02*
X139430878Y-74735808D01*
X139430878Y-74735808D02*
X139430878Y-75069141D01*
X139430878Y-75069141D02*
X139478497Y-75259617D01*
X139478497Y-75259617D02*
X139573735Y-75354856D01*
X139573735Y-75354856D02*
X139668973Y-75402475D01*
X139668973Y-75402475D02*
X139859449Y-75402475D01*
X139859449Y-75402475D02*
X139954687Y-75354856D01*
X139954687Y-75354856D02*
X140049925Y-75259617D01*
X140049925Y-75259617D02*
X140097544Y-75069141D01*
X140097544Y-75069141D02*
X140097544Y-74735808D01*
X140097544Y-74735808D02*
X140049925Y-74545332D01*
X140049925Y-74545332D02*
X139954687Y-74450094D01*
X139954687Y-74450094D02*
X139859449Y-74402475D01*
X139049925Y-74497713D02*
X139002306Y-74450094D01*
X139002306Y-74450094D02*
X138907068Y-74402475D01*
X138907068Y-74402475D02*
X138668973Y-74402475D01*
X138668973Y-74402475D02*
X138573735Y-74450094D01*
X138573735Y-74450094D02*
X138526116Y-74497713D01*
X138526116Y-74497713D02*
X138478497Y-74592951D01*
X138478497Y-74592951D02*
X138478497Y-74688189D01*
X138478497Y-74688189D02*
X138526116Y-74831046D01*
X138526116Y-74831046D02*
X139097544Y-75402475D01*
X139097544Y-75402475D02*
X138478497Y-75402475D01*
X138097544Y-74497713D02*
X138049925Y-74450094D01*
X138049925Y-74450094D02*
X137954687Y-74402475D01*
X137954687Y-74402475D02*
X137716592Y-74402475D01*
X137716592Y-74402475D02*
X137621354Y-74450094D01*
X137621354Y-74450094D02*
X137573735Y-74497713D01*
X137573735Y-74497713D02*
X137526116Y-74592951D01*
X137526116Y-74592951D02*
X137526116Y-74688189D01*
X137526116Y-74688189D02*
X137573735Y-74831046D01*
X137573735Y-74831046D02*
X138145163Y-75402475D01*
X138145163Y-75402475D02*
X137526116Y-75402475D01*
X137097544Y-75021522D02*
X136335640Y-75021522D01*
X135907068Y-75354856D02*
X135764211Y-75402475D01*
X135764211Y-75402475D02*
X135526116Y-75402475D01*
X135526116Y-75402475D02*
X135430878Y-75354856D01*
X135430878Y-75354856D02*
X135383259Y-75307236D01*
X135383259Y-75307236D02*
X135335640Y-75211998D01*
X135335640Y-75211998D02*
X135335640Y-75116760D01*
X135335640Y-75116760D02*
X135383259Y-75021522D01*
X135383259Y-75021522D02*
X135430878Y-74973903D01*
X135430878Y-74973903D02*
X135526116Y-74926284D01*
X135526116Y-74926284D02*
X135716592Y-74878665D01*
X135716592Y-74878665D02*
X135811830Y-74831046D01*
X135811830Y-74831046D02*
X135859449Y-74783427D01*
X135859449Y-74783427D02*
X135907068Y-74688189D01*
X135907068Y-74688189D02*
X135907068Y-74592951D01*
X135907068Y-74592951D02*
X135859449Y-74497713D01*
X135859449Y-74497713D02*
X135811830Y-74450094D01*
X135811830Y-74450094D02*
X135716592Y-74402475D01*
X135716592Y-74402475D02*
X135478497Y-74402475D01*
X135478497Y-74402475D02*
X135335640Y-74450094D01*
X134335640Y-75307236D02*
X134383259Y-75354856D01*
X134383259Y-75354856D02*
X134526116Y-75402475D01*
X134526116Y-75402475D02*
X134621354Y-75402475D01*
X134621354Y-75402475D02*
X134764211Y-75354856D01*
X134764211Y-75354856D02*
X134859449Y-75259617D01*
X134859449Y-75259617D02*
X134907068Y-75164379D01*
X134907068Y-75164379D02*
X134954687Y-74973903D01*
X134954687Y-74973903D02*
X134954687Y-74831046D01*
X134954687Y-74831046D02*
X134907068Y-74640570D01*
X134907068Y-74640570D02*
X134859449Y-74545332D01*
X134859449Y-74545332D02*
X134764211Y-74450094D01*
X134764211Y-74450094D02*
X134621354Y-74402475D01*
X134621354Y-74402475D02*
X134526116Y-74402475D01*
X134526116Y-74402475D02*
X134383259Y-74450094D01*
X134383259Y-74450094D02*
X134335640Y-74497713D01*
X133430878Y-75402475D02*
X133907068Y-75402475D01*
X133907068Y-75402475D02*
X133907068Y-74402475D01*
X142002306Y-76060038D02*
X142097544Y-76012419D01*
X142097544Y-76012419D02*
X142240401Y-76012419D01*
X142240401Y-76012419D02*
X142383258Y-76060038D01*
X142383258Y-76060038D02*
X142478496Y-76155276D01*
X142478496Y-76155276D02*
X142526115Y-76250514D01*
X142526115Y-76250514D02*
X142573734Y-76440990D01*
X142573734Y-76440990D02*
X142573734Y-76583847D01*
X142573734Y-76583847D02*
X142526115Y-76774323D01*
X142526115Y-76774323D02*
X142478496Y-76869561D01*
X142478496Y-76869561D02*
X142383258Y-76964800D01*
X142383258Y-76964800D02*
X142240401Y-77012419D01*
X142240401Y-77012419D02*
X142145163Y-77012419D01*
X142145163Y-77012419D02*
X142002306Y-76964800D01*
X142002306Y-76964800D02*
X141954687Y-76917180D01*
X141954687Y-76917180D02*
X141954687Y-76583847D01*
X141954687Y-76583847D02*
X142145163Y-76583847D01*
X141526115Y-77012419D02*
X141526115Y-76012419D01*
X141526115Y-76012419D02*
X141145163Y-76012419D01*
X141145163Y-76012419D02*
X141049925Y-76060038D01*
X141049925Y-76060038D02*
X141002306Y-76107657D01*
X141002306Y-76107657D02*
X140954687Y-76202895D01*
X140954687Y-76202895D02*
X140954687Y-76345752D01*
X140954687Y-76345752D02*
X141002306Y-76440990D01*
X141002306Y-76440990D02*
X141049925Y-76488609D01*
X141049925Y-76488609D02*
X141145163Y-76536228D01*
X141145163Y-76536228D02*
X141526115Y-76536228D01*
X140526115Y-77012419D02*
X140526115Y-76012419D01*
X139859449Y-76012419D02*
X139668973Y-76012419D01*
X139668973Y-76012419D02*
X139573735Y-76060038D01*
X139573735Y-76060038D02*
X139478497Y-76155276D01*
X139478497Y-76155276D02*
X139430878Y-76345752D01*
X139430878Y-76345752D02*
X139430878Y-76679085D01*
X139430878Y-76679085D02*
X139478497Y-76869561D01*
X139478497Y-76869561D02*
X139573735Y-76964800D01*
X139573735Y-76964800D02*
X139668973Y-77012419D01*
X139668973Y-77012419D02*
X139859449Y-77012419D01*
X139859449Y-77012419D02*
X139954687Y-76964800D01*
X139954687Y-76964800D02*
X140049925Y-76869561D01*
X140049925Y-76869561D02*
X140097544Y-76679085D01*
X140097544Y-76679085D02*
X140097544Y-76345752D01*
X140097544Y-76345752D02*
X140049925Y-76155276D01*
X140049925Y-76155276D02*
X139954687Y-76060038D01*
X139954687Y-76060038D02*
X139859449Y-76012419D01*
X139049925Y-76107657D02*
X139002306Y-76060038D01*
X139002306Y-76060038D02*
X138907068Y-76012419D01*
X138907068Y-76012419D02*
X138668973Y-76012419D01*
X138668973Y-76012419D02*
X138573735Y-76060038D01*
X138573735Y-76060038D02*
X138526116Y-76107657D01*
X138526116Y-76107657D02*
X138478497Y-76202895D01*
X138478497Y-76202895D02*
X138478497Y-76298133D01*
X138478497Y-76298133D02*
X138526116Y-76440990D01*
X138526116Y-76440990D02*
X139097544Y-77012419D01*
X139097544Y-77012419D02*
X138478497Y-77012419D01*
X137526116Y-77012419D02*
X138097544Y-77012419D01*
X137811830Y-77012419D02*
X137811830Y-76012419D01*
X137811830Y-76012419D02*
X137907068Y-76155276D01*
X137907068Y-76155276D02*
X138002306Y-76250514D01*
X138002306Y-76250514D02*
X138097544Y-76298133D01*
X137097544Y-76631466D02*
X136335640Y-76631466D01*
X135907068Y-76964800D02*
X135764211Y-77012419D01*
X135764211Y-77012419D02*
X135526116Y-77012419D01*
X135526116Y-77012419D02*
X135430878Y-76964800D01*
X135430878Y-76964800D02*
X135383259Y-76917180D01*
X135383259Y-76917180D02*
X135335640Y-76821942D01*
X135335640Y-76821942D02*
X135335640Y-76726704D01*
X135335640Y-76726704D02*
X135383259Y-76631466D01*
X135383259Y-76631466D02*
X135430878Y-76583847D01*
X135430878Y-76583847D02*
X135526116Y-76536228D01*
X135526116Y-76536228D02*
X135716592Y-76488609D01*
X135716592Y-76488609D02*
X135811830Y-76440990D01*
X135811830Y-76440990D02*
X135859449Y-76393371D01*
X135859449Y-76393371D02*
X135907068Y-76298133D01*
X135907068Y-76298133D02*
X135907068Y-76202895D01*
X135907068Y-76202895D02*
X135859449Y-76107657D01*
X135859449Y-76107657D02*
X135811830Y-76060038D01*
X135811830Y-76060038D02*
X135716592Y-76012419D01*
X135716592Y-76012419D02*
X135478497Y-76012419D01*
X135478497Y-76012419D02*
X135335640Y-76060038D01*
X134907068Y-77012419D02*
X134907068Y-76012419D01*
X134907068Y-76012419D02*
X134668973Y-76012419D01*
X134668973Y-76012419D02*
X134526116Y-76060038D01*
X134526116Y-76060038D02*
X134430878Y-76155276D01*
X134430878Y-76155276D02*
X134383259Y-76250514D01*
X134383259Y-76250514D02*
X134335640Y-76440990D01*
X134335640Y-76440990D02*
X134335640Y-76583847D01*
X134335640Y-76583847D02*
X134383259Y-76774323D01*
X134383259Y-76774323D02*
X134430878Y-76869561D01*
X134430878Y-76869561D02*
X134526116Y-76964800D01*
X134526116Y-76964800D02*
X134668973Y-77012419D01*
X134668973Y-77012419D02*
X134907068Y-77012419D01*
X133954687Y-76726704D02*
X133478497Y-76726704D01*
X134049925Y-77012419D02*
X133716592Y-76012419D01*
X133716592Y-76012419D02*
X133383259Y-77012419D01*
D28*
X132310000Y-72030000D02*
X133960000Y-72030000D01*
X134560000Y-72030000D02*
X136210000Y-72030000D01*
X136810000Y-72030000D02*
X138460000Y-72030000D01*
X139060000Y-72030000D02*
X140710000Y-72030000D01*
X141310000Y-72030000D02*
X142960000Y-72030000D01*
X143510000Y-72030000D02*
X143510000Y-73680000D01*
X143510000Y-74280000D02*
X143510000Y-75930000D01*
X143510000Y-76530000D02*
X143510000Y-78180000D01*
X143510000Y-78570000D02*
X141860000Y-78570000D01*
X141260000Y-78570000D02*
X139610000Y-78570000D01*
X139010000Y-78570000D02*
X137360000Y-78570000D01*
X136760000Y-78570000D02*
X135110000Y-78570000D01*
X134510000Y-78570000D02*
X132860000Y-78570000D01*
X132310000Y-78570000D02*
X132310000Y-76920000D01*
X132310000Y-76320000D02*
X132310000Y-74670000D01*
X132310000Y-74070000D02*
X132310000Y-72420000D01*
D14*
%TO.P,U2,1,VI*%
%TO.N,7.4V1*%
X181500000Y-64430000D03*
D15*
%TO.P,U2,2,GND*%
%TO.N,GND*%
X178960000Y-64430000D03*
%TO.P,U2,3,VO*%
%TO.N,5V*%
X176420000Y-64430000D03*
%TD*%
D16*
%TO.P,U1,1,3V3*%
%TO.N,unconnected-(U1-3V3-Pad1)*%
X148347500Y-93125000D03*
D17*
%TO.P,U1,2,GND*%
%TO.N,GND*%
X148347500Y-90585000D03*
%TO.P,U1,3,D15*%
%TO.N,unconnected-(U1-D15-Pad3)*%
X148347500Y-88045000D03*
%TO.P,U1,4,D2*%
%TO.N,unconnected-(U1-D2-Pad4)*%
X148347500Y-85505000D03*
%TO.P,U1,5,D4*%
%TO.N,SERVO*%
X148347500Y-82965000D03*
%TO.P,U1,6,RX2*%
%TO.N,unconnected-(U1-RX2-Pad6)*%
X148347500Y-80425000D03*
%TO.P,U1,7,TX2*%
%TO.N,unconnected-(U1-TX2-Pad7)*%
X148347500Y-77885000D03*
%TO.P,U1,8,D5*%
%TO.N,unconnected-(U1-D5-Pad8)*%
X148347500Y-75345000D03*
%TO.P,U1,9,D18*%
%TO.N,unconnected-(U1-D18-Pad9)*%
X148347500Y-72805000D03*
%TO.P,U1,10,D19*%
%TO.N,unconnected-(U1-D19-Pad10)*%
X148347500Y-70265000D03*
%TO.P,U1,11,D21*%
%TO.N,SDA*%
X148347500Y-67725000D03*
%TO.P,U1,12,RX0*%
%TO.N,unconnected-(U1-RX0-Pad12)*%
X148347500Y-65185000D03*
%TO.P,U1,13,TX0*%
%TO.N,unconnected-(U1-TX0-Pad13)*%
X148347500Y-62645000D03*
%TO.P,U1,14,D22*%
%TO.N,SCL*%
X148347500Y-60105000D03*
%TO.P,U1,15,D23*%
%TO.N,unconnected-(U1-D23-Pad15)*%
X148347500Y-57565000D03*
%TO.P,U1,16,EN*%
%TO.N,unconnected-(U1-EN-Pad16)*%
X122947500Y-57565000D03*
%TO.P,U1,17,VP*%
%TO.N,unconnected-(U1-VP-Pad17)*%
X122947500Y-60105000D03*
%TO.P,U1,18,VN*%
%TO.N,unconnected-(U1-VN-Pad18)*%
X122947500Y-62645000D03*
%TO.P,U1,19,D34*%
%TO.N,unconnected-(U1-D34-Pad19)*%
X122947500Y-65185000D03*
%TO.P,U1,20,D35*%
%TO.N,unconnected-(U1-D35-Pad20)*%
X122947500Y-67725000D03*
%TO.P,U1,21,D32*%
%TO.N,unconnected-(U1-D32-Pad21)*%
X122947500Y-70265000D03*
%TO.P,U1,22,D33*%
%TO.N,unconnected-(U1-D33-Pad22)*%
X122947500Y-72805000D03*
%TO.P,U1,23,D25*%
%TO.N,unconnected-(U1-D25-Pad23)*%
X122947500Y-75345000D03*
%TO.P,U1,24,D26*%
%TO.N,unconnected-(U1-D26-Pad24)*%
X122947500Y-77885000D03*
%TO.P,U1,25,D27*%
%TO.N,unconnected-(U1-D27-Pad25)*%
X122947500Y-80425000D03*
%TO.P,U1,26,D14*%
%TO.N,unconnected-(U1-D14-Pad26)*%
X122947500Y-82965000D03*
%TO.P,U1,27,D12*%
%TO.N,unconnected-(U1-D12-Pad27)*%
X122947500Y-85505000D03*
%TO.P,U1,28,D13*%
%TO.N,unconnected-(U1-D13-Pad28)*%
X122947500Y-88045000D03*
%TO.P,U1,29,GND*%
%TO.N,GND*%
X122947500Y-90585000D03*
%TO.P,U1,30,VIN*%
%TO.N,5V*%
X122947500Y-93125000D03*
%TD*%
D29*
%TO.P,R2,1*%
%TO.N,7.4V1*%
X173450000Y-74580000D03*
%TO.P,R2,2*%
%TO.N,Net-(D2-A)*%
X173450000Y-76405000D03*
%TD*%
D18*
%TO.P,J6,1,Pin_1*%
%TO.N,7.4Vin1*%
X177160000Y-89520000D03*
D19*
%TO.P,J6,2,Pin_2*%
%TO.N,SERVO*%
X177160000Y-90520000D03*
%TO.P,J6,3,Pin_3*%
%TO.N,GND*%
X177160000Y-91520000D03*
%TD*%
D20*
%TO.P,J2,1,Pin_1*%
%TO.N,7.4Vin1*%
X181370000Y-79660000D03*
D21*
%TO.P,J2,2,Pin_2*%
%TO.N,7.4V1*%
X181370000Y-74580000D03*
%TD*%
D22*
%TO.P,J1,1,Pin_1*%
%TO.N,GND*%
X162380000Y-101560000D03*
D23*
%TO.P,J1,2,Pin_2*%
%TO.N,7.4Vin1*%
X169580000Y-101560000D03*
%TD*%
D24*
%TO.P,H4,1,1*%
%TO.N,GND*%
X181692454Y-52120000D03*
%TD*%
%TO.P,H3,1,1*%
%TO.N,GND*%
X181340000Y-103640000D03*
%TD*%
%TO.P,H2,1,1*%
%TO.N,GND*%
X114070000Y-103400000D03*
%TD*%
%TO.P,H1,1,1*%
%TO.N,GND*%
X114070000Y-52120000D03*
%TD*%
D30*
%TO.P,D2,2,A*%
%TO.N,Net-(D2-A)*%
X173450000Y-78212500D03*
%TO.P,D2,1,K*%
%TO.N,GND*%
X173450000Y-80087500D03*
%TD*%
D31*
%TO.P,C2,1*%
%TO.N,5V*%
X168770000Y-57220000D03*
%TO.P,C2,2*%
%TO.N,GND*%
X170670000Y-57220000D03*
%TD*%
D32*
%TO.P,C1,1*%
%TO.N,7.4V1*%
X179630000Y-69870000D03*
%TO.P,C1,2*%
%TO.N,GND*%
X177730000Y-69870000D03*
%TD*%
D25*
%TO.P,ACC1,AD0,AD0*%
%TO.N,unconnected-(ACC1-PadAD0)*%
X156000000Y-80170000D03*
%TO.P,ACC1,GND,GND*%
%TO.N,GND*%
X156000000Y-67470000D03*
%TO.P,ACC1,INT,INT*%
%TO.N,unconnected-(ACC1-PadINT)*%
X156000000Y-82710000D03*
%TO.P,ACC1,SCL,SCL*%
%TO.N,SCL*%
X156000000Y-70010000D03*
%TO.P,ACC1,SDA,SDA*%
%TO.N,SDA*%
X156000000Y-72550000D03*
%TO.P,ACC1,VCC,VCC*%
%TO.N,5V*%
X156000000Y-64930000D03*
%TO.P,ACC1,XCL,XCL*%
%TO.N,unconnected-(ACC1-PadXCL)*%
X156000000Y-77630000D03*
%TO.P,ACC1,XDA,XDA*%
%TO.N,unconnected-(ACC1-PadXDA)*%
X156000000Y-75090000D03*
%TD*%
D26*
%TO.N,GND*%
X170690000Y-55020000D03*
X176080000Y-69820000D03*
X173460000Y-81997500D03*
%TD*%
D33*
%TO.N,7.4Vin1*%
X180590000Y-85840000D02*
X181370000Y-86620000D01*
X180560000Y-85840000D02*
X180590000Y-85840000D01*
X181370000Y-86620000D02*
X181370000Y-92010000D01*
X181370000Y-85840000D02*
X181370000Y-86620000D01*
X180560000Y-85840000D02*
X181370000Y-85030000D01*
X181370000Y-85030000D02*
X181370000Y-85840000D01*
X180450000Y-85840000D02*
X178030000Y-85840000D01*
X181370000Y-79660000D02*
X181370000Y-85030000D01*
X180450000Y-85840000D02*
X180560000Y-85840000D01*
X181370000Y-85840000D02*
X180450000Y-85840000D01*
X177140000Y-86730000D02*
X177140000Y-89425000D01*
X178030000Y-85840000D02*
X177140000Y-86730000D01*
D34*
%TO.N,Net-(D2-A)*%
X173450000Y-76405000D02*
X173450000Y-78212500D01*
%TO.N,7.4V1*%
X173490000Y-74540000D02*
X181330000Y-74540000D01*
D35*
%TO.N,SERVO*%
X177160000Y-90520000D02*
X154920000Y-90520000D01*
D36*
%TO.N,GND*%
X170690000Y-55020000D02*
X170670000Y-55040000D01*
D34*
X170670000Y-55040000D02*
X170670000Y-57220000D01*
D36*
X176130000Y-69870000D02*
X176080000Y-69820000D01*
D34*
X177730000Y-69870000D02*
X176130000Y-69870000D01*
X173450000Y-80087500D02*
X173450000Y-82087500D01*
D33*
%TO.N,7.4Vin1*%
X179030000Y-94350000D02*
X171340000Y-94350000D01*
X181370000Y-92010000D02*
X179030000Y-94350000D01*
X169580000Y-96110000D02*
X169580000Y-101560000D01*
X171340000Y-94350000D02*
X169580000Y-96110000D01*
D35*
%TO.N,SERVO*%
X154590000Y-90520000D02*
X155080000Y-90520000D01*
X152090000Y-84000000D02*
X152090000Y-88020000D01*
X152090000Y-88020000D02*
X154590000Y-90520000D01*
X151055000Y-82965000D02*
X152090000Y-84000000D01*
X148347500Y-82965000D02*
X151055000Y-82965000D01*
D37*
%TO.N,5V*%
X163260000Y-59330000D02*
X163260000Y-59560000D01*
X162510000Y-58580000D02*
X163260000Y-59330000D01*
X163260000Y-59560000D02*
X162510000Y-59560000D01*
X167970000Y-59560000D02*
X163260000Y-59560000D01*
X161530000Y-59560000D02*
X156880000Y-59560000D01*
X162510000Y-57940000D02*
X162510000Y-54380000D01*
X162510000Y-59560000D02*
X162510000Y-57940000D01*
X162510000Y-59560000D02*
X161530000Y-59560000D01*
X162510000Y-57940000D02*
X162510000Y-58580000D01*
X162510000Y-58580000D02*
X161530000Y-59560000D01*
X135320000Y-88790000D02*
X130985000Y-93125000D01*
X130985000Y-93125000D02*
X122947500Y-93125000D01*
X139470000Y-50030000D02*
X135320000Y-54180000D01*
X158160000Y-50030000D02*
X139470000Y-50030000D01*
X135320000Y-54180000D02*
X135320000Y-88790000D01*
X162510000Y-54380000D02*
X158160000Y-50030000D01*
X168770000Y-58830000D02*
X169500000Y-59560000D01*
X168770000Y-58620000D02*
X168770000Y-58830000D01*
X169500000Y-59560000D02*
X168880000Y-59560000D01*
X174340000Y-59560000D02*
X169500000Y-59560000D01*
X168880000Y-59560000D02*
X167970000Y-59560000D01*
X168770000Y-58620000D02*
X168770000Y-57640000D01*
X168770000Y-58620000D02*
X168770000Y-58760000D01*
X168770000Y-59450000D02*
X168770000Y-58620000D01*
X168770000Y-58760000D02*
X167970000Y-59560000D01*
X168770000Y-57640000D02*
X168780000Y-57630000D01*
X168880000Y-59560000D02*
X168770000Y-59450000D01*
D38*
%TO.N,7.4V1*%
X180680000Y-69870000D02*
X180750000Y-69870000D01*
X180750000Y-69870000D02*
X181500000Y-70620000D01*
X181500000Y-70620000D02*
X181500000Y-74450000D01*
X181500000Y-69860000D02*
X181500000Y-70620000D01*
X180680000Y-69870000D02*
X181500000Y-69050000D01*
X181500000Y-64430000D02*
X181500000Y-69050000D01*
X180510000Y-69870000D02*
X180680000Y-69870000D01*
X180510000Y-69870000D02*
X179630000Y-69870000D01*
X181500000Y-69050000D02*
X181500000Y-69860000D01*
X181490000Y-69870000D02*
X180510000Y-69870000D01*
X181500000Y-69860000D02*
X181490000Y-69870000D01*
D35*
%TO.N,SDA*%
X152780000Y-72550000D02*
X156000000Y-72550000D01*
X151750000Y-71520000D02*
X152780000Y-72550000D01*
X150945000Y-67725000D02*
X151750000Y-68530000D01*
X148347500Y-67725000D02*
X150945000Y-67725000D01*
X151750000Y-68530000D02*
X151750000Y-71520000D01*
%TO.N,SCL*%
X153870000Y-70010000D02*
X156000000Y-70010000D01*
X152610000Y-68750000D02*
X153870000Y-70010000D01*
X150945000Y-60105000D02*
X152610000Y-61770000D01*
X152610000Y-61770000D02*
X152610000Y-68750000D01*
X148347500Y-60105000D02*
X150945000Y-60105000D01*
D37*
%TO.N,5V*%
X156880000Y-59560000D02*
X156010000Y-60430000D01*
X156010000Y-64920000D02*
X156000000Y-64930000D01*
X176420000Y-61640000D02*
X174340000Y-59560000D01*
X176420000Y-64430000D02*
X176420000Y-61640000D01*
X156010000Y-60430000D02*
X156010000Y-64920000D01*
%TD*%
D39*
X111056457Y-93293759D02*
X111056457Y-91579474D01*
X114056457Y-92436616D02*
X111056457Y-92436616D01*
X111056457Y-90865188D02*
X114056457Y-90150902D01*
X114056457Y-90150902D02*
X111913600Y-89579474D01*
X111913600Y-89579474D02*
X114056457Y-89008045D01*
X114056457Y-89008045D02*
X111056457Y-88293760D01*
X114056457Y-87150903D02*
X111056457Y-87150903D01*
X111056457Y-86008046D02*
X114056457Y-84008046D01*
X111056457Y-84008046D02*
X114056457Y-86008046D01*
D40*
X118226928Y-93436147D02*
X116726928Y-93436147D01*
X116726928Y-93436147D02*
X116726928Y-93079004D01*
X116726928Y-93079004D02*
X116798357Y-92864718D01*
X116798357Y-92864718D02*
X116941214Y-92721861D01*
X116941214Y-92721861D02*
X117084071Y-92650432D01*
X117084071Y-92650432D02*
X117369785Y-92579004D01*
X117369785Y-92579004D02*
X117584071Y-92579004D01*
X117584071Y-92579004D02*
X117869785Y-92650432D01*
X117869785Y-92650432D02*
X118012642Y-92721861D01*
X118012642Y-92721861D02*
X118155500Y-92864718D01*
X118155500Y-92864718D02*
X118226928Y-93079004D01*
X118226928Y-93079004D02*
X118226928Y-93436147D01*
X117441214Y-91936147D02*
X117441214Y-91436147D01*
X118226928Y-91221861D02*
X118226928Y-91936147D01*
X118226928Y-91936147D02*
X116726928Y-91936147D01*
X116726928Y-91936147D02*
X116726928Y-91221861D01*
X118155500Y-90650432D02*
X118226928Y-90436147D01*
X118226928Y-90436147D02*
X118226928Y-90079004D01*
X118226928Y-90079004D02*
X118155500Y-89936147D01*
X118155500Y-89936147D02*
X118084071Y-89864718D01*
X118084071Y-89864718D02*
X117941214Y-89793289D01*
X117941214Y-89793289D02*
X117798357Y-89793289D01*
X117798357Y-89793289D02*
X117655500Y-89864718D01*
X117655500Y-89864718D02*
X117584071Y-89936147D01*
X117584071Y-89936147D02*
X117512642Y-90079004D01*
X117512642Y-90079004D02*
X117441214Y-90364718D01*
X117441214Y-90364718D02*
X117369785Y-90507575D01*
X117369785Y-90507575D02*
X117298357Y-90579004D01*
X117298357Y-90579004D02*
X117155500Y-90650432D01*
X117155500Y-90650432D02*
X117012642Y-90650432D01*
X117012642Y-90650432D02*
X116869785Y-90579004D01*
X116869785Y-90579004D02*
X116798357Y-90507575D01*
X116798357Y-90507575D02*
X116726928Y-90364718D01*
X116726928Y-90364718D02*
X116726928Y-90007575D01*
X116726928Y-90007575D02*
X116798357Y-89793289D01*
X118226928Y-89150433D02*
X116726928Y-89150433D01*
X116798357Y-87650432D02*
X116726928Y-87793290D01*
X116726928Y-87793290D02*
X116726928Y-88007575D01*
X116726928Y-88007575D02*
X116798357Y-88221861D01*
X116798357Y-88221861D02*
X116941214Y-88364718D01*
X116941214Y-88364718D02*
X117084071Y-88436147D01*
X117084071Y-88436147D02*
X117369785Y-88507575D01*
X117369785Y-88507575D02*
X117584071Y-88507575D01*
X117584071Y-88507575D02*
X117869785Y-88436147D01*
X117869785Y-88436147D02*
X118012642Y-88364718D01*
X118012642Y-88364718D02*
X118155500Y-88221861D01*
X118155500Y-88221861D02*
X118226928Y-88007575D01*
X118226928Y-88007575D02*
X118226928Y-87864718D01*
X118226928Y-87864718D02*
X118155500Y-87650432D01*
X118155500Y-87650432D02*
X118084071Y-87579004D01*
X118084071Y-87579004D02*
X117584071Y-87579004D01*
X117584071Y-87579004D02*
X117584071Y-87864718D01*
X118226928Y-86936147D02*
X116726928Y-86936147D01*
X116726928Y-86936147D02*
X118226928Y-86079004D01*
X118226928Y-86079004D02*
X116726928Y-86079004D01*
X117441214Y-85364718D02*
X117441214Y-84864718D01*
X118226928Y-84650432D02*
X118226928Y-85364718D01*
X118226928Y-85364718D02*
X116726928Y-85364718D01*
X116726928Y-85364718D02*
X116726928Y-84650432D01*
X118226928Y-84007575D02*
X116726928Y-84007575D01*
X116726928Y-84007575D02*
X116726928Y-83650432D01*
X116726928Y-83650432D02*
X116798357Y-83436146D01*
X116798357Y-83436146D02*
X116941214Y-83293289D01*
X116941214Y-83293289D02*
X117084071Y-83221860D01*
X117084071Y-83221860D02*
X117369785Y-83150432D01*
X117369785Y-83150432D02*
X117584071Y-83150432D01*
X117584071Y-83150432D02*
X117869785Y-83221860D01*
X117869785Y-83221860D02*
X118012642Y-83293289D01*
X118012642Y-83293289D02*
X118155500Y-83436146D01*
X118155500Y-83436146D02*
X118226928Y-83650432D01*
X118226928Y-83650432D02*
X118226928Y-84007575D01*
X117441214Y-80864718D02*
X117441214Y-81364718D01*
X118226928Y-81364718D02*
X116726928Y-81364718D01*
X116726928Y-81364718D02*
X116726928Y-80650432D01*
X116726928Y-79793289D02*
X116726928Y-79507575D01*
X116726928Y-79507575D02*
X116798357Y-79364718D01*
X116798357Y-79364718D02*
X116941214Y-79221861D01*
X116941214Y-79221861D02*
X117226928Y-79150432D01*
X117226928Y-79150432D02*
X117726928Y-79150432D01*
X117726928Y-79150432D02*
X118012642Y-79221861D01*
X118012642Y-79221861D02*
X118155500Y-79364718D01*
X118155500Y-79364718D02*
X118226928Y-79507575D01*
X118226928Y-79507575D02*
X118226928Y-79793289D01*
X118226928Y-79793289D02*
X118155500Y-79936147D01*
X118155500Y-79936147D02*
X118012642Y-80079004D01*
X118012642Y-80079004D02*
X117726928Y-80150432D01*
X117726928Y-80150432D02*
X117226928Y-80150432D01*
X117226928Y-80150432D02*
X116941214Y-80079004D01*
X116941214Y-80079004D02*
X116798357Y-79936147D01*
X116798357Y-79936147D02*
X116726928Y-79793289D01*
X118226928Y-77650432D02*
X117512642Y-78150432D01*
X118226928Y-78507575D02*
X116726928Y-78507575D01*
X116726928Y-78507575D02*
X116726928Y-77936146D01*
X116726928Y-77936146D02*
X116798357Y-77793289D01*
X116798357Y-77793289D02*
X116869785Y-77721860D01*
X116869785Y-77721860D02*
X117012642Y-77650432D01*
X117012642Y-77650432D02*
X117226928Y-77650432D01*
X117226928Y-77650432D02*
X117369785Y-77721860D01*
X117369785Y-77721860D02*
X117441214Y-77793289D01*
X117441214Y-77793289D02*
X117512642Y-77936146D01*
X117512642Y-77936146D02*
X117512642Y-78507575D01*
X116726928Y-75579003D02*
X116726928Y-75293289D01*
X116726928Y-75293289D02*
X116798357Y-75150432D01*
X116798357Y-75150432D02*
X116941214Y-75007575D01*
X116941214Y-75007575D02*
X117226928Y-74936146D01*
X117226928Y-74936146D02*
X117726928Y-74936146D01*
X117726928Y-74936146D02*
X118012642Y-75007575D01*
X118012642Y-75007575D02*
X118155500Y-75150432D01*
X118155500Y-75150432D02*
X118226928Y-75293289D01*
X118226928Y-75293289D02*
X118226928Y-75579003D01*
X118226928Y-75579003D02*
X118155500Y-75721861D01*
X118155500Y-75721861D02*
X118012642Y-75864718D01*
X118012642Y-75864718D02*
X117726928Y-75936146D01*
X117726928Y-75936146D02*
X117226928Y-75936146D01*
X117226928Y-75936146D02*
X116941214Y-75864718D01*
X116941214Y-75864718D02*
X116798357Y-75721861D01*
X116798357Y-75721861D02*
X116726928Y-75579003D01*
X118226928Y-73579003D02*
X118226928Y-74293289D01*
X118226928Y-74293289D02*
X116726928Y-74293289D01*
X117512642Y-72793288D02*
X118226928Y-72793288D01*
X116726928Y-73293288D02*
X117512642Y-72793288D01*
X117512642Y-72793288D02*
X116726928Y-72293288D01*
X118226928Y-71793289D02*
X116726928Y-71793289D01*
X116726928Y-71793289D02*
X117798357Y-71293289D01*
X117798357Y-71293289D02*
X116726928Y-70793289D01*
X116726928Y-70793289D02*
X118226928Y-70793289D01*
X118226928Y-70079003D02*
X116726928Y-70079003D01*
X116726928Y-70079003D02*
X116726928Y-69507574D01*
X116726928Y-69507574D02*
X116798357Y-69364717D01*
X116798357Y-69364717D02*
X116869785Y-69293288D01*
X116869785Y-69293288D02*
X117012642Y-69221860D01*
X117012642Y-69221860D02*
X117226928Y-69221860D01*
X117226928Y-69221860D02*
X117369785Y-69293288D01*
X117369785Y-69293288D02*
X117441214Y-69364717D01*
X117441214Y-69364717D02*
X117512642Y-69507574D01*
X117512642Y-69507574D02*
X117512642Y-70079003D01*
X116726928Y-68579003D02*
X117941214Y-68579003D01*
X117941214Y-68579003D02*
X118084071Y-68507574D01*
X118084071Y-68507574D02*
X118155500Y-68436146D01*
X118155500Y-68436146D02*
X118226928Y-68293288D01*
X118226928Y-68293288D02*
X118226928Y-68007574D01*
X118226928Y-68007574D02*
X118155500Y-67864717D01*
X118155500Y-67864717D02*
X118084071Y-67793288D01*
X118084071Y-67793288D02*
X117941214Y-67721860D01*
X117941214Y-67721860D02*
X116726928Y-67721860D01*
X118155500Y-67079002D02*
X118226928Y-66864717D01*
X118226928Y-66864717D02*
X118226928Y-66507574D01*
X118226928Y-66507574D02*
X118155500Y-66364717D01*
X118155500Y-66364717D02*
X118084071Y-66293288D01*
X118084071Y-66293288D02*
X117941214Y-66221859D01*
X117941214Y-66221859D02*
X117798357Y-66221859D01*
X117798357Y-66221859D02*
X117655500Y-66293288D01*
X117655500Y-66293288D02*
X117584071Y-66364717D01*
X117584071Y-66364717D02*
X117512642Y-66507574D01*
X117512642Y-66507574D02*
X117441214Y-66793288D01*
X117441214Y-66793288D02*
X117369785Y-66936145D01*
X117369785Y-66936145D02*
X117298357Y-67007574D01*
X117298357Y-67007574D02*
X117155500Y-67079002D01*
X117155500Y-67079002D02*
X117012642Y-67079002D01*
X117012642Y-67079002D02*
X116869785Y-67007574D01*
X116869785Y-67007574D02*
X116798357Y-66936145D01*
X116798357Y-66936145D02*
X116726928Y-66793288D01*
X116726928Y-66793288D02*
X116726928Y-66436145D01*
X116726928Y-66436145D02*
X116798357Y-66221859D01*
D41*
X142162054Y-83469600D02*
X142304911Y-83517219D01*
X142304911Y-83517219D02*
X142543006Y-83517219D01*
X142543006Y-83517219D02*
X142638244Y-83469600D01*
X142638244Y-83469600D02*
X142685863Y-83421980D01*
X142685863Y-83421980D02*
X142733482Y-83326742D01*
X142733482Y-83326742D02*
X142733482Y-83231504D01*
X142733482Y-83231504D02*
X142685863Y-83136266D01*
X142685863Y-83136266D02*
X142638244Y-83088647D01*
X142638244Y-83088647D02*
X142543006Y-83041028D01*
X142543006Y-83041028D02*
X142352530Y-82993409D01*
X142352530Y-82993409D02*
X142257292Y-82945790D01*
X142257292Y-82945790D02*
X142209673Y-82898171D01*
X142209673Y-82898171D02*
X142162054Y-82802933D01*
X142162054Y-82802933D02*
X142162054Y-82707695D01*
X142162054Y-82707695D02*
X142209673Y-82612457D01*
X142209673Y-82612457D02*
X142257292Y-82564838D01*
X142257292Y-82564838D02*
X142352530Y-82517219D01*
X142352530Y-82517219D02*
X142590625Y-82517219D01*
X142590625Y-82517219D02*
X142733482Y-82564838D01*
X143162054Y-82993409D02*
X143495387Y-82993409D01*
X143638244Y-83517219D02*
X143162054Y-83517219D01*
X143162054Y-83517219D02*
X143162054Y-82517219D01*
X143162054Y-82517219D02*
X143638244Y-82517219D01*
X144638244Y-83517219D02*
X144304911Y-83041028D01*
X144066816Y-83517219D02*
X144066816Y-82517219D01*
X144066816Y-82517219D02*
X144447768Y-82517219D01*
X144447768Y-82517219D02*
X144543006Y-82564838D01*
X144543006Y-82564838D02*
X144590625Y-82612457D01*
X144590625Y-82612457D02*
X144638244Y-82707695D01*
X144638244Y-82707695D02*
X144638244Y-82850552D01*
X144638244Y-82850552D02*
X144590625Y-82945790D01*
X144590625Y-82945790D02*
X144543006Y-82993409D01*
X144543006Y-82993409D02*
X144447768Y-83041028D01*
X144447768Y-83041028D02*
X144066816Y-83041028D01*
X144923959Y-82517219D02*
X145257292Y-83517219D01*
X145257292Y-83517219D02*
X145590625Y-82517219D01*
X146114435Y-82517219D02*
X146304911Y-82517219D01*
X146304911Y-82517219D02*
X146400149Y-82564838D01*
X146400149Y-82564838D02*
X146495387Y-82660076D01*
X146495387Y-82660076D02*
X146543006Y-82850552D01*
X146543006Y-82850552D02*
X146543006Y-83183885D01*
X146543006Y-83183885D02*
X146495387Y-83374361D01*
X146495387Y-83374361D02*
X146400149Y-83469600D01*
X146400149Y-83469600D02*
X146304911Y-83517219D01*
X146304911Y-83517219D02*
X146114435Y-83517219D01*
X146114435Y-83517219D02*
X146019197Y-83469600D01*
X146019197Y-83469600D02*
X145923959Y-83374361D01*
X145923959Y-83374361D02*
X145876340Y-83183885D01*
X145876340Y-83183885D02*
X145876340Y-82850552D01*
X145876340Y-82850552D02*
X145923959Y-82660076D01*
X145923959Y-82660076D02*
X146019197Y-82564838D01*
X146019197Y-82564838D02*
X146114435Y-82517219D01*
X158422054Y-73049600D02*
X158564911Y-73097219D01*
X158564911Y-73097219D02*
X158803006Y-73097219D01*
X158803006Y-73097219D02*
X158898244Y-73049600D01*
X158898244Y-73049600D02*
X158945863Y-73001980D01*
X158945863Y-73001980D02*
X158993482Y-72906742D01*
X158993482Y-72906742D02*
X158993482Y-72811504D01*
X158993482Y-72811504D02*
X158945863Y-72716266D01*
X158945863Y-72716266D02*
X158898244Y-72668647D01*
X158898244Y-72668647D02*
X158803006Y-72621028D01*
X158803006Y-72621028D02*
X158612530Y-72573409D01*
X158612530Y-72573409D02*
X158517292Y-72525790D01*
X158517292Y-72525790D02*
X158469673Y-72478171D01*
X158469673Y-72478171D02*
X158422054Y-72382933D01*
X158422054Y-72382933D02*
X158422054Y-72287695D01*
X158422054Y-72287695D02*
X158469673Y-72192457D01*
X158469673Y-72192457D02*
X158517292Y-72144838D01*
X158517292Y-72144838D02*
X158612530Y-72097219D01*
X158612530Y-72097219D02*
X158850625Y-72097219D01*
X158850625Y-72097219D02*
X158993482Y-72144838D01*
X159422054Y-73097219D02*
X159422054Y-72097219D01*
X159422054Y-72097219D02*
X159660149Y-72097219D01*
X159660149Y-72097219D02*
X159803006Y-72144838D01*
X159803006Y-72144838D02*
X159898244Y-72240076D01*
X159898244Y-72240076D02*
X159945863Y-72335314D01*
X159945863Y-72335314D02*
X159993482Y-72525790D01*
X159993482Y-72525790D02*
X159993482Y-72668647D01*
X159993482Y-72668647D02*
X159945863Y-72859123D01*
X159945863Y-72859123D02*
X159898244Y-72954361D01*
X159898244Y-72954361D02*
X159803006Y-73049600D01*
X159803006Y-73049600D02*
X159660149Y-73097219D01*
X159660149Y-73097219D02*
X159422054Y-73097219D01*
X160374435Y-72811504D02*
X160850625Y-72811504D01*
X160279197Y-73097219D02*
X160612530Y-72097219D01*
X160612530Y-72097219D02*
X160945863Y-73097219D01*
X158342054Y-70459600D02*
X158484911Y-70507219D01*
X158484911Y-70507219D02*
X158723006Y-70507219D01*
X158723006Y-70507219D02*
X158818244Y-70459600D01*
X158818244Y-70459600D02*
X158865863Y-70411980D01*
X158865863Y-70411980D02*
X158913482Y-70316742D01*
X158913482Y-70316742D02*
X158913482Y-70221504D01*
X158913482Y-70221504D02*
X158865863Y-70126266D01*
X158865863Y-70126266D02*
X158818244Y-70078647D01*
X158818244Y-70078647D02*
X158723006Y-70031028D01*
X158723006Y-70031028D02*
X158532530Y-69983409D01*
X158532530Y-69983409D02*
X158437292Y-69935790D01*
X158437292Y-69935790D02*
X158389673Y-69888171D01*
X158389673Y-69888171D02*
X158342054Y-69792933D01*
X158342054Y-69792933D02*
X158342054Y-69697695D01*
X158342054Y-69697695D02*
X158389673Y-69602457D01*
X158389673Y-69602457D02*
X158437292Y-69554838D01*
X158437292Y-69554838D02*
X158532530Y-69507219D01*
X158532530Y-69507219D02*
X158770625Y-69507219D01*
X158770625Y-69507219D02*
X158913482Y-69554838D01*
X159913482Y-70411980D02*
X159865863Y-70459600D01*
X159865863Y-70459600D02*
X159723006Y-70507219D01*
X159723006Y-70507219D02*
X159627768Y-70507219D01*
X159627768Y-70507219D02*
X159484911Y-70459600D01*
X159484911Y-70459600D02*
X159389673Y-70364361D01*
X159389673Y-70364361D02*
X159342054Y-70269123D01*
X159342054Y-70269123D02*
X159294435Y-70078647D01*
X159294435Y-70078647D02*
X159294435Y-69935790D01*
X159294435Y-69935790D02*
X159342054Y-69745314D01*
X159342054Y-69745314D02*
X159389673Y-69650076D01*
X159389673Y-69650076D02*
X159484911Y-69554838D01*
X159484911Y-69554838D02*
X159627768Y-69507219D01*
X159627768Y-69507219D02*
X159723006Y-69507219D01*
X159723006Y-69507219D02*
X159865863Y-69554838D01*
X159865863Y-69554838D02*
X159913482Y-69602457D01*
X160818244Y-70507219D02*
X160342054Y-70507219D01*
X160342054Y-70507219D02*
X160342054Y-69507219D01*
D42*
X127374510Y-50235114D02*
X127874510Y-50235114D01*
X128088796Y-51020828D02*
X127374510Y-51020828D01*
X127374510Y-51020828D02*
X127374510Y-49520828D01*
X127374510Y-49520828D02*
X128088796Y-49520828D01*
X128660225Y-50949400D02*
X128874511Y-51020828D01*
X128874511Y-51020828D02*
X129231653Y-51020828D01*
X129231653Y-51020828D02*
X129374511Y-50949400D01*
X129374511Y-50949400D02*
X129445939Y-50877971D01*
X129445939Y-50877971D02*
X129517368Y-50735114D01*
X129517368Y-50735114D02*
X129517368Y-50592257D01*
X129517368Y-50592257D02*
X129445939Y-50449400D01*
X129445939Y-50449400D02*
X129374511Y-50377971D01*
X129374511Y-50377971D02*
X129231653Y-50306542D01*
X129231653Y-50306542D02*
X128945939Y-50235114D01*
X128945939Y-50235114D02*
X128803082Y-50163685D01*
X128803082Y-50163685D02*
X128731653Y-50092257D01*
X128731653Y-50092257D02*
X128660225Y-49949400D01*
X128660225Y-49949400D02*
X128660225Y-49806542D01*
X128660225Y-49806542D02*
X128731653Y-49663685D01*
X128731653Y-49663685D02*
X128803082Y-49592257D01*
X128803082Y-49592257D02*
X128945939Y-49520828D01*
X128945939Y-49520828D02*
X129303082Y-49520828D01*
X129303082Y-49520828D02*
X129517368Y-49592257D01*
X130160224Y-51020828D02*
X130160224Y-49520828D01*
X130160224Y-49520828D02*
X130731653Y-49520828D01*
X130731653Y-49520828D02*
X130874510Y-49592257D01*
X130874510Y-49592257D02*
X130945939Y-49663685D01*
X130945939Y-49663685D02*
X131017367Y-49806542D01*
X131017367Y-49806542D02*
X131017367Y-50020828D01*
X131017367Y-50020828D02*
X130945939Y-50163685D01*
X130945939Y-50163685D02*
X130874510Y-50235114D01*
X130874510Y-50235114D02*
X130731653Y-50306542D01*
X130731653Y-50306542D02*
X130160224Y-50306542D01*
X131660224Y-50449400D02*
X132803082Y-50449400D01*
X133374510Y-49520828D02*
X134303082Y-49520828D01*
X134303082Y-49520828D02*
X133803082Y-50092257D01*
X133803082Y-50092257D02*
X134017367Y-50092257D01*
X134017367Y-50092257D02*
X134160225Y-50163685D01*
X134160225Y-50163685D02*
X134231653Y-50235114D01*
X134231653Y-50235114D02*
X134303082Y-50377971D01*
X134303082Y-50377971D02*
X134303082Y-50735114D01*
X134303082Y-50735114D02*
X134231653Y-50877971D01*
X134231653Y-50877971D02*
X134160225Y-50949400D01*
X134160225Y-50949400D02*
X134017367Y-51020828D01*
X134017367Y-51020828D02*
X133588796Y-51020828D01*
X133588796Y-51020828D02*
X133445939Y-50949400D01*
X133445939Y-50949400D02*
X133374510Y-50877971D01*
X134874510Y-49663685D02*
X134945938Y-49592257D01*
X134945938Y-49592257D02*
X135088796Y-49520828D01*
X135088796Y-49520828D02*
X135445938Y-49520828D01*
X135445938Y-49520828D02*
X135588796Y-49592257D01*
X135588796Y-49592257D02*
X135660224Y-49663685D01*
X135660224Y-49663685D02*
X135731653Y-49806542D01*
X135731653Y-49806542D02*
X135731653Y-49949400D01*
X135731653Y-49949400D02*
X135660224Y-50163685D01*
X135660224Y-50163685D02*
X134803081Y-51020828D01*
X134803081Y-51020828D02*
X135731653Y-51020828D01*
X175560828Y-81831203D02*
X175560828Y-82545489D01*
X175560828Y-82545489D02*
X176275114Y-82616917D01*
X176275114Y-82616917D02*
X176203685Y-82545489D01*
X176203685Y-82545489D02*
X176132257Y-82402632D01*
X176132257Y-82402632D02*
X176132257Y-82045489D01*
X176132257Y-82045489D02*
X176203685Y-81902632D01*
X176203685Y-81902632D02*
X176275114Y-81831203D01*
X176275114Y-81831203D02*
X176417971Y-81759774D01*
X176417971Y-81759774D02*
X176775114Y-81759774D01*
X176775114Y-81759774D02*
X176917971Y-81831203D01*
X176917971Y-81831203D02*
X176989400Y-81902632D01*
X176989400Y-81902632D02*
X177060828Y-82045489D01*
X177060828Y-82045489D02*
X177060828Y-82402632D01*
X177060828Y-82402632D02*
X176989400Y-82545489D01*
X176989400Y-82545489D02*
X176917971Y-82616917D01*
X175560828Y-81331203D02*
X177060828Y-80831203D01*
X177060828Y-80831203D02*
X175560828Y-80331203D01*
X177203685Y-80188347D02*
X177203685Y-79045489D01*
X176989400Y-78759775D02*
X177060828Y-78545490D01*
X177060828Y-78545490D02*
X177060828Y-78188347D01*
X177060828Y-78188347D02*
X176989400Y-78045490D01*
X176989400Y-78045490D02*
X176917971Y-77974061D01*
X176917971Y-77974061D02*
X176775114Y-77902632D01*
X176775114Y-77902632D02*
X176632257Y-77902632D01*
X176632257Y-77902632D02*
X176489400Y-77974061D01*
X176489400Y-77974061D02*
X176417971Y-78045490D01*
X176417971Y-78045490D02*
X176346542Y-78188347D01*
X176346542Y-78188347D02*
X176275114Y-78474061D01*
X176275114Y-78474061D02*
X176203685Y-78616918D01*
X176203685Y-78616918D02*
X176132257Y-78688347D01*
X176132257Y-78688347D02*
X175989400Y-78759775D01*
X175989400Y-78759775D02*
X175846542Y-78759775D01*
X175846542Y-78759775D02*
X175703685Y-78688347D01*
X175703685Y-78688347D02*
X175632257Y-78616918D01*
X175632257Y-78616918D02*
X175560828Y-78474061D01*
X175560828Y-78474061D02*
X175560828Y-78116918D01*
X175560828Y-78116918D02*
X175632257Y-77902632D01*
X175560828Y-77402633D02*
X177060828Y-77045490D01*
X177060828Y-77045490D02*
X175989400Y-76759776D01*
X175989400Y-76759776D02*
X177060828Y-76474061D01*
X177060828Y-76474061D02*
X175560828Y-76116919D01*
X177060828Y-75545490D02*
X175560828Y-75545490D01*
X175560828Y-75045489D02*
X175560828Y-74188347D01*
X177060828Y-74616918D02*
X175560828Y-74616918D01*
X176917971Y-72831204D02*
X176989400Y-72902632D01*
X176989400Y-72902632D02*
X177060828Y-73116918D01*
X177060828Y-73116918D02*
X177060828Y-73259775D01*
X177060828Y-73259775D02*
X176989400Y-73474061D01*
X176989400Y-73474061D02*
X176846542Y-73616918D01*
X176846542Y-73616918D02*
X176703685Y-73688347D01*
X176703685Y-73688347D02*
X176417971Y-73759775D01*
X176417971Y-73759775D02*
X176203685Y-73759775D01*
X176203685Y-73759775D02*
X175917971Y-73688347D01*
X175917971Y-73688347D02*
X175775114Y-73616918D01*
X175775114Y-73616918D02*
X175632257Y-73474061D01*
X175632257Y-73474061D02*
X175560828Y-73259775D01*
X175560828Y-73259775D02*
X175560828Y-73116918D01*
X175560828Y-73116918D02*
X175632257Y-72902632D01*
X175632257Y-72902632D02*
X175703685Y-72831204D01*
X177060828Y-72188347D02*
X175560828Y-72188347D01*
X176275114Y-72188347D02*
X176275114Y-71331204D01*
X177060828Y-71331204D02*
X175560828Y-71331204D01*
D41*
X171342054Y-90879600D02*
X171484911Y-90927219D01*
X171484911Y-90927219D02*
X171723006Y-90927219D01*
X171723006Y-90927219D02*
X171818244Y-90879600D01*
X171818244Y-90879600D02*
X171865863Y-90831980D01*
X171865863Y-90831980D02*
X171913482Y-90736742D01*
X171913482Y-90736742D02*
X171913482Y-90641504D01*
X171913482Y-90641504D02*
X171865863Y-90546266D01*
X171865863Y-90546266D02*
X171818244Y-90498647D01*
X171818244Y-90498647D02*
X171723006Y-90451028D01*
X171723006Y-90451028D02*
X171532530Y-90403409D01*
X171532530Y-90403409D02*
X171437292Y-90355790D01*
X171437292Y-90355790D02*
X171389673Y-90308171D01*
X171389673Y-90308171D02*
X171342054Y-90212933D01*
X171342054Y-90212933D02*
X171342054Y-90117695D01*
X171342054Y-90117695D02*
X171389673Y-90022457D01*
X171389673Y-90022457D02*
X171437292Y-89974838D01*
X171437292Y-89974838D02*
X171532530Y-89927219D01*
X171532530Y-89927219D02*
X171770625Y-89927219D01*
X171770625Y-89927219D02*
X171913482Y-89974838D01*
X172342054Y-90403409D02*
X172675387Y-90403409D01*
X172818244Y-90927219D02*
X172342054Y-90927219D01*
X172342054Y-90927219D02*
X172342054Y-89927219D01*
X172342054Y-89927219D02*
X172818244Y-89927219D01*
X173818244Y-90927219D02*
X173484911Y-90451028D01*
X173246816Y-90927219D02*
X173246816Y-89927219D01*
X173246816Y-89927219D02*
X173627768Y-89927219D01*
X173627768Y-89927219D02*
X173723006Y-89974838D01*
X173723006Y-89974838D02*
X173770625Y-90022457D01*
X173770625Y-90022457D02*
X173818244Y-90117695D01*
X173818244Y-90117695D02*
X173818244Y-90260552D01*
X173818244Y-90260552D02*
X173770625Y-90355790D01*
X173770625Y-90355790D02*
X173723006Y-90403409D01*
X173723006Y-90403409D02*
X173627768Y-90451028D01*
X173627768Y-90451028D02*
X173246816Y-90451028D01*
X174103959Y-89927219D02*
X174437292Y-90927219D01*
X174437292Y-90927219D02*
X174770625Y-89927219D01*
X175294435Y-89927219D02*
X175484911Y-89927219D01*
X175484911Y-89927219D02*
X175580149Y-89974838D01*
X175580149Y-89974838D02*
X175675387Y-90070076D01*
X175675387Y-90070076D02*
X175723006Y-90260552D01*
X175723006Y-90260552D02*
X175723006Y-90593885D01*
X175723006Y-90593885D02*
X175675387Y-90784361D01*
X175675387Y-90784361D02*
X175580149Y-90879600D01*
X175580149Y-90879600D02*
X175484911Y-90927219D01*
X175484911Y-90927219D02*
X175294435Y-90927219D01*
X175294435Y-90927219D02*
X175199197Y-90879600D01*
X175199197Y-90879600D02*
X175103959Y-90784361D01*
X175103959Y-90784361D02*
X175056340Y-90593885D01*
X175056340Y-90593885D02*
X175056340Y-90260552D01*
X175056340Y-90260552D02*
X175103959Y-90070076D01*
X175103959Y-90070076D02*
X175199197Y-89974838D01*
X175199197Y-89974838D02*
X175294435Y-89927219D01*
D42*
X161251653Y-106390828D02*
X162251653Y-106390828D01*
X162251653Y-106390828D02*
X161608796Y-107890828D01*
X162823081Y-107747971D02*
X162894510Y-107819400D01*
X162894510Y-107819400D02*
X162823081Y-107890828D01*
X162823081Y-107890828D02*
X162751653Y-107819400D01*
X162751653Y-107819400D02*
X162823081Y-107747971D01*
X162823081Y-107747971D02*
X162823081Y-107890828D01*
X164180225Y-106890828D02*
X164180225Y-107890828D01*
X163823082Y-106319400D02*
X163465939Y-107390828D01*
X163465939Y-107390828D02*
X164394510Y-107390828D01*
X164751653Y-106390828D02*
X165251653Y-107890828D01*
X165251653Y-107890828D02*
X165751653Y-106390828D01*
X165894510Y-108033685D02*
X167037367Y-108033685D01*
X168251652Y-107747971D02*
X168180224Y-107819400D01*
X168180224Y-107819400D02*
X167965938Y-107890828D01*
X167965938Y-107890828D02*
X167823081Y-107890828D01*
X167823081Y-107890828D02*
X167608795Y-107819400D01*
X167608795Y-107819400D02*
X167465938Y-107676542D01*
X167465938Y-107676542D02*
X167394509Y-107533685D01*
X167394509Y-107533685D02*
X167323081Y-107247971D01*
X167323081Y-107247971D02*
X167323081Y-107033685D01*
X167323081Y-107033685D02*
X167394509Y-106747971D01*
X167394509Y-106747971D02*
X167465938Y-106605114D01*
X167465938Y-106605114D02*
X167608795Y-106462257D01*
X167608795Y-106462257D02*
X167823081Y-106390828D01*
X167823081Y-106390828D02*
X167965938Y-106390828D01*
X167965938Y-106390828D02*
X168180224Y-106462257D01*
X168180224Y-106462257D02*
X168251652Y-106533685D01*
X169180224Y-106390828D02*
X169465938Y-106390828D01*
X169465938Y-106390828D02*
X169608795Y-106462257D01*
X169608795Y-106462257D02*
X169751652Y-106605114D01*
X169751652Y-106605114D02*
X169823081Y-106890828D01*
X169823081Y-106890828D02*
X169823081Y-107390828D01*
X169823081Y-107390828D02*
X169751652Y-107676542D01*
X169751652Y-107676542D02*
X169608795Y-107819400D01*
X169608795Y-107819400D02*
X169465938Y-107890828D01*
X169465938Y-107890828D02*
X169180224Y-107890828D01*
X169180224Y-107890828D02*
X169037367Y-107819400D01*
X169037367Y-107819400D02*
X168894509Y-107676542D01*
X168894509Y-107676542D02*
X168823081Y-107390828D01*
X168823081Y-107390828D02*
X168823081Y-106890828D01*
X168823081Y-106890828D02*
X168894509Y-106605114D01*
X168894509Y-106605114D02*
X169037367Y-106462257D01*
X169037367Y-106462257D02*
X169180224Y-106390828D01*
X170465938Y-107890828D02*
X170465938Y-106390828D01*
X170465938Y-106390828D02*
X171323081Y-107890828D01*
X171323081Y-107890828D02*
X171323081Y-106390828D01*
X172037367Y-107890828D02*
X172037367Y-106390828D01*
X172037367Y-106390828D02*
X172894510Y-107890828D01*
X172894510Y-107890828D02*
X172894510Y-106390828D01*
X178658796Y-62100828D02*
X177944510Y-62100828D01*
X177944510Y-62100828D02*
X177944510Y-60600828D01*
X179158796Y-62100828D02*
X179158796Y-60600828D01*
X179158796Y-60600828D02*
X179658796Y-61672257D01*
X179658796Y-61672257D02*
X180158796Y-60600828D01*
X180158796Y-60600828D02*
X180158796Y-62100828D01*
X180730225Y-60600828D02*
X181730225Y-60600828D01*
X181730225Y-60600828D02*
X181087368Y-62100828D01*
X182515939Y-61243685D02*
X182373082Y-61172257D01*
X182373082Y-61172257D02*
X182301653Y-61100828D01*
X182301653Y-61100828D02*
X182230225Y-60957971D01*
X182230225Y-60957971D02*
X182230225Y-60886542D01*
X182230225Y-60886542D02*
X182301653Y-60743685D01*
X182301653Y-60743685D02*
X182373082Y-60672257D01*
X182373082Y-60672257D02*
X182515939Y-60600828D01*
X182515939Y-60600828D02*
X182801653Y-60600828D01*
X182801653Y-60600828D02*
X182944511Y-60672257D01*
X182944511Y-60672257D02*
X183015939Y-60743685D01*
X183015939Y-60743685D02*
X183087368Y-60886542D01*
X183087368Y-60886542D02*
X183087368Y-60957971D01*
X183087368Y-60957971D02*
X183015939Y-61100828D01*
X183015939Y-61100828D02*
X182944511Y-61172257D01*
X182944511Y-61172257D02*
X182801653Y-61243685D01*
X182801653Y-61243685D02*
X182515939Y-61243685D01*
X182515939Y-61243685D02*
X182373082Y-61315114D01*
X182373082Y-61315114D02*
X182301653Y-61386542D01*
X182301653Y-61386542D02*
X182230225Y-61529400D01*
X182230225Y-61529400D02*
X182230225Y-61815114D01*
X182230225Y-61815114D02*
X182301653Y-61957971D01*
X182301653Y-61957971D02*
X182373082Y-62029400D01*
X182373082Y-62029400D02*
X182515939Y-62100828D01*
X182515939Y-62100828D02*
X182801653Y-62100828D01*
X182801653Y-62100828D02*
X182944511Y-62029400D01*
X182944511Y-62029400D02*
X183015939Y-61957971D01*
X183015939Y-61957971D02*
X183087368Y-61815114D01*
X183087368Y-61815114D02*
X183087368Y-61529400D01*
X183087368Y-61529400D02*
X183015939Y-61386542D01*
X183015939Y-61386542D02*
X182944511Y-61315114D01*
X182944511Y-61315114D02*
X182801653Y-61243685D01*
X184015939Y-60600828D02*
X184158796Y-60600828D01*
X184158796Y-60600828D02*
X184301653Y-60672257D01*
X184301653Y-60672257D02*
X184373082Y-60743685D01*
X184373082Y-60743685D02*
X184444510Y-60886542D01*
X184444510Y-60886542D02*
X184515939Y-61172257D01*
X184515939Y-61172257D02*
X184515939Y-61529400D01*
X184515939Y-61529400D02*
X184444510Y-61815114D01*
X184444510Y-61815114D02*
X184373082Y-61957971D01*
X184373082Y-61957971D02*
X184301653Y-62029400D01*
X184301653Y-62029400D02*
X184158796Y-62100828D01*
X184158796Y-62100828D02*
X184015939Y-62100828D01*
X184015939Y-62100828D02*
X183873082Y-62029400D01*
X183873082Y-62029400D02*
X183801653Y-61957971D01*
X183801653Y-61957971D02*
X183730224Y-61815114D01*
X183730224Y-61815114D02*
X183658796Y-61529400D01*
X183658796Y-61529400D02*
X183658796Y-61172257D01*
X183658796Y-61172257D02*
X183730224Y-60886542D01*
X183730224Y-60886542D02*
X183801653Y-60743685D01*
X183801653Y-60743685D02*
X183873082Y-60672257D01*
X183873082Y-60672257D02*
X184015939Y-60600828D01*
X185873081Y-60600828D02*
X185158795Y-60600828D01*
X185158795Y-60600828D02*
X185087367Y-61315114D01*
X185087367Y-61315114D02*
X185158795Y-61243685D01*
X185158795Y-61243685D02*
X185301653Y-61172257D01*
X185301653Y-61172257D02*
X185658795Y-61172257D01*
X185658795Y-61172257D02*
X185801653Y-61243685D01*
X185801653Y-61243685D02*
X185873081Y-61315114D01*
X185873081Y-61315114D02*
X185944510Y-61457971D01*
X185944510Y-61457971D02*
X185944510Y-61815114D01*
X185944510Y-61815114D02*
X185873081Y-61957971D01*
X185873081Y-61957971D02*
X185801653Y-62029400D01*
X185801653Y-62029400D02*
X185658795Y-62100828D01*
X185658795Y-62100828D02*
X185301653Y-62100828D01*
X185301653Y-62100828D02*
X185158795Y-62029400D01*
X185158795Y-62029400D02*
X185087367Y-61957971D01*
X159210225Y-85522257D02*
X159067368Y-85450828D01*
X159067368Y-85450828D02*
X158853082Y-85450828D01*
X158853082Y-85450828D02*
X158638796Y-85522257D01*
X158638796Y-85522257D02*
X158495939Y-85665114D01*
X158495939Y-85665114D02*
X158424510Y-85807971D01*
X158424510Y-85807971D02*
X158353082Y-86093685D01*
X158353082Y-86093685D02*
X158353082Y-86307971D01*
X158353082Y-86307971D02*
X158424510Y-86593685D01*
X158424510Y-86593685D02*
X158495939Y-86736542D01*
X158495939Y-86736542D02*
X158638796Y-86879400D01*
X158638796Y-86879400D02*
X158853082Y-86950828D01*
X158853082Y-86950828D02*
X158995939Y-86950828D01*
X158995939Y-86950828D02*
X159210225Y-86879400D01*
X159210225Y-86879400D02*
X159281653Y-86807971D01*
X159281653Y-86807971D02*
X159281653Y-86307971D01*
X159281653Y-86307971D02*
X158995939Y-86307971D01*
X160210225Y-86236542D02*
X160210225Y-86950828D01*
X159710225Y-85450828D02*
X160210225Y-86236542D01*
X160210225Y-86236542D02*
X160710225Y-85450828D01*
X161210224Y-86379400D02*
X162353082Y-86379400D01*
X163781653Y-85450828D02*
X163067367Y-85450828D01*
X163067367Y-85450828D02*
X162995939Y-86165114D01*
X162995939Y-86165114D02*
X163067367Y-86093685D01*
X163067367Y-86093685D02*
X163210225Y-86022257D01*
X163210225Y-86022257D02*
X163567367Y-86022257D01*
X163567367Y-86022257D02*
X163710225Y-86093685D01*
X163710225Y-86093685D02*
X163781653Y-86165114D01*
X163781653Y-86165114D02*
X163853082Y-86307971D01*
X163853082Y-86307971D02*
X163853082Y-86665114D01*
X163853082Y-86665114D02*
X163781653Y-86807971D01*
X163781653Y-86807971D02*
X163710225Y-86879400D01*
X163710225Y-86879400D02*
X163567367Y-86950828D01*
X163567367Y-86950828D02*
X163210225Y-86950828D01*
X163210225Y-86950828D02*
X163067367Y-86879400D01*
X163067367Y-86879400D02*
X162995939Y-86807971D01*
X164424510Y-85593685D02*
X164495938Y-85522257D01*
X164495938Y-85522257D02*
X164638796Y-85450828D01*
X164638796Y-85450828D02*
X164995938Y-85450828D01*
X164995938Y-85450828D02*
X165138796Y-85522257D01*
X165138796Y-85522257D02*
X165210224Y-85593685D01*
X165210224Y-85593685D02*
X165281653Y-85736542D01*
X165281653Y-85736542D02*
X165281653Y-85879400D01*
X165281653Y-85879400D02*
X165210224Y-86093685D01*
X165210224Y-86093685D02*
X164353081Y-86950828D01*
X164353081Y-86950828D02*
X165281653Y-86950828D01*
X166710224Y-86950828D02*
X165853081Y-86950828D01*
X166281652Y-86950828D02*
X166281652Y-85450828D01*
X166281652Y-85450828D02*
X166138795Y-85665114D01*
X166138795Y-85665114D02*
X165995938Y-85807971D01*
X165995938Y-85807971D02*
X165853081Y-85879400D01*
D28*
X182358095Y-68334819D02*
X182358095Y-69144342D01*
X182358095Y-69144342D02*
X182405714Y-69239580D01*
X182405714Y-69239580D02*
X182453333Y-69287200D01*
X182453333Y-69287200D02*
X182548571Y-69334819D01*
X182548571Y-69334819D02*
X182739047Y-69334819D01*
X182739047Y-69334819D02*
X182834285Y-69287200D01*
X182834285Y-69287200D02*
X182881904Y-69239580D01*
X182881904Y-69239580D02*
X182929523Y-69144342D01*
X182929523Y-69144342D02*
X182929523Y-68334819D01*
X183358095Y-68430057D02*
X183405714Y-68382438D01*
X183405714Y-68382438D02*
X183500952Y-68334819D01*
X183500952Y-68334819D02*
X183739047Y-68334819D01*
X183739047Y-68334819D02*
X183834285Y-68382438D01*
X183834285Y-68382438D02*
X183881904Y-68430057D01*
X183881904Y-68430057D02*
X183929523Y-68525295D01*
X183929523Y-68525295D02*
X183929523Y-68620533D01*
X183929523Y-68620533D02*
X183881904Y-68763390D01*
X183881904Y-68763390D02*
X183310476Y-69334819D01*
X183310476Y-69334819D02*
X183929523Y-69334819D01*
X146240595Y-104424819D02*
X146240595Y-105234342D01*
X146240595Y-105234342D02*
X146288214Y-105329580D01*
X146288214Y-105329580D02*
X146335833Y-105377200D01*
X146335833Y-105377200D02*
X146431071Y-105424819D01*
X146431071Y-105424819D02*
X146621547Y-105424819D01*
X146621547Y-105424819D02*
X146716785Y-105377200D01*
X146716785Y-105377200D02*
X146764404Y-105329580D01*
X146764404Y-105329580D02*
X146812023Y-105234342D01*
X146812023Y-105234342D02*
X146812023Y-104424819D01*
X147812023Y-105424819D02*
X147240595Y-105424819D01*
X147526309Y-105424819D02*
X147526309Y-104424819D01*
X147526309Y-104424819D02*
X147431071Y-104567676D01*
X147431071Y-104567676D02*
X147335833Y-104662914D01*
X147335833Y-104662914D02*
X147240595Y-104710533D01*
X172104819Y-75496666D02*
X171628628Y-75829999D01*
X172104819Y-76068094D02*
X171104819Y-76068094D01*
X171104819Y-76068094D02*
X171104819Y-75687142D01*
X171104819Y-75687142D02*
X171152438Y-75591904D01*
X171152438Y-75591904D02*
X171200057Y-75544285D01*
X171200057Y-75544285D02*
X171295295Y-75496666D01*
X171295295Y-75496666D02*
X171438152Y-75496666D01*
X171438152Y-75496666D02*
X171533390Y-75544285D01*
X171533390Y-75544285D02*
X171581009Y-75591904D01*
X171581009Y-75591904D02*
X171628628Y-75687142D01*
X171628628Y-75687142D02*
X171628628Y-76068094D01*
X171200057Y-75115713D02*
X171152438Y-75068094D01*
X171152438Y-75068094D02*
X171104819Y-74972856D01*
X171104819Y-74972856D02*
X171104819Y-74734761D01*
X171104819Y-74734761D02*
X171152438Y-74639523D01*
X171152438Y-74639523D02*
X171200057Y-74591904D01*
X171200057Y-74591904D02*
X171295295Y-74544285D01*
X171295295Y-74544285D02*
X171390533Y-74544285D01*
X171390533Y-74544285D02*
X171533390Y-74591904D01*
X171533390Y-74591904D02*
X172104819Y-75163332D01*
X172104819Y-75163332D02*
X172104819Y-74544285D01*
X176826666Y-87414819D02*
X176826666Y-88129104D01*
X176826666Y-88129104D02*
X176779047Y-88271961D01*
X176779047Y-88271961D02*
X176683809Y-88367200D01*
X176683809Y-88367200D02*
X176540952Y-88414819D01*
X176540952Y-88414819D02*
X176445714Y-88414819D01*
X177731428Y-87414819D02*
X177540952Y-87414819D01*
X177540952Y-87414819D02*
X177445714Y-87462438D01*
X177445714Y-87462438D02*
X177398095Y-87510057D01*
X177398095Y-87510057D02*
X177302857Y-87652914D01*
X177302857Y-87652914D02*
X177255238Y-87843390D01*
X177255238Y-87843390D02*
X177255238Y-88224342D01*
X177255238Y-88224342D02*
X177302857Y-88319580D01*
X177302857Y-88319580D02*
X177350476Y-88367200D01*
X177350476Y-88367200D02*
X177445714Y-88414819D01*
X177445714Y-88414819D02*
X177636190Y-88414819D01*
X177636190Y-88414819D02*
X177731428Y-88367200D01*
X177731428Y-88367200D02*
X177779047Y-88319580D01*
X177779047Y-88319580D02*
X177826666Y-88224342D01*
X177826666Y-88224342D02*
X177826666Y-87986247D01*
X177826666Y-87986247D02*
X177779047Y-87891009D01*
X177779047Y-87891009D02*
X177731428Y-87843390D01*
X177731428Y-87843390D02*
X177636190Y-87795771D01*
X177636190Y-87795771D02*
X177445714Y-87795771D01*
X177445714Y-87795771D02*
X177350476Y-87843390D01*
X177350476Y-87843390D02*
X177302857Y-87891009D01*
X177302857Y-87891009D02*
X177255238Y-87986247D01*
X178224819Y-77223333D02*
X178939104Y-77223333D01*
X178939104Y-77223333D02*
X179081961Y-77270952D01*
X179081961Y-77270952D02*
X179177200Y-77366190D01*
X179177200Y-77366190D02*
X179224819Y-77509047D01*
X179224819Y-77509047D02*
X179224819Y-77604285D01*
X178320057Y-76794761D02*
X178272438Y-76747142D01*
X178272438Y-76747142D02*
X178224819Y-76651904D01*
X178224819Y-76651904D02*
X178224819Y-76413809D01*
X178224819Y-76413809D02*
X178272438Y-76318571D01*
X178272438Y-76318571D02*
X178320057Y-76270952D01*
X178320057Y-76270952D02*
X178415295Y-76223333D01*
X178415295Y-76223333D02*
X178510533Y-76223333D01*
X178510533Y-76223333D02*
X178653390Y-76270952D01*
X178653390Y-76270952D02*
X179224819Y-76842380D01*
X179224819Y-76842380D02*
X179224819Y-76223333D01*
X165646666Y-95714819D02*
X165646666Y-96429104D01*
X165646666Y-96429104D02*
X165599047Y-96571961D01*
X165599047Y-96571961D02*
X165503809Y-96667200D01*
X165503809Y-96667200D02*
X165360952Y-96714819D01*
X165360952Y-96714819D02*
X165265714Y-96714819D01*
X166646666Y-96714819D02*
X166075238Y-96714819D01*
X166360952Y-96714819D02*
X166360952Y-95714819D01*
X166360952Y-95714819D02*
X166265714Y-95857676D01*
X166265714Y-95857676D02*
X166170476Y-95952914D01*
X166170476Y-95952914D02*
X166075238Y-96000533D01*
X180930549Y-47824819D02*
X180930549Y-46824819D01*
X180930549Y-47301009D02*
X181501977Y-47301009D01*
X181501977Y-47824819D02*
X181501977Y-46824819D01*
X182406739Y-47158152D02*
X182406739Y-47824819D01*
X182168644Y-46777200D02*
X181930549Y-47491485D01*
X181930549Y-47491485D02*
X182549596Y-47491485D01*
X180548095Y-99244819D02*
X180548095Y-98244819D01*
X180548095Y-98721009D02*
X181119523Y-98721009D01*
X181119523Y-99244819D02*
X181119523Y-98244819D01*
X181500476Y-98244819D02*
X182119523Y-98244819D01*
X182119523Y-98244819D02*
X181786190Y-98625771D01*
X181786190Y-98625771D02*
X181929047Y-98625771D01*
X181929047Y-98625771D02*
X182024285Y-98673390D01*
X182024285Y-98673390D02*
X182071904Y-98721009D01*
X182071904Y-98721009D02*
X182119523Y-98816247D01*
X182119523Y-98816247D02*
X182119523Y-99054342D01*
X182119523Y-99054342D02*
X182071904Y-99149580D01*
X182071904Y-99149580D02*
X182024285Y-99197200D01*
X182024285Y-99197200D02*
X181929047Y-99244819D01*
X181929047Y-99244819D02*
X181643333Y-99244819D01*
X181643333Y-99244819D02*
X181548095Y-99197200D01*
X181548095Y-99197200D02*
X181500476Y-99149580D01*
X113308095Y-99104819D02*
X113308095Y-98104819D01*
X113308095Y-98581009D02*
X113879523Y-98581009D01*
X113879523Y-99104819D02*
X113879523Y-98104819D01*
X114308095Y-98200057D02*
X114355714Y-98152438D01*
X114355714Y-98152438D02*
X114450952Y-98104819D01*
X114450952Y-98104819D02*
X114689047Y-98104819D01*
X114689047Y-98104819D02*
X114784285Y-98152438D01*
X114784285Y-98152438D02*
X114831904Y-98200057D01*
X114831904Y-98200057D02*
X114879523Y-98295295D01*
X114879523Y-98295295D02*
X114879523Y-98390533D01*
X114879523Y-98390533D02*
X114831904Y-98533390D01*
X114831904Y-98533390D02*
X114260476Y-99104819D01*
X114260476Y-99104819D02*
X114879523Y-99104819D01*
X113308095Y-47824819D02*
X113308095Y-46824819D01*
X113308095Y-47301009D02*
X113879523Y-47301009D01*
X113879523Y-47824819D02*
X113879523Y-46824819D01*
X114879523Y-47824819D02*
X114308095Y-47824819D01*
X114593809Y-47824819D02*
X114593809Y-46824819D01*
X114593809Y-46824819D02*
X114498571Y-46967676D01*
X114498571Y-46967676D02*
X114403333Y-47062914D01*
X114403333Y-47062914D02*
X114308095Y-47110533D01*
X172094819Y-80228094D02*
X171094819Y-80228094D01*
X171094819Y-80228094D02*
X171094819Y-79989999D01*
X171094819Y-79989999D02*
X171142438Y-79847142D01*
X171142438Y-79847142D02*
X171237676Y-79751904D01*
X171237676Y-79751904D02*
X171332914Y-79704285D01*
X171332914Y-79704285D02*
X171523390Y-79656666D01*
X171523390Y-79656666D02*
X171666247Y-79656666D01*
X171666247Y-79656666D02*
X171856723Y-79704285D01*
X171856723Y-79704285D02*
X171951961Y-79751904D01*
X171951961Y-79751904D02*
X172047200Y-79847142D01*
X172047200Y-79847142D02*
X172094819Y-79989999D01*
X172094819Y-79989999D02*
X172094819Y-80228094D01*
X171190057Y-79275713D02*
X171142438Y-79228094D01*
X171142438Y-79228094D02*
X171094819Y-79132856D01*
X171094819Y-79132856D02*
X171094819Y-78894761D01*
X171094819Y-78894761D02*
X171142438Y-78799523D01*
X171142438Y-78799523D02*
X171190057Y-78751904D01*
X171190057Y-78751904D02*
X171285295Y-78704285D01*
X171285295Y-78704285D02*
X171380533Y-78704285D01*
X171380533Y-78704285D02*
X171523390Y-78751904D01*
X171523390Y-78751904D02*
X172094819Y-79323332D01*
X172094819Y-79323332D02*
X172094819Y-78704285D01*
X169553333Y-55899580D02*
X169505714Y-55947200D01*
X169505714Y-55947200D02*
X169362857Y-55994819D01*
X169362857Y-55994819D02*
X169267619Y-55994819D01*
X169267619Y-55994819D02*
X169124762Y-55947200D01*
X169124762Y-55947200D02*
X169029524Y-55851961D01*
X169029524Y-55851961D02*
X168981905Y-55756723D01*
X168981905Y-55756723D02*
X168934286Y-55566247D01*
X168934286Y-55566247D02*
X168934286Y-55423390D01*
X168934286Y-55423390D02*
X168981905Y-55232914D01*
X168981905Y-55232914D02*
X169029524Y-55137676D01*
X169029524Y-55137676D02*
X169124762Y-55042438D01*
X169124762Y-55042438D02*
X169267619Y-54994819D01*
X169267619Y-54994819D02*
X169362857Y-54994819D01*
X169362857Y-54994819D02*
X169505714Y-55042438D01*
X169505714Y-55042438D02*
X169553333Y-55090057D01*
X169934286Y-55090057D02*
X169981905Y-55042438D01*
X169981905Y-55042438D02*
X170077143Y-54994819D01*
X170077143Y-54994819D02*
X170315238Y-54994819D01*
X170315238Y-54994819D02*
X170410476Y-55042438D01*
X170410476Y-55042438D02*
X170458095Y-55090057D01*
X170458095Y-55090057D02*
X170505714Y-55185295D01*
X170505714Y-55185295D02*
X170505714Y-55280533D01*
X170505714Y-55280533D02*
X170458095Y-55423390D01*
X170458095Y-55423390D02*
X169886667Y-55994819D01*
X169886667Y-55994819D02*
X170505714Y-55994819D01*
X178503333Y-74179580D02*
X178455714Y-74227200D01*
X178455714Y-74227200D02*
X178312857Y-74274819D01*
X178312857Y-74274819D02*
X178217619Y-74274819D01*
X178217619Y-74274819D02*
X178074762Y-74227200D01*
X178074762Y-74227200D02*
X177979524Y-74131961D01*
X177979524Y-74131961D02*
X177931905Y-74036723D01*
X177931905Y-74036723D02*
X177884286Y-73846247D01*
X177884286Y-73846247D02*
X177884286Y-73703390D01*
X177884286Y-73703390D02*
X177931905Y-73512914D01*
X177931905Y-73512914D02*
X177979524Y-73417676D01*
X177979524Y-73417676D02*
X178074762Y-73322438D01*
X178074762Y-73322438D02*
X178217619Y-73274819D01*
X178217619Y-73274819D02*
X178312857Y-73274819D01*
X178312857Y-73274819D02*
X178455714Y-73322438D01*
X178455714Y-73322438D02*
X178503333Y-73370057D01*
X179455714Y-74274819D02*
X178884286Y-74274819D01*
X179170000Y-74274819D02*
X179170000Y-73274819D01*
X179170000Y-73274819D02*
X179074762Y-73417676D01*
X179074762Y-73417676D02*
X178979524Y-73512914D01*
X178979524Y-73512914D02*
X178884286Y-73560533D01*
X155682714Y-62057704D02*
X156158904Y-62057704D01*
X155587476Y-62343419D02*
X155920809Y-61343419D01*
X155920809Y-61343419D02*
X156254142Y-62343419D01*
X157158904Y-62248180D02*
X157111285Y-62295800D01*
X157111285Y-62295800D02*
X156968428Y-62343419D01*
X156968428Y-62343419D02*
X156873190Y-62343419D01*
X156873190Y-62343419D02*
X156730333Y-62295800D01*
X156730333Y-62295800D02*
X156635095Y-62200561D01*
X156635095Y-62200561D02*
X156587476Y-62105323D01*
X156587476Y-62105323D02*
X156539857Y-61914847D01*
X156539857Y-61914847D02*
X156539857Y-61771990D01*
X156539857Y-61771990D02*
X156587476Y-61581514D01*
X156587476Y-61581514D02*
X156635095Y-61486276D01*
X156635095Y-61486276D02*
X156730333Y-61391038D01*
X156730333Y-61391038D02*
X156873190Y-61343419D01*
X156873190Y-61343419D02*
X156968428Y-61343419D01*
X156968428Y-61343419D02*
X157111285Y-61391038D01*
X157111285Y-61391038D02*
X157158904Y-61438657D01*
X158158904Y-62248180D02*
X158111285Y-62295800D01*
X158111285Y-62295800D02*
X157968428Y-62343419D01*
X157968428Y-62343419D02*
X157873190Y-62343419D01*
X157873190Y-62343419D02*
X157730333Y-62295800D01*
X157730333Y-62295800D02*
X157635095Y-62200561D01*
X157635095Y-62200561D02*
X157587476Y-62105323D01*
X157587476Y-62105323D02*
X157539857Y-61914847D01*
X157539857Y-61914847D02*
X157539857Y-61771990D01*
X157539857Y-61771990D02*
X157587476Y-61581514D01*
X157587476Y-61581514D02*
X157635095Y-61486276D01*
X157635095Y-61486276D02*
X157730333Y-61391038D01*
X157730333Y-61391038D02*
X157873190Y-61343419D01*
X157873190Y-61343419D02*
X157968428Y-61343419D01*
X157968428Y-61343419D02*
X158111285Y-61391038D01*
X158111285Y-61391038D02*
X158158904Y-61438657D01*
X159111285Y-62343419D02*
X158539857Y-62343419D01*
X158825571Y-62343419D02*
X158825571Y-61343419D01*
X158825571Y-61343419D02*
X158730333Y-61486276D01*
X158730333Y-61486276D02*
X158635095Y-61581514D01*
X158635095Y-61581514D02*
X158539857Y-61629133D01*
D43*
%TO.C,U2*%
X184080000Y-67700000D02*
X184080000Y-63059000D01*
X184080000Y-67700000D02*
X173840000Y-67700000D01*
X184080000Y-66190000D02*
X173840000Y-66190000D01*
X184080000Y-63059000D02*
X173840000Y-63059000D01*
X180810000Y-67700000D02*
X180810000Y-66190000D01*
X177109000Y-67700000D02*
X177109000Y-66190000D01*
X173840000Y-67700000D02*
X173840000Y-63059000D01*
D44*
%TO.C,U1*%
X149927500Y-103085000D02*
X138858500Y-103085000D01*
X149927500Y-103085000D02*
X121417500Y-103085000D01*
X149927500Y-52135000D02*
X149927500Y-103085000D01*
X149927500Y-52135000D02*
X149927500Y-103085000D01*
X149927500Y-52135000D02*
X144557500Y-52135000D01*
X144557500Y-52135000D02*
X126867500Y-52135000D01*
X138858500Y-103085000D02*
X132147500Y-103085000D01*
X132147500Y-103085000D02*
X121417500Y-103085000D01*
X126867500Y-52135000D02*
X121417500Y-52135000D01*
X121417500Y-103085000D02*
X121417500Y-52135000D01*
X121417500Y-103085000D02*
X121417500Y-52135000D01*
X121417500Y-52135000D02*
X149927500Y-52135000D01*
D41*
X150597500Y-93125000D02*
G75*
G02*
X150397500Y-93125000I-100000J0D01*
G01*
X150397500Y-93125000D02*
G75*
G02*
X150597500Y-93125000I100000J0D01*
G01*
D43*
%TO.C,R2*%
X174185000Y-75265436D02*
X174185000Y-75719564D01*
X172715000Y-75265436D02*
X172715000Y-75719564D01*
%TO.C,J6*%
X176465000Y-88835000D02*
X177160000Y-88835000D01*
X176465000Y-89520000D02*
X176465000Y-88835000D01*
X176465000Y-90205000D02*
X176465000Y-92080000D01*
X176465000Y-90205000D02*
X176551724Y-90205000D01*
X176465000Y-92080000D02*
X176765507Y-92080000D01*
X177554493Y-92080000D02*
X177855000Y-92080000D01*
X177768276Y-90205000D02*
X177855000Y-90205000D01*
X177855000Y-90205000D02*
X177855000Y-92080000D01*
%TO.C,J2*%
X177560000Y-82200000D02*
X185180000Y-82200000D01*
X185180000Y-82200000D02*
X185180000Y-72040000D01*
X177560000Y-72040000D02*
X177560000Y-82200000D01*
X183910000Y-72040000D02*
X183910000Y-82200000D01*
X185180000Y-72040000D02*
X177560000Y-72040000D01*
%TO.C,J1*%
X158130000Y-99960000D02*
X158130000Y-103110000D01*
X158130000Y-103110000D02*
X160980000Y-105710000D01*
X160980000Y-97410000D02*
X158130000Y-99960000D01*
X160980000Y-105710000D02*
X173830000Y-105710000D01*
X173830000Y-97410000D02*
X160980000Y-97410000D01*
X173830000Y-105710000D02*
X173830000Y-97410000D01*
%TO.C,D2*%
X172490000Y-78150000D02*
X172490000Y-80835000D01*
X174410000Y-80835000D02*
X174410000Y-78150000D01*
X172490000Y-80835000D02*
X174410000Y-80835000D01*
%TO.C,C2*%
X169458748Y-56485000D02*
X169981252Y-56485000D01*
X169458748Y-57955000D02*
X169981252Y-57955000D01*
%TO.C,C1*%
X178941252Y-70605000D02*
X178418748Y-70605000D01*
X178941252Y-69135000D02*
X178418748Y-69135000D01*
D45*
%TO.C,ACC1*%
X154230000Y-62774000D02*
X154230000Y-84774000D01*
X154230000Y-84774000D02*
X170380000Y-84774000D01*
D44*
X162858000Y-72328000D02*
X162858000Y-76392000D01*
X162858000Y-76392000D02*
X166922000Y-76392000D01*
D46*
X163493000Y-75884000D02*
X163620000Y-75249000D01*
X163493000Y-75884000D02*
X164128000Y-75757000D01*
X164763000Y-72709000D02*
X164382000Y-73217000D01*
X164763000Y-74614000D02*
X163493000Y-75884000D01*
X164763000Y-74614000D02*
X164763000Y-72709000D01*
X164763000Y-74614000D02*
X166541000Y-74614000D01*
X165144000Y-73217000D02*
X164763000Y-72709000D01*
X166033000Y-74233000D02*
X166541000Y-74614000D01*
X166541000Y-74614000D02*
X166033000Y-74995000D01*
D44*
X166922000Y-72328000D02*
X162858000Y-72328000D01*
X166922000Y-76392000D02*
X166922000Y-72328000D01*
D45*
X170380000Y-62774000D02*
X154230000Y-62774000D01*
X170380000Y-84774000D02*
X170380000Y-62774000D01*
D46*
X164942603Y-74614000D02*
G75*
G02*
X164583397Y-74614000I-179603J0D01*
G01*
X164583397Y-74614000D02*
G75*
G02*
X164942603Y-74614000I179603J0D01*
G01*
D44*
X169544430Y-65978000D02*
G75*
G02*
X166331570Y-65978000I-1606430J0D01*
G01*
X166331570Y-65978000D02*
G75*
G02*
X169544430Y-65978000I1606430J0D01*
G01*
X169544430Y-82742000D02*
G75*
G02*
X166331570Y-82742000I-1606430J0D01*
G01*
X166331570Y-82742000D02*
G75*
G02*
X169544430Y-82742000I1606430J0D01*
G01*
%TD*%
D47*
X107656780Y-104393212D02*
X107656780Y-51416788D01*
X181810000Y-110443220D02*
X113676788Y-110443220D01*
X187693220Y-51416788D02*
X187693220Y-104423212D01*
X113676788Y-45396780D02*
X181673212Y-45396780D01*
X181673212Y-45396780D02*
G75*
G02*
X187693219Y-51416788I-2J-6020009D01*
G01*
X107656780Y-51416788D02*
G75*
G02*
X113676788Y-45396780I6020009J-1D01*
G01*
X113676788Y-110443220D02*
G75*
G02*
X107656778Y-104393212I30076J6050011D01*
G01*
X187693220Y-104423212D02*
G75*
G02*
X181810000Y-110443220I-6000766J-20359D01*
G01*
M02*
